<svg enable-background="new 0 0 512 512" version="1.1" viewBox="0 0 512 512" xml:space="preserve" xmlns="http://www.w3.org/2000/svg">
<circle cx="256" cy="256" r="256" fill="#F0F0F0"/>
<g fill="#0052B4">
	<path d="m52.92 100.14c-20.109 26.163-35.272 56.318-44.101 89.077h133.18l-89.077-89.077z"/>
	<path d="m503.18 189.22c-8.829-32.758-23.993-62.913-44.101-89.076l-89.075 89.076h133.18z"/>
	<path d="m8.819 322.78c8.83 32.758 23.993 62.913 44.101 89.075l89.074-89.075h-133.18z"/>
	<path d="m411.86 52.921c-26.163-20.109-56.317-35.272-89.076-44.102v133.18l89.076-89.075z"/>
	<path d="m100.14 459.08c26.163 20.109 56.318 35.272 89.076 44.102v-133.18l-89.076 89.074z"/>
	<path d="M189.217,8.819c-32.758,8.83-62.913,23.993-89.075,44.101l89.075,89.075V8.819z"/>
	<path d="m322.78 503.18c32.758-8.83 62.913-23.993 89.075-44.101l-89.075-89.075v133.18z"/>
	<path d="m370 322.78 89.075 89.076c20.108-26.162 35.272-56.318 44.101-89.076h-133.18z"/>
</g>
<g fill="#D80027">
	<path d="m509.83 222.61h-220.44v-220.44c-10.931-1.423-22.075-2.167-33.392-2.167-11.319 0-22.461 0.744-33.391 2.167v220.44h-220.44c-1.423 10.931-2.167 22.075-2.167 33.392 0 11.319 0.744 22.461 2.167 33.391h220.44v220.44c10.931 1.423 22.073 2.167 33.392 2.167 11.317 0 22.461-0.743 33.391-2.167v-220.44h220.44c1.423-10.931 2.167-22.073 2.167-33.392 0-11.317-0.744-22.461-2.167-33.391z"/>
	<path d="m322.78 322.78 114.24 114.24c5.254-5.252 10.266-10.743 15.048-16.435l-97.802-97.802h-31.482v1e-3z"/>
	<path d="m189.22 322.78h-2e-3l-114.24 114.24c5.252 5.254 10.743 10.266 16.435 15.048l97.802-97.804v-31.479z"/>
	<path d="m189.22 189.22v-2e-3l-114.24-114.24c-5.254 5.252-10.266 10.743-15.048 16.435l97.803 97.803h31.481z"/>
	<path d="m322.78 189.22 114.24-114.24c-5.252-5.254-10.743-10.266-16.435-15.047l-97.802 97.803v31.482z"/>
</g>
</svg>
