<svg class="iconify iconify--emojione" width="751.25" height="751.25" aria-hidden="true" preserveAspectRatio="xMidYMid" role="img" version="1.1" viewBox="0 0 60.1 60.1" xmlns="http://www.w3.org/2000/svg">
 <g transform="translate(-2,-2)" fill="#fff">
  <path d="m61.7 28c-0.1-1-0.3-2-0.5-3h-58.4c-0.2 1-0.4 2-0.5 3h59.4"/>
  <path d="m2.3 36c0.1 1 0.3 2 0.5 3h58.3c0.2-1 0.4-2 0.5-3h-59.3"/>
  <path d="m20 4.5c-1 0.4-2 1-3 1.5v52c1 0.6 2 1.1 3 1.5v-55"/>
  <path d="m28 2.3v59.5l3 0.3v-60.1c-1 0-2 0.1-3 0.3"/>
 </g>
 <path d="m0 30c0 1.4 0.1 2.7 0.3 4h59.5c0.2-1.3 0.3-2.6 0.3-4s-0.1-2.7-0.3-4h-59.5c-0.2 1.3-0.3 2.6-0.3 4" fill="#00205b"/>
 <path d="m18 57.5c2.5 1.1 5.2 1.9 8 2.2v-59.4c-2.8 0.4-5.5 1.1-8 2.2v55" fill="#00205b"/>
 <g transform="translate(-2,-2)" fill="#ba0c2f">
  <path d="m17 25v-19c-7 4.1-12.2 10.9-14.2 19z"/>
  <path d="m17 39v19c-7-4.1-12.2-10.9-14.2-19z"/>
  <path d="m32 2h-1v23h30.2c-3.2-13.2-15-23-29.2-23z"/>
  <path d="m31 39v23h1c14.2 0 26-9.8 29.2-23h-30.2"/>
 </g>
</svg>
