<svg class="iconify iconify--emojione" width="750" height="750" aria-hidden="true" preserveAspectRatio="xMidYMid" role="img" version="1.1" viewBox="0 0 60 60" xmlns="http://www.w3.org/2000/svg">
 <g transform="translate(-2,-2)" fill="#428bc1">
  <path d="m61.2 25c-3.2-13.2-15-23-29.2-23h-1v23h30.2"/>
  <path d="m17 6c-7 4.1-12.2 10.9-14.2 19h14.2z"/>
  <path d="m2.8 39c2 8.1 7.2 14.9 14.2 19v-19z"/>
  <path d="m31 62h1c14.2 0 26-9.8 29.2-23h-30.2v23"/>
 </g>
 <path d="m59.2 23h-30.2v-23c-5.1 0.2-9.9 1.6-14 4v19h-14.2c-0.5 2.2-0.8 4.6-0.8 7s0.3 4.8 0.8 7h14.2v19c4.1 2.4 8.9 3.8 14 4v-23h30.2c0.5-2.2 0.8-4.6 0.8-7s-0.3-4.8-0.8-7" fill="#ffe62e"/>
</svg>
