<?xml version="1.0" encoding="iso-8859-1"?>
<!-- Generator: Adobe Illustrator 19.0.0, SVG Export Plug-In . SVG Version: 6.00 Build 0)  -->
<svg version="1.1" id="Capa_1" xmlns="http://www.w3.org/2000/svg" xmlns:xlink="http://www.w3.org/1999/xlink" x="0px" y="0px"
	 viewBox="0 0 512 512" style="enable-background:new 0 0 512 512;" xml:space="preserve">
<g>
	<g>
		<path d="M188.275,157.013V8.533c0-4.71-3.823-8.533-8.533-8.533h-51.2c-4.71,0-8.533,3.823-8.533,8.533v148.48
			c-31.727,17.954-51.209,51.2-51.2,87.979v258.475c0,4.719,3.823,8.533,8.533,8.533h153.6c4.71,0,8.533-3.814,8.533-8.533V245.001
			C239.483,208.213,220.002,174.967,188.275,157.013z M222.408,494.933H85.875V244.992c-0.017-32.06,17.801-60.885,46.481-75.221
			c2.893-1.451,4.719-4.403,4.719-7.637V17.067h34.133v145.067c0,3.234,1.826,6.195,4.719,7.637
			c28.681,14.327,46.49,43.153,46.481,75.221V494.933z"/>
	</g>
</g>
<g>
	<g>
		<rect x="128.516" y="42.667" width="51.2" height="17.067"/>
	</g>
</g>
<g>
	<g>
		<path d="M442.397,276.207l-15.275-106.752c-0.597-4.198-4.198-7.322-8.448-7.322h-102.4c-4.241,0-7.842,3.123-8.456,7.322
			l-15.266,106.283c-1.451,9.728-0.922,19.482,1.502,28.817l1.485,6.255c8.277,33.041,37.854,56.115,71.919,56.124
			c0.051,0,0.085,0,0.128,0c33.843,0,63.369-22.869,71.851-55.808l1.399-5.956C443.319,295.646,443.839,285.884,442.397,276.207z
			 M424.281,301.056l-1.408,5.973c-6.502,25.233-29.227,42.837-55.287,42.837c-0.043,0-0.077,0-0.111,0
			c-26.232,0-49.007-17.766-55.347-43.093l-1.502-6.332c-1.903-7.279-2.295-14.746-1.178-22.229l14.217-99.012h87.612l14.242,99.473
			C426.628,286.114,426.235,293.581,424.281,301.056z"/>
	</g>
</g>
<g>
	<g>
		<rect x="358.916" y="358.4" width="17.067" height="110.933"/>
	</g>
</g>
<g>
	<g>
		<path d="M384.541,460.8h-34.133c-23.526,0-42.667,19.14-42.667,42.667c0,4.719,3.814,8.533,8.533,8.533h102.4
			c4.719,0,8.533-3.814,8.533-8.533C427.208,479.94,408.068,460.8,384.541,460.8z M326.267,494.933
			c3.524-9.933,13.022-17.067,24.141-17.067h34.133c11.127,0,20.617,7.134,24.141,17.067H326.267z"/>
	</g>
</g>
<g>
	<g>
		<rect x="299.182" y="281.6" width="136.533" height="17.067"/>
	</g>
</g>
<g>
	<g>
		<rect x="128.516" y="119.467" width="51.2" height="17.067"/>
	</g>
</g>
<g>
	<g>
		<path d="M196.808,264.533h-85.333c-4.71,0-8.533,3.814-8.533,8.533v153.6c0,4.719,3.823,8.533,8.533,8.533h85.333
			c4.71,0,8.533-3.814,8.533-8.533v-153.6C205.341,268.348,201.518,264.533,196.808,264.533z M188.275,418.133h-68.267V281.6h68.267
			V418.133z"/>
	</g>
</g>
<g>
</g>
<g>
</g>
<g>
</g>
<g>
</g>
<g>
</g>
<g>
</g>
<g>
</g>
<g>
</g>
<g>
</g>
<g>
</g>
<g>
</g>
<g>
</g>
<g>
</g>
<g>
</g>
<g>
</g>
</svg>
