<svg height="480pt" viewBox="0 -104 480.10316 480" width="480pt" xmlns="http://www.w3.org/2000/svg"><path d="m392.070312 96.050781c-8.734374 0-17.417968 1.304688-25.769531 3.871094l-38.820312-94.902344c-1.234375-3.007812-4.160157-4.9687498-7.410157-4.9687498h-48c-4.417968 0-8 3.5820308-8 7.9999998s3.582032 8 8 8h42.632813l9.296875 22.722657-125.945312 88.902343-33.425782-71.625h27.441406c4.417969 0 8-3.582031 8-8s-3.582031-8-8-8h-64c-4.417968 0-8 3.582031-8 8s3.582032 8 8 8h11.054688l-22.398438 44.871094c-34.785156-12.011719-73.371093-1.113281-96.726562 27.324219-23.359375 28.4375-26.554688 68.40625-8.015625 100.191406 18.539063 31.789062 54.902344 48.683594 91.152344 42.351562 36.253906-6.328124 64.738281-34.546874 71.40625-70.738281h17.527343c.363282-.046875.71875-.121093 1.074219-.214843 4.089844 16.726562 20.769531 27.148437 37.597657 23.488281l6.578124 13.152343-8.839843 4.414063c-3.957031 1.976563-5.5625 6.78125-3.585938 10.738281 1.976563 3.953125 6.78125 5.558594 10.734375 3.582032l32-16c3.957032-1.972657 5.5625-6.78125 3.585938-10.734376-1.976563-3.957031-6.78125-5.558593-10.734375-3.585937l-8.851563 4.425781-6.613281-13.265625c11.730469-9.96875 14.496094-26.980469 6.519531-40.152343l91.199219-91.199219 8.746094 21.367187c-39.398438 20.617188-57.1875 67.40625-41.441407 108.988282 15.746094 41.582031 60.070313 64.847656 103.238282 54.199218 43.167968-10.652344 71.578125-51.867187 66.175781-96.003906-5.40625-44.132812-42.917969-77.277344-87.382813-77.199219zm-304 160c-28.328124-.007812-54.019531-16.621093-65.640624-42.457031-11.625-25.832031-7.019532-56.078125 11.761718-77.285156 18.785156-21.203125 48.257813-29.421875 75.304688-21l-36.585938 73.167968c-1.238281 2.480469-1.105468 5.425782.351563 7.785157 1.460937 2.355469 4.035156 3.792969 6.808593 3.789062h78.144532c-7.488282 32.722657-36.574219 55.945313-70.144532 56zm36.054688-134.222656c22.21875 12.851563 35.910156 36.558594 35.945312 62.222656h-67.054687zm51.945312 62.222656c-.039062-31.730469-17.15625-60.980469-44.800781-76.558593l20.554688-41.039063 48.628906 104.207031c-3.519531 3.863282-6.03125 8.535156-7.308594 13.597656-.355469-.089843-.710937-.160156-1.074219-.207031zm55.199219 4.425781c-1.972656-3.957031-6.78125-5.558593-10.734375-3.585937-3.953125 1.976563-5.558594 6.78125-3.585937 10.738281l6.167969 12.320313c-7.199219-.472657-13.183594-5.714844-14.601563-12.792969-1.414063-7.074219 2.097656-14.214844 8.558594-17.421875 6.464843-3.203125 14.277343-1.667969 19.046875 3.742187 4.773437 5.414063 5.320312 13.351563 1.332031 19.367188zm8.992188-23.890624c-7.867188-4.855469-17.519531-5.867188-26.222657-2.75l-9.105468-19.382813 125.28125-88.433594 5.984375 14.632813zm151.808593 91.464843c-32.90625 0-61.625-22.316406-69.761718-54.203125-8.132813-31.886718 6.386718-65.230468 35.273437-80.996094l27.082031 66.207032c1.671876 4.09375 6.347657 6.050781 10.4375 4.378906 4.09375-1.675781 6.050782-6.351562 4.378907-10.441406l-27.074219-66.144532c27.070312-7.777343 56.1875.941407 74.527344 22.316407s22.53125 51.480469 10.730468 77.054687c-11.800781 25.570313-37.429687 41.914063-65.59375 41.828125zm0 0"/></svg>