<svg width="575pt" height="575pt" version="1.1" viewBox="1 -172 575.96 575" xmlns="http://www.w3.org/2000/svg">
 <g transform="matrix(-1 0 0 1 576 0)">
  <path d="m240 86.891h38.398v19.203h-38.398z"/>
  <path d="m567.76 58.188-65.211-9.3125c-11.891-7.3047-24.23-13.844-36.953-19.582-42.016-19.031-87.617-28.852-133.75-28.801h-11.328c-54.438 0.039062-108 13.699-155.82 39.734l-32.91 17.953c-38.523 0.43359-76.305 10.68-109.77 29.758-13.602 7.8008-22 22.273-22.023 37.949v57.004c0 5.3047 4.2969 9.6016 9.6016 9.6016h32.234c10.484 29.91 43.23 45.66 73.141 35.176 16.465-5.7695 29.406-18.715 35.176-35.176h256.48c10.484 29.91 43.23 45.66 73.141 35.176 16.461-5.7695 29.406-18.715 35.176-35.176h3.4453c1.2226 0 2.4336-0.23047 3.5703-0.6836l31.094-12.477c13.891-5.5 22.988-18.945 22.938-33.879v-77.762c0-4.7734-3.5117-8.8242-8.2383-9.5039zm-434.14 122.79c-4.2461 20.777-24.531 34.18-45.309 29.934-20.781-4.2461-34.184-24.531-29.938-45.312 4.25-20.777 24.535-34.18 45.312-29.934 17.879 3.6523 30.715 19.383 30.711 37.633 0 2.5781-0.26172 5.1523-0.77735 7.6797zm173.58-7.6797h-153.6c0-31.812-25.785-57.602-57.598-57.602s-57.602 25.789-57.602 57.602h-19.199v-47.406c0.01172-8.793 4.7227-16.914 12.355-21.281 31.328-17.887 66.773-27.301 102.84-27.313h172.8zm0-115.2h-135.15l1.8516-1.0117c41.043-22.305 86.633-34.949 133.3-36.969zm19.199-38.402h5.4336c38.688-0.04297 77.023 7.3008 112.96 21.641l-16.762 16.762h-101.63zm172.02 161.28c-4.2461 20.777-24.531 34.18-45.312 29.934-20.777-4.2461-34.18-24.531-29.934-45.312 4.2461-20.777 24.535-34.18 45.312-29.934 17.879 3.6523 30.715 19.383 30.711 37.633 0 2.5781-0.26172 5.1523-0.77735 7.6797zm58.379-94.082h-28.801v19.203h28.801v39.359c0.0234 7.0742-4.2891 13.441-10.867 16.039l-27.535 11.059c0-0.88281-0.11328-1.7578-0.17188-2.6406-0.0586-0.88282-0.0781-1.918-0.17187-2.8789-0.0977-0.96094-0.28907-1.9219-0.44141-2.8789-0.15625-0.96093-0.26953-1.9219-0.46094-2.793-0.1914-0.875-0.47265-1.8438-0.72265-2.7578-0.25-0.91015-0.44141-1.832-0.73047-2.7266-0.28516-0.89063-0.63281-1.7461-0.95703-2.6211-0.32813-0.8711-0.625-1.7734-0.96094-2.6406-0.33594-0.86328-0.78906-1.6484-1.1914-2.4648-0.40234-0.81641-0.79687-1.7109-1.2461-2.5352-0.45313-0.82422-0.96094-1.5273-1.3945-2.293-0.42969-0.76953-0.95703-1.6445-1.5039-2.4297-0.55078-0.78906-1.0586-1.4102-1.5859-2.1211-0.52734-0.71094-1.125-1.5469-1.7383-2.2852-0.61328-0.73828-1.1875-1.3164-1.7852-1.9219-0.59375-0.60156-1.2578-1.418-1.918-2.0898-0.66406-0.67188-1.3164-1.2031-1.9766-1.7969-0.66407-0.59375-1.375-1.2969-2.1055-1.9219-0.72657-0.6211-1.4688-1.1016-2.1953-1.6484-0.73046-0.54688-1.4609-1.1328-2.2266-1.6445-0.76953-0.50781-1.6328-0.95703-2.457-1.4961-0.82812-0.53906-1.5-0.96093-2.2773-1.3711-0.77735-0.41406-1.7461-0.84766-2.6289-1.2695-0.88281-0.42188-1.5742-0.79688-2.3906-1.1406-0.81641-0.34765-1.9219-0.71093-2.8789-1.0547-0.96094-0.34766-1.5859-0.61719-2.4023-0.875-1.0938-0.33594-2.2148-0.57813-3.332-0.85547-0.73046-0.17188-1.4297-0.40235-2.168-0.55469-1.1797-0.24219-2.3906-0.375-3.5898-0.55078-0.71094-0.0937-1.3906-0.25-2.1016-0.31641-1.9219-0.1914-3.8398-0.29687-5.8555-0.29687-31.801 0.0312-57.57 25.801-57.602 57.602h-76.828v-95.992h105.6c2.5469 0 4.9883-1.0117 6.7852-2.8125l24.895-24.895c10.449 4.9727 20.609 10.531 30.434 16.648 1.1328 0.70703 2.3984 1.1719 3.7227 1.3633l58.965 8.418z"/>
 </g>
</svg>
