<svg viewBox="-72 0 512 512" xmlns="http://www.w3.org/2000/svg"><path d="m242.277344 475.519531c-.648438 0-1.308594-.070312-1.960938-.199219-.628906-.128906-1.257812-.320312-1.867187-.570312-.601563-.25-1.179688-.558594-1.722657-.921875-.546874-.359375-1.058593-.777344-1.519531-1.238281-.460937-.460938-.878906-.980469-1.25-1.519532-.359375-.550781-.667969-1.128906-.917969-1.730468-.25-.601563-.441406-1.230469-.570312-1.871094s-.191406-1.296875-.191406-1.949219c0-.660156.0625-1.308593.191406-1.960937.128906-.636719.320312-1.269532.570312-1.867188.25-.601562.558594-1.179687.917969-1.730468.371094-.539063.789063-1.050782 1.25-1.519532.460938-.460937.972657-.871094 1.519531-1.242187.542969-.359375 1.121094-.667969 1.722657-.917969.609375-.25 1.238281-.441406 1.867187-.570312 3.25-.652344 6.710938.410156 9.03125 2.730468.460938.46875.878906.980469 1.242188 1.519532.359375.550781.667968 1.128906.917968 1.730468.25.597656.441407 1.230469.570313 1.867188.128906.652344.199219 1.300781.199219 1.960937 0 .652344-.070313 1.308594-.199219 1.949219s-.320313 1.269531-.570313 1.871094c-.25.601562-.558593 1.179687-.917968 1.730468-.363282.539063-.78125 1.058594-1.242188 1.519532-.460937.460937-.96875.878906-1.519531 1.238281-.539063.363281-1.121094.671875-1.730469.921875-.601562.25-1.230468.441406-1.871094.570312-.636718.128907-1.296874.199219-1.949218.199219zm0 0"/><path d="m205.273438 475.515625h-128.460938c-5.523438 0-10-4.476563-10-10s4.476562-10 10-10h128.460938c5.523437 0 10 4.476563 10 10s-4.476563 10-10 10zm0 0"/><path d="m335.539062 73.664062h-50.464843c-6.496094-17.582031-17.664063-32.8125-33.210938-45.054687-23.433593-18.449219-56.144531-28.609375-92.128906-28.609375h-.660156c-35.984375.125-68.710938 10.558594-92.148438 29.378906-26.621093 21.375-40.296875 51.527344-39.5625 87.199219 0 0-.429687 44.21875-.429687 45.457031 0 58.113282 37.570312 107.613282 89.699218 125.488282v26.121093h-51.800781c-35.75 0-64.832031 29.085938-64.832031 64.832031v123.523438c0 5.523438 4.476562 10 10 10h299.085938c5.523437 0 10-4.476562 10-10v-123.519531c0-35.75-29.085938-64.835938-64.832032-64.835938h-51.800781v-26.121093c52.128906-17.875 89.699219-67.375 89.699219-125.484376 0-1.242187-.433594-23.699218-.433594-23.699218h43.820312c17.832032 0 32.335938-14.507813 32.335938-32.335938 0-17.832031-14.503906-32.339844-32.335938-32.339844zm-198.90625 44.675782v-4.839844c0-11.304688 9.195313-20.5 20.5-20.5 11.300782 0 20.5 9.195312 20.5 20.5v4.839844zm135.085938 20v22.800781c-30.617188-1.878906-62.558594-11.9375-89.023438-22.800781zm-192.269531-93.367188c19.917969-15.992187 48.222656-24.863281 79.671875-24.972656h.628906c31.5 0 59.820312 8.636719 79.738281 24.324219 21.714844 17.097656 32.863281 41.542969 32.234375 70.699219 0 .070312-.003906.140624-.003906.214843v3.101563h-74.085938v-4.839844c0-22.332031-18.167968-40.5-40.5-40.5-22.332031 0-40.5 18.167969-40.5 40.5v4.839844h-69.269531v-1.871094c0-.070312 0-.144531 0-.214844-.628906-29.273437 10.464844-53.921875 32.085938-71.28125zm-32.085938 115.292969v-21.925781h32.878907c-8.34375 9.492187-19.472657 18.71875-32.878907 21.925781zm17.472657 173.378906h44.511718c-8.808594 16.246094-21.21875 29.816407-34.199218 44.003907-22.921876 25.0625-48.476563 53-55.148438 99.984374v-99.15625c0-24.71875 20.113281-44.832031 44.835938-44.832031zm-26.207032 158.355469c2.875-47.9375 26.429688-73.6875 51.277344-100.851562 15.542969-16.992188 31.570312-34.511719 41.699219-57.503907h55.867187c10.222656 23.382813 26.480469 42.054688 42.25 60.164063 24.425782 28.054687 47.589844 54.660156 50.679688 98.191406zm260.457032-113.519531v100.425781c-6.464844-43.3125-30.71875-71.167969-54.28125-98.230469-13.363282-15.347656-26.140626-30.019531-35.140626-47.03125h44.589844c24.71875 0 44.832032 20.113281 44.832032 44.835938zm-116.632813-64.835938h-45.820313v-20.980469c7.441407 1.304688 15.097657 1.984376 22.910157 1.984376s15.46875-.679688 22.910156-1.984376zm-22.910156-38.996093c-55.820313 0-102.285157-40.828126-111.105469-94.1875 21.035156-3.804688 40.867188-18.394532 57.046875-42.121094h29.796875c35.652344 18.527344 86.363281 39.839844 135.253906 42.773437-9.089844 53.039063-55.402344 93.535157-110.992187 93.535157zm175.996093-156.308594h-43.820312v-2.996094c.15625-7.484375-.328125-14.722656-1.441406-21.679688h45.261718c6.804688 0 12.335938 5.535157 12.335938 12.339844 0 6.800782-5.53125 12.335938-12.335938 12.335938zm0 0"/></svg>