<?xml version="1.0" encoding="iso-8859-1"?>
<!-- Generator: Adobe Illustrator 19.0.0, SVG Export Plug-In . SVG Version: 6.00 Build 0)  -->
<svg version="1.1" id="Layer_1" xmlns="http://www.w3.org/2000/svg" xmlns:xlink="http://www.w3.org/1999/xlink" x="0px" y="0px"
	 viewBox="0 0 512.002 512.002" style="enable-background:new 0 0 512.002 512.002;" xml:space="preserve">
<g>
	<g>
		<path d="M461.381,67.219c-3.74-2.458-8.767-1.417-11.225,2.325c-2.458,3.742-1.417,8.767,2.325,11.225
			c22.042,14.478,36.268,35.167,41.284,59.502c-3.67-2.776-7.892-5.643-12.603-8.315c-23.977-13.6-49.159-15.726-72.827-6.153
			c-33.217,13.438-49.639,6.059-59.104-0.664c-2.636-1.869-5.204-4.065-7.851-6.713c-3.165-3.167-8.297-3.168-11.463-0.002
			c-3.166,3.164-3.167,8.297-0.002,11.462c1.441,1.441,2.873,2.765,4.31,4.017c-8.538,11.881-28.514,17.122-40.296,18.803
			c-4.482-8.776-13.102-29.128-6.139-44.797c15.248-34.309,62.288-46.483,97.935-46.483c16.919,0,33.87,3.412,49.017,9.867
			c4.123,1.755,8.88-0.162,10.635-4.28c1.755-4.119-0.16-8.879-4.279-10.635c-17.141-7.304-36.288-11.164-55.373-11.164
			c-64.743,0-100.693,28.984-112.749,56.11c-10.821,24.347,3.354,53.249,8.147,61.844l-0.656,6.789
			c-14.472,1.863-25.694,14.254-25.694,29.226c0,13.029,8.396,24.097,20.18,27.986c-2.399,26.98,9.673,53.568,31.61,69.508
			l1.716,1.247c-24.469,11.321-40.967,36.113-40.967,64.065v96.692c0,4.477,3.628,8.106,8.106,8.106H484.27
			c4.478,0,8.106-3.629,8.106-8.106V361.99c0-13.89-4.033-27.333-11.667-38.877c-2.468-3.734-7.497-4.76-11.232-2.291
			c-3.734,2.469-4.76,7.498-2.29,11.232c5.874,8.884,8.978,19.235,8.978,29.937v43.702h-24.252v-30.367
			c0-4.477-3.628-8.106-8.106-8.106s-8.106,3.629-8.106,8.106v75.251H323.992v-75.251c0-4.477-3.628-8.106-8.106-8.106
			c-4.478,0-8.106,3.629-8.106,8.106v30.367h-24.253v-43.702c0-21.283,12.408-40.189,30.887-49.044
			c1.209,7.267,3.611,14.311,7.13,20.776c1.471,2.702,4.254,4.232,7.128,4.232c1.309,0,2.637-0.318,3.868-0.988
			c3.932-2.14,5.383-7.063,3.244-10.994c-1.94-3.564-3.427-7.365-4.446-11.301l12.828,9.319c10.67,7.759,23.172,11.637,35.68,11.637
			c12.503,0,25.011-3.879,35.683-11.635l12.849-9.333c-5.608,21.558-25.236,37.52-48.524,37.52c-11.484,0-22.286-3.776-31.239-10.92
			c-3.499-2.792-8.601-2.218-11.391,1.281c-2.793,3.5-2.219,8.6,1.281,11.392c11.686,9.324,26.371,14.458,41.35,14.458
			c32.87,0,60.218-24.033,65.435-55.445c2.391,1.148,4.704,2.473,6.931,3.978c1.392,0.941,2.971,1.393,4.534,1.393
			c2.6,0,5.155-1.249,6.722-3.565c2.507-3.708,1.535-8.748-2.173-11.255c-3.163-2.139-6.467-3.99-9.885-5.573l1.714-1.245
			c21.939-15.941,34.01-42.531,31.609-69.511c11.78-3.893,20.172-14.958,20.172-27.982c0-14.966-11.217-27.354-25.686-29.223
			l-0.908-9.402c-0.429-4.457-4.391-7.715-8.847-7.29c-4.456,0.43-7.72,4.391-7.289,8.847l6.375,66.027
			c2.077,21.49-7.486,42.725-24.955,55.418L406,310.878c-15.647,11.371-36.663,11.371-52.302-0.001l-37.602-27.315
			c-17.47-12.694-27.034-33.929-24.957-55.42l5.747-59.516c12.414-1.874,38.241-7.808,50.737-25.562
			c18.252,9.274,40.208,8.519,66.793-2.236c19.041-7.704,38.664-6.028,58.319,4.983c15.281,8.558,24.863,19.788,24.947,19.888
			c1.57,1.874,3.862,2.9,6.214,2.9c0.926,0,1.863-0.159,2.769-0.488c3.203-1.165,5.336-4.21,5.336-7.617
			C512,121.784,494.023,88.657,461.381,67.219z M276.601,210.036c-3.405-2.404-5.612-6.369-5.612-10.852
			c0-5.376,3.22-10.004,7.828-12.086L276.601,210.036z M451.915,421.903h24.252v28.673h-24.252V421.903z M307.781,421.903v28.673
			h-24.253v-28.673H307.781z M488.699,199.184c0,4.479-2.205,8.441-5.606,10.844l-2.213-22.925
			C485.483,189.188,488.699,193.813,488.699,199.184z"/>
	</g>
</g>
<g>
	<g>
		<path d="M339.067,206.754c-4.478,0-8.106,3.629-8.106,8.106v10.988c0,4.477,3.628,8.106,8.106,8.106s8.106-3.629,8.106-8.106
			v-10.988C347.172,210.383,343.544,206.754,339.067,206.754z"/>
	</g>
</g>
<g>
	<g>
		<path d="M442.062,182.564c-5.727-5.727-13.341-8.88-21.439-8.88c-8.098,0-15.712,3.154-21.439,8.88
			c-3.165,3.165-3.165,8.298,0.001,11.463c3.164,3.166,8.297,3.164,11.462,0c2.664-2.664,6.207-4.132,9.974-4.132
			c3.767,0,7.311,1.468,9.974,4.132c1.584,1.582,3.658,2.373,5.733,2.373c2.074,0,4.149-0.791,5.731-2.373
			C445.227,190.862,445.227,185.73,442.062,182.564z"/>
	</g>
</g>
<g>
	<g>
		<path d="M360.505,182.564c-5.727-5.727-13.341-8.88-21.439-8.88s-15.712,3.154-21.439,8.88c-3.167,3.165-3.167,8.297-0.001,11.462
			c3.166,3.165,8.298,3.165,11.462,0c2.665-2.665,6.208-4.133,9.976-4.133c3.768,0,7.311,1.468,9.974,4.132
			c1.584,1.584,3.658,2.375,5.733,2.375c2.074,0,4.149-0.791,5.731-2.373C363.671,190.862,363.671,185.73,360.505,182.564z"/>
	</g>
</g>
<g>
	<g>
		<path d="M420.623,206.754c-4.478,0-8.106,3.629-8.106,8.106v10.988c0,4.477,3.628,8.106,8.106,8.106s8.106-3.629,8.106-8.106
			v-10.988C428.729,210.383,425.1,206.754,420.623,206.754z"/>
	</g>
</g>
<g>
	<g>
		<path d="M403.388,269.357c-3.167-3.165-8.298-3.165-11.464,0c-6.66,6.661-17.5,6.661-24.16,0c-3.167-3.165-8.298-3.165-11.464,0
			c-3.165,3.166-3.165,8.298,0,11.462c6.491,6.491,15.017,9.736,23.543,9.736c8.527,0,17.052-3.245,23.544-9.736
			C406.554,277.654,406.554,272.521,403.388,269.357z"/>
	</g>
</g>
<g>
	<g>
		<path d="M386.715,207.67c-4.478,0-8.106,3.629-8.106,8.106v19.375h-5.634c-4.477,0-8.106,3.629-8.106,8.106
			s3.628,8.106,8.106,8.106h13.74c4.478,0,8.106-3.629,8.106-8.106v-27.48C394.82,211.299,391.192,207.67,386.715,207.67z"/>
	</g>
</g>
<g>
	<g>
		<path d="M186.445,232.643c-5.496-5.497-12.805-8.524-20.577-8.524c-7.774,0-15.083,3.027-20.58,8.524
			c-3.166,3.165-3.166,8.298,0,11.462c3.165,3.165,8.298,3.165,11.462,0c2.435-2.435,5.673-3.776,9.116-3.776
			c3.443,0,6.681,1.341,9.116,3.776c1.582,1.582,3.657,2.374,5.731,2.374c2.074,0,4.149-0.791,5.731-2.374
			C189.61,240.94,189.61,235.807,186.445,232.643z"/>
	</g>
</g>
<g>
	<g>
		<path d="M109.355,232.643c-5.497-5.497-12.806-8.524-20.578-8.524c-7.774,0-15.083,3.027-20.58,8.524
			c-3.166,3.165-3.166,8.298,0,11.462c3.166,3.165,8.298,3.165,11.462,0c2.435-2.435,5.673-3.776,9.116-3.776
			s6.681,1.341,9.116,3.776c1.582,1.582,3.657,2.374,5.731,2.374c2.074,0,4.15-0.791,5.732-2.374
			C112.521,240.94,112.521,235.807,109.355,232.643z"/>
	</g>
</g>
<g>
	<g>
		<path d="M149.891,285.822c-3.165-3.165-8.298-3.165-11.463,0c-6.124,6.125-16.087,6.124-22.21,0
			c-3.166-3.165-8.298-3.165-11.462,0c-3.166,3.166-3.166,8.298,0,11.462c6.028,6.028,14.043,9.348,22.568,9.348
			s16.54-3.32,22.568-9.348C153.056,294.119,153.056,288.987,149.891,285.822z"/>
	</g>
</g>
<g>
	<g>
		<path d="M132.809,250.461h-10.967c-4.476,0-8.106,3.629-8.106,8.106c0,4.476,3.629,8.106,8.106,8.106h10.967
			c4.476,0,8.106-3.629,8.106-8.106C140.914,254.09,137.285,250.461,132.809,250.461z"/>
	</g>
</g>
<g>
	<g>
		<path d="M254.642,216.176c0-10.85-6.142-20.289-15.13-25.039l10.517-14.427c4.909-6.733,5.823-15.301,2.446-22.919
			s-10.341-12.693-18.627-13.576c-4.443-0.473-8.444,2.748-8.918,7.201c-0.474,4.452,2.748,8.444,7.201,8.918
			c3.543,0.378,5.044,2.943,5.525,4.028c0.481,1.085,1.374,3.92-0.725,6.799l-17.558,24.085c-2.099,2.878-5.069,2.895-6.25,2.771
			c-1.18-0.125-4.081-0.771-5.525-4.027l-12.386-27.935c2.768-2.477,5.008-5.527,6.541-8.962l8.262,0.881
			c0.293,0.031,0.583,0.047,0.87,0.047c4.091,0,7.606-3.088,8.049-7.246c0.474-4.452-2.748-8.445-7.2-8.919l-8.251-0.88
			c-2.497-11.994-13.146-21.034-25.87-21.034c-0.939,0-1.865,0.051-2.78,0.147l-12.385-27.922
			c-3.378-7.616-10.342-12.691-18.627-13.573c-8.288-0.886-16.161,2.61-21.069,9.344l-17.556,24.089
			c-4.908,6.734-5.821,15.302-2.442,22.919c3.377,7.617,10.342,12.692,18.628,13.575l30.36,3.235
			c0.437,2.099,1.123,4.108,2.026,5.993c-20.577,20.175-55.462,39.934-108.682,28.016c7.499-23.874,25.154-43.666,48.693-53.621
			c4.123-1.743,6.052-6.5,4.308-10.623s-6.5-6.053-10.623-4.308c-31.504,13.323-54.132,41.482-60.633,74.696
			C11.906,188.678,0,201.064,0,216.177c0,12.902,8.571,23.805,20.443,27.206c-1.651,27.645,10.929,54.513,33.474,70.891l6.405,4.653
			c-23.741,10.591-39.809,34.433-39.809,61.345v17.577c0,4.476,3.629,8.106,8.106,8.106s8.106-3.629,8.106-8.106v-17.577
			c0-19.743,11.391-37.31,28.419-45.711c5.203,29.62,31.098,52.204,62.186,52.204c25.436,0,48.277-15.14,58.19-38.572
			c1.744-4.122-0.184-8.878-4.307-10.623c-4.121-1.744-8.879,0.183-10.623,4.307c-7.37,17.421-24.35,28.676-43.26,28.676
			c-22.149,0-40.751-15.421-45.664-36.122l9.184,6.673c10.909,7.926,23.693,11.889,36.477,11.889s25.568-3.963,36.477-11.889
			l14.465-10.509c23.067,5.203,39.66,25.85,39.66,49.675v70.305h-22.037v-57.7c0-4.476-3.629-8.106-8.106-8.106
			s-8.106,3.629-8.106,8.106v57.7H74.971v-57.7c0-4.476-3.629-8.106-8.106-8.106s-8.106,3.629-8.106,8.106v57.7H36.723v-23.08
			c0-4.476-3.629-8.106-8.106-8.106s-8.106,3.629-8.106,8.106v31.186c0,4.476,3.629,8.106,8.106,8.106h197.415
			c4.476,0,8.106-3.629,8.106-8.106v-78.41c0-26.913-16.069-50.754-39.809-61.345l6.403-4.653
			c22.547-16.381,35.127-43.249,33.474-70.896C246.075,239.97,254.642,229.072,254.642,216.176z M22.181,226.623
			c-3.585-2.101-5.97-5.995-5.97-10.446c0-5.38,3.532-9.945,8.397-11.512L22.181,226.623z M177.611,132.154
			c5.631,0,10.213,4.581,10.213,10.213s-4.581,10.213-10.213,10.213c-5.632,0-10.213-4.581-10.213-10.213
			S171.979,132.154,177.611,132.154z M153.472,131.637l-30.374-3.236c-3.543-0.377-5.044-2.942-5.526-4.027
			s-1.374-3.919,0.724-6.799l17.556-24.09c2.099-2.879,5.071-2.897,6.25-2.771c1.18,0.125,4.081,0.769,5.526,4.027l12.39,27.933
			C157.248,125.15,155.006,128.201,153.472,131.637z M191.203,301.159l-36.929,26.832c-16.12,11.712-37.78,11.711-53.898,0
			l-36.93-26.832c-18.953-13.77-29.127-36.79-26.553-60.074l4.752-42.99c0.017-0.158,0.042-0.313,0.061-0.47
			c12.479,2.794,24.092,4.058,34.852,4.058c30.553,0,54.315-9.983,72.162-22.624c4.677,5.702,12.485,13.665,23.638,20.078
			c4.215,2.424,9.599,0.691,11.537-3.769c1.654-3.804,0.147-8.214-3.446-10.284c-9.021-5.196-15.374-11.699-19.095-16.205
			c1.223-1.114,2.407-2.233,3.553-3.354c3.773,2.078,8.103,3.265,12.707,3.265c0.94,0,1.87-0.052,2.785-0.148l12.38,27.919
			c3.377,7.616,10.341,12.691,18.626,13.575c0.848,0.09,1.69,0.135,2.528,0.135c0.141,0,0.28-0.01,0.42-0.012l3.408,30.824
			C220.332,264.369,210.157,287.388,191.203,301.159z M232.468,226.616l-2.426-21.946c4.861,1.571,8.389,6.133,8.389,11.507
			C238.431,220.623,236.049,224.514,232.468,226.616z"/>
	</g>
</g>
<g>
</g>
<g>
</g>
<g>
</g>
<g>
</g>
<g>
</g>
<g>
</g>
<g>
</g>
<g>
</g>
<g>
</g>
<g>
</g>
<g>
</g>
<g>
</g>
<g>
</g>
<g>
</g>
<g>
</g>
</svg>
