<svg id="ELEMENTEN" xmlns="http://www.w3.org/2000/svg" viewBox="0 0 50 50">
    <defs>
        <style>
            .cls-1 {
            fill: #000;
            stroke-width: 0px;
            }
        </style>
    </defs>
    <path class="cls-1" d="M25.22,15.18h-.44c-6.06,0-10.99,4.93-10.99,10.99v2.34c0,.97.78,1.75,1.75,1.75s1.75-.78,1.75-1.75v-2.34c0-1.98.78-3.77,2.03-5.11v23.68c0,1.38,1.12,2.5,2.5,2.5s2.5-1.12,2.5-2.5v-13.92h1.66v13.92c0,1.38,1.12,2.5,2.5,2.5s2.5-1.12,2.5-2.5v-23.34c1.07,1.3,1.72,2.96,1.72,4.77v2.24c0,.97.78,1.75,1.75,1.75s1.75-.78,1.75-1.75v-2.24c0-6.06-4.93-10.99-10.99-10.99Z"/>
    <circle class="cls-1" cx="25.16" cy="8.26" r="5.5"/>
</svg>