<svg enable-background="new 0 0 512.002 512.002" version="1.1" viewBox="0 0 512 512" xml:space="preserve" xmlns="http://www.w3.org/2000/svg"><g transform="matrix(1.188 0 0 1.188 104.74 -65.502)"><path fill="#ffffff" d="m186.44 232.64c-5.496-5.497-12.805-8.524-20.577-8.524-7.774 0-15.083 3.027-20.58 8.524-3.166 3.165-3.166 8.298 0 11.462 3.165 3.165 8.298 3.165 11.462 0 2.435-2.435 5.673-3.776 9.116-3.776s6.681 1.341 9.116 3.776c1.582 1.582 3.657 2.374 5.731 2.374s4.149-0.791 5.731-2.374c3.166-3.165 3.166-8.298 1e-3 -11.462z"/><path fill="#ffffff" d="m109.36 232.64c-5.497-5.497-12.806-8.524-20.578-8.524-7.774 0-15.083 3.027-20.58 8.524-3.166 3.165-3.166 8.298 0 11.462 3.166 3.165 8.298 3.165 11.462 0 2.435-2.435 5.673-3.776 9.116-3.776s6.681 1.341 9.116 3.776c1.582 1.582 3.657 2.374 5.731 2.374s4.15-0.791 5.732-2.374c3.167-3.165 3.167-8.298 1e-3 -11.462z"/><path fill="#ffffff" d="m149.89 285.82c-3.165-3.165-8.298-3.165-11.463 0-6.124 6.125-16.087 6.124-22.21 0-3.166-3.165-8.298-3.165-11.462 0-3.166 3.166-3.166 8.298 0 11.462 6.028 6.028 14.043 9.348 22.568 9.348s16.54-3.32 22.568-9.348c3.164-3.165 3.164-8.297-1e-3 -11.462z"/><path fill="#ffffff" d="m132.81 250.46h-10.967c-4.476 0-8.106 3.629-8.106 8.106 0 4.476 3.629 8.106 8.106 8.106h10.967c4.476 0 8.106-3.629 8.106-8.106-1e-3 -4.477-3.63-8.106-8.106-8.106z"/><path fill="#ffffff" d="m254.64 216.18c0-10.85-6.142-20.289-15.13-25.039l10.517-14.427c4.909-6.733 5.823-15.301 2.446-22.919s-10.341-12.693-18.627-13.576c-4.443-0.473-8.444 2.748-8.918 7.201-0.474 4.452 2.748 8.444 7.201 8.918 3.543 0.378 5.044 2.943 5.525 4.028s1.374 3.92-0.725 6.799l-17.558 24.085c-2.099 2.878-5.069 2.895-6.25 2.771-1.18-0.125-4.081-0.771-5.525-4.027l-12.386-27.935c2.768-2.477 5.008-5.527 6.541-8.962l8.262 0.881c0.293 0.031 0.583 0.047 0.87 0.047 4.091 0 7.606-3.088 8.049-7.246 0.474-4.452-2.748-8.445-7.2-8.919l-8.251-0.88c-2.497-11.994-13.146-21.034-25.87-21.034-0.939 0-1.865 0.051-2.78 0.147l-12.385-27.922c-3.378-7.616-10.342-12.691-18.627-13.573-8.288-0.886-16.161 2.61-21.069 9.344l-17.556 24.089c-4.908 6.734-5.821 15.302-2.442 22.919 3.377 7.617 10.342 12.692 18.628 13.575l30.36 3.235c0.437 2.099 1.123 4.108 2.026 5.993-20.577 20.175-55.462 39.934-108.68 28.016 7.499-23.874 25.154-43.666 48.693-53.621 4.123-1.743 6.052-6.5 4.308-10.623s-6.5-6.053-10.623-4.308c-31.504 13.323-54.132 41.482-60.633 74.696-14.925 0.769-26.831 13.155-26.831 28.268 0 12.902 8.571 23.805 20.443 27.206-1.651 27.645 10.929 54.513 33.474 70.891l6.405 4.653c-23.741 10.591-39.809 40.244-39.809 67.156v47.922c0 4.476 3.629 8.106 8.106 8.106s8.106-3.629 8.106-8.106v-47.922c0-19.743 11.391-43.121 28.419-51.522 5.203 29.62 31.098 52.204 62.186 52.204 25.436 0 48.277-15.14 58.19-38.572 1.744-4.122-0.184-8.878-4.307-10.623-4.121-1.744-8.879 0.183-10.623 4.307-7.37 17.421-24.35 28.676-43.26 28.676-22.149 0-40.751-15.421-45.664-36.122l9.184 6.673c10.909 7.926 23.693 11.889 36.477 11.889s25.568-3.963 36.477-11.889l14.465-10.509c23.067 5.203 39.66 25.85 39.66 49.675v70.305h-22.037v-57.7c0-4.476-3.629-8.106-8.106-8.106s-8.106 3.629-8.106 8.106v57.7h-104.71v-57.7c0-4.476-3.629-8.106-8.106-8.106s-8.106 3.629-8.106 8.106v57.7h-22.036v-23.08c0-4.476-3.629-8.106-8.106-8.106s-8.106 3.629-8.106 8.106v31.186c0 4.476 3.629 8.106 8.106 8.106h197.42c4.476 0 8.106-3.629 8.106-8.106v-78.41c0-26.913-16.069-50.754-39.809-61.345l6.403-4.653c22.547-16.381 35.127-43.249 33.474-70.896 11.869-3.407 20.436-14.305 20.436-27.201zm-232.46 10.447c-3.585-2.101-5.97-5.995-5.97-10.446 0-5.38 3.532-9.945 8.397-11.512zm155.43-94.469c5.631 0 10.213 4.581 10.213 10.213s-4.581 10.213-10.213 10.213-10.213-4.581-10.213-10.213 4.581-10.213 10.213-10.213zm-24.139-0.517-30.374-3.236c-3.543-0.377-5.044-2.942-5.526-4.027s-1.374-3.919 0.724-6.799l17.556-24.09c2.099-2.879 5.071-2.897 6.25-2.771 1.18 0.125 4.081 0.769 5.526 4.027l12.39 27.933c-2.77 2.476-5.012 5.527-6.546 8.963zm37.731 169.52-36.929 26.832c-16.12 11.712-37.78 11.711-53.898 0l-36.93-26.832c-18.953-13.77-29.127-36.79-26.553-60.074l4.752-42.99c0.017-0.158 0.042-0.313 0.061-0.47 12.479 2.794 24.092 4.058 34.852 4.058 30.553 0 54.315-9.983 72.162-22.624 4.677 5.702 12.485 13.665 23.638 20.078 4.215 2.424 9.599 0.691 11.537-3.769 1.654-3.804 0.147-8.214-3.446-10.284-9.021-5.196-15.374-11.699-19.095-16.205 1.223-1.114 2.407-2.233 3.553-3.354 3.773 2.078 8.103 3.265 12.707 3.265 0.94 0 1.87-0.052 2.785-0.148l12.38 27.919c3.377 7.616 10.341 12.691 18.626 13.575 0.848 0.09 1.69 0.135 2.528 0.135 0.141 0 0.28-0.01 0.42-0.012l3.408 30.824c2.571 23.286-7.604 46.305-26.558 60.076zm41.265-74.543-2.426-21.946c4.861 1.571 8.389 6.133 8.389 11.507 0 4.446-2.382 8.337-5.963 10.439z"/></g></svg>
