<svg width="352.82" height="352.82" fill="none" version="1.1" viewBox="0 0 10.585 10.585" xmlns="http://www.w3.org/2000/svg">
 <path d="m0.2929 0.29289c-0.39053 0.39053-0.39053 1.0237 0 1.4142l3.5851 3.5851-3.5851 3.5852c-0.39053 0.3905-0.39053 1.0237 0 1.4142 0.39052 0.3905 1.0237 0.3905 1.4142 0l3.5851-3.5852 3.5852 3.5852c0.3905 0.3905 1.0237 0.3905 1.4142 0 0.3905-0.3905 0.3905-1.0237 0-1.4142l-3.5852-3.5852 3.5852-3.5851c0.3905-0.39052 0.3905-1.0237 0-1.4142-0.3906-0.39053-1.0237-0.39053-1.4142 0l-3.5852 3.5851-3.5851-3.5851c-0.39052-0.39052-1.0237-0.39052-1.4142 0z" fill="#ffffff"/>
</svg>
