<svg width="512pt" height="512pt" version="1.1" viewBox="0 -136 512 512" xmlns="http://www.w3.org/2000/svg">
 <g>
  <path d="m111.71 176.36c-8.5586 0-15.52 6.9609-15.52 15.516 0 8.5547 6.9609 15.516 15.52 15.516 8.5547 0 15.516-6.9609 15.516-15.516 0-8.5547-6.9609-15.516-15.516-15.516z"/>
  <path d="m424.34 176.36c-8.5586 0-15.516 6.9609-15.516 15.516 0 8.5547 6.957 15.516 15.516 15.516 8.5547 0 15.516-6.9609 15.516-15.516 0-8.5547-6.9609-15.516-15.516-15.516z"/>
  <path d="m504.5 104.21c-4.1406 0-7.5 3.3555-7.5 7.5v5.1172c-16.172-5.4141-51.941-14.762-117.64-20.395l-61.172-54.375c-7.25-6.4453-16.586-9.9961-26.285-9.9961h-4.3555v-8.5312c0-12.977-10.559-23.531-23.535-23.531-12.973 0-23.531 10.559-23.531 23.531v8.5312h-89.977c-11.566 0-22.512 5.0312-30.031 13.805l-33.742 39.363c-1.6016 1.8711-3.9531 2.9453-6.4492 2.9453h-8.6602c-4.1406 0-7.5 3.3594-7.5 7.5 0 4.1445 3.3594 7.5 7.5 7.5h8.6602c6.8789 0 13.379-2.9805 17.84-8.1836l33.738-39.363c4.668-5.4414 11.461-8.5664 18.645-8.5664h13.195l-17.25 34.504c-1.4102 2.8242-2.1562 5.9805-2.1602 9.1328 0 0.007812-0.003907 0.015625-0.003907 0.023437v66.52c-8.5195-8.0234-19.98-12.953-32.578-12.953-9.7578 0-18.84 2.957-26.398 8.0156h-38.25v-8.5312c0-12.977-10.555-23.531-23.531-23.531h-8.5312v-8.5312c0-4.707 3.8281-8.5352 8.5312-8.5352h16.035c4.1445 0 7.5-3.3555 7.5-7.5 0-4.1406-3.3555-7.5-7.5-7.5h-16.035c-12.973 0.003907-23.531 10.559-23.531 23.535v66.008c0 11.844 8.8633 21.883 20.613 23.348l45.934 5.7422c6.2773 18.938 24.145 32.641 45.164 32.641 20.805 0 38.52-13.426 44.969-32.062h222.69c6.4492 18.637 24.164 32.062 44.969 32.062 20.805 0 38.52-13.426 44.969-32.062h27.176c8.5547 0 15.516-6.9609 15.516-15.516v-80.16c0-4.1445-3.3594-7.5-7.5-7.5zm-7.5 28.535v19.562h-46.266c-7.5586-5.0625-16.637-8.0195-26.395-8.0195-17.164 0-32.227 9.1367-40.598 22.797v-55.207c43.934 4.0234 72.957 9.6992 89.859 13.867 11.641 2.8711 19.199 5.4141 23.398 7zm-188.77-79.477 60.516 53.793v85.324h-209.45v-81.957c1.7461 0.48437 3.5742 0.76172 5.4727 0.76172h163.39c4.1406 0 7.5-3.3555 7.5-7.5 0-4.1406-3.3594-7.5-7.5-7.5h-72.664v-49.129h36.422c6.0234 0.003906 11.82 2.207 16.32 6.207zm-52.742-29.738c0-4.7031 3.8281-8.5312 8.5312-8.5312s8.5312 3.8281 8.5312 8.5312v8.5352h-17.062zm-95.617 64.742 20.605-41.207h60.012v49.129h-75.723c-3.0156 0-5.4727-2.457-5.4727-5.4727 0-0.84375 0.20313-1.6914 0.57813-2.4492zm-136.34 46.969c4.707 0 8.5312 3.8281 8.5312 8.5312v8.5312h-17.062v-17.062zm-8.5312 42.477v-10.414h55.977c-4.2656 7.0469-6.7461 15.285-6.8359 24.086l-41.668-5.207c-4.2578-0.53125-7.4727-4.1719-7.4727-8.4648zm96.711 46.734c-17.969 0-32.582-14.617-32.582-32.582s14.613-32.582 32.582-32.582c17.965 0 32.578 14.617 32.578 32.582s-14.613 32.582-32.578 32.582zm312.63 0c-17.965 0-32.582-14.617-32.582-32.582s14.617-32.582 32.582-32.582 32.582 14.617 32.582 32.582-14.617 32.582-32.582 32.582zm72.145-32.066h-24.578c0-0.17188 0.011719-0.34375 0.011719-0.51562 0-8.9805-2.5039-17.391-6.8477-24.562h31.93v24.562c0 0.28516-0.23047 0.51562-0.51562 0.51562z"/>
  <path d="m176.36 167.82c0 4.1406 3.3594 7.5 7.5 7.5h160.32c4.1445 0 7.5-3.3594 7.5-7.5 0-4.1445-3.3555-7.5-7.5-7.5h-160.32c-4.1406 0-7.5 3.3555-7.5 7.5z"/>
 </g>
 <g fill="none" stroke="#000" stroke-width="12">
  <path d="m263.86-23.623v-36.817"/>
  <path d="m305.28 15.495h36.818"/>
  <path d="m186.39 16.296h36.818"/>
  <path d="m295.4-12.242 26.034-26.034"/>
  <path d="m208.66-37.475 26.034 26.034"/>
 </g>
</svg>
