<?xml version="1.0" encoding="UTF-8"?>
<svg id="ELEMENTEN" xmlns="http://www.w3.org/2000/svg" viewBox="0 0 64 64">
  <defs>
    <style>
      .cls-1 {
        fill: #000;
        stroke-width: 0px;
      }
    </style>
  </defs>
  <path class="cls-1" d="M0,20.11h9.53l.23,6.23h.15c2.48-4.65,6-7.05,10.13-7.05,1.43,0,2.63.3,3.68.68v8.85c-.83-.23-2.33-.45-3.83-.45-6.38,0-9.75,4.2-9.75,8.93v23.11H0V20.11Z"/>
  <path class="cls-1" d="M23.71,40.59c0-12,6.83-21.31,17.63-21.31,5.1,0,9.38,2.18,12.38,6.08h.15V2.78h10.13v57.62h-9.53l-.22-6.08h-.15c-3.08,4.43-7.8,6.9-13.13,6.9-10.8,0-17.26-9.15-17.26-20.63ZM54.17,40.22c0-7.8-3.6-12.98-10.13-12.98s-10.05,6-10.05,13.13c0,6.75,3.15,12.91,9.9,12.91s10.28-5.55,10.28-13.06Z"/>
</svg>