<svg version="1.1" viewBox="0 0 48 48" xmlns="http://www.w3.org/2000/svg">
 <g transform="matrix(.42793 0 0 .42793 -16.113 -26.788)">
  <path d="m93.819 62.333h-0.16087c-19.464 0-35.298 15.829-35.298 35.285 0 12.753 5.8081 29.586 17.263 50.027 8.4926 15.156 17.104 26.763 17.191 26.879 0.23971 0.322 0.61754 0.51171 1.0178 0.51171 0.0114 0 0.023 0 0.0344-5.3e-4 0.41302-0.0114 0.79428-0.22278 1.0234-0.56701 0.0849-0.12858 8.6352-13.041 17.07-28.834 11.385-21.316 17.158-37.47 17.158-48.017-8e-4 -19.456-15.835-35.285-35.298-35.285zm16.293 36.147c0 9.0287-7.3451 16.373-16.374 16.373-9.0284 0-16.373-7.3451-16.373-16.373 0-9.0284 7.3451-16.373 16.373-16.373 9.0286 0 16.374 7.3451 16.374 16.373z" stroke-width=".26458"/>
 </g>
</svg>
