<svg enable-background="new 0 0 512 512" version="1.1" viewBox="0 0 512 512" xml:space="preserve" xmlns="http://www.w3.org/2000/svg"><path d="m234.81 419.03c-24.842 1.119-40.201 32.713-28.154 53.766 7.661 16.535 31.046 25.367 46.289 13.572 21.022-14.101 20.864-50.765-1.957-63.086-4.8354-2.9402-10.499-4.5728-16.178-4.252zm0.22266 15.08c16.283-0.2345 24.766 21.207 16.543 33.924-6.2821 10.856-22.792 10.848-30.426 1.5762-8.2999-10.082-4.4311-27.645 6.9277-33.805 2.1489-1.0877 4.5475-1.6675 6.9551-1.6953z" stroke-width=".79906"/><path d="m435.47 419.01c-25.247 0.6963-40.726 33.083-28.305 54.15 7.6207 16.397 30.968 25.009 46.051 12.92 20.588-14.387 20.182-50.572-2.4121-62.875-4.5889-2.7702-9.9505-4.3901-15.334-4.1953zm-0.30274 15.102c15.854-0.0759 24.078 20.389 16.811 33.104-5.5014 10.936-21.609 12.159-29.652 3.459-9.1083-9.5213-6.025-27.255 4.7461-34.256 2.4267-1.4811 5.2532-2.284 8.0957-2.3066z" stroke-width=".79555"/><path d="m303.62 278.07c-30.638 0.25212-63.904 9.8028-82.285 35.93-8.1589 11.3-13.093 24.898-22.347 35.429-10.571 6.1133-24.819 7.4218-32.008 18.223-4.1347 16.904 3.2218 35.045-3.5352 51.488-4.8687 6.707-3.7291 15.095-2.8594 22.836-0.0827 7.8007-3.6275 18.756 4.959 23.424 6.1188 2.4853 12.813-0.0918 19.154 0.97116 6.4287 0.6655 11.969-4.1933 11.893-10.727 0.65264-8.6288 0.42847-17.631 4.8379-25.414 6.2319-15.534 21.753-30.138 39.602-27.445 21.33 4.267 34.009 26.446 35.122 46.893 0.13433 6.3526 1.1921 16.061 9.4362 16.402 10.465 1.2011 20.954-1.2711 31.514 0.0641 24.68-0.0583 49.731 1.0586 74.135-1.0504 7.0084-10.818 1.772-25.256 8.9777-36.113 6.4012-15.45 22.617-29.63 40.319-25.946 21.808 5.5141 33.909 29.028 33.988 50.244-0.44047 6.9862 4.8324 14.93 12.626 13.031 6.8524-0.15917 14.529 0.99377 20.838-1.9506 6.6509-7.9346 1.1557-18.833 3.3147-28.078 0.71967-7.228-1.031-14.923-5.9124-20.391-0.74916-9.6766 1.9721-19.287-1.1125-28.757-3.2288-13.891-14.517-24.052-27.098-29.74-15.615-7.7653-33.298-9.91-50.446-12.339-8.4734-10.181-14.624-22.32-25.088-30.765-26.001-24.933-62.345-37.986-98.025-36.219zm7.4609 18.299c1.2486 16.027 0.27261 32.163 0.39062 48.234-6.9449 4.2105-15.056-0.2941-22.488 1.3945h-34.381c0.18204-13.798-0.88062-27.623 0.30078-41.398 17.282-8.7013 37.045-9.7185 56.025-10.121l0.0803 0.99677zm15.834-0.88477c33.455 3.29 63.878 23.294 83.016 50.514h-85.334c0.0315-16.915-0.11806-33.832 0.13282-50.746 0.72851 0.0775 1.457 0.15495 2.1855 0.23242zm-85.473 22.979c-0.0857 9.1455 0.71895 18.325-0.35352 27.441-7.1762-0.36145-14.98 1.7452-21.703-2.0352 5.7633-11.244 13.237-21.568 22.088-30.584-0.0104 1.7259-0.0208 3.4518-0.0312 5.1777zm-20.982 43.121c74.95 2.593 150.09-2.0231 224.98 2.6186 15.687 2.2611 31.806 7.9203 42.413 20.27-7.9963 1.7108-9.8098 15.285-1.5098 17.494 4.7637-0.92696 8.8709 4.5114 6.2148 8.7383-1.833 9.3327-0.0962 19.462 5.707 27.029 1.4839 4.9867 0.16489 14.169-6.8457 12.992-6.9739-1.7509-4.659-10.34-6.2715-15.354-4.8527-23.118-22.298-45.988-46.945-49.225-22.39-1.7436-42.957 16.145-49.951 36.98-3.4487 8.4335-5.5439 17.697-6.4805 26.865-30.791-0.13016-61.587 0.32287-92.375-0.28711-1.6905-25.674-15.859-52.804-41.139-61.949-22.696-6.95-46.774 8.6862-55.605 29.496-5.1937 10.555-7.1679 22.265-10.408 33.482-6.3499 1.4512-11.78-5.3622-9.623-11.293 1.312-7.1248 9.0194-12.355 6.3984-20.199-0.52387-5.3792-1.0599-11.1 1.2891-16.16 7.7853 0.92913 14.209-9.2116 7.8691-14.896-2.2624-3.2266-7.7288-2.317-9.5559-4.3657-1.9685-7.6776 6.2691-11.861 12.267-13.732 9.265-4.3941 19.121-8.4744 29.576-8.5059z" stroke-width=".80023"/><g transform="matrix(.1527 0 0 .67451 135.56 -4.9773)"><path d="m472 443.97h-464c-4.418 0-8 3.582-8 8s3.582 8 8 8h464c4.418 0 8-3.582 8-8s-3.582-8-8-8z"/></g><g transform="matrix(1.4593 -.27661 .26017 1.4549 -735.41 -931.22)"><path d="m400.79 748.25c-13.106-0.25735-27.643 10.182-26.346 24.324 0.94301 10.649 10.666 18.498 20.715 20.291-12.547 10.835-15.948 30.823-6.3984 44.672 5.377 8.045 14.294 16.805 24.887 13.867 8.3052-1.3362 14.236-11.848 8.5234-18.922-4.4968-4.3797-10.815-9.2883-8.4336-16.504 1.9082-5.8603 8.1842 4.9497 11.915 6.2389 19.217 15.729 38.39 31.51 57.573 47.279 0.55366 11.172-0.99199 22.557 0.53515 33.635 2.2699 6.7976 9.658 11.211 16.512 12.156 9.6957 0.71276 21.136-6.1237 20.441-16.873-0.29231-14.451 0.54687-29.052-0.34961-43.424-4.6303-6.2126-12.151-9.9552-17.695-15.377 4.7262-1.9218 9.454-12.02 14.179-7.8162 8.6505 5.9727 15.483 14.951 25.282 19.09 10.29 3.9407 25.2-2.7184 24.623-14.906-0.96579-10.555-12.75-14.545-19.167-21.348-10.413-8.039-20.017-17.364-30.837-24.762-7.3633-1.9494-11.651 6.9651-17.255 9.9869-6.1518 5.0467-12.304 10.093-18.455 15.14-7.7398-6.3797-15.649-12.8-23.283-19.154 15.697-2.9942 30.746-16.824 29.381-33.768-2.0541-13.152-22.971-14.752-28.115-2.9531-1.3285 4.3466-0.92257 10.01-6.2383 11.852-7.2426 2.5237-15.305 0.87971-22.707 3.1894-3.3258 1.602-0.67202-3.2061-1.543-5.0508-1.3032-13.354-15.302-21.342-27.742-20.863zm1.4902 10.91c8.7444-0.57741 18.227 9.5591 11.938 17.66-7.0424 9.8712-27.232 6.8357-27.443-6.5195 0.56668-7.4337 8.7714-11.567 15.506-11.141zm70.639 2.8438c3.9228 0.90816 1.1276 6.4368 0.52539 8.9863-4.5153 10.759-16.949 15.351-27.715 15.322-6.4744 1.7137-5.8373 12.079-0.0915 14.515 11.192 8.6938 21.596 18.641 33.191 26.698 7.3652 1.9585 11.654-6.9679 17.258-9.9904 6.1463-5.0455 12.293-10.091 18.439-15.137 13.037 11.076 26.909 21.382 39.484 32.885 1.8695 5.6494-7.1844 7.6145-10.215 3.7155-9.1968-6.9697-17.499-15.385-27.131-21.657-7.3361-1.848-11.577 7.0038-17.169 10.021-3.4871 4.4302-11.86 6.385-12.028 12.838 1.933 6.1104 9.5524 8.2903 13.515 12.934 6.0182 3.3314 8.884 8.152 7.3566 15.048-0.36834 10.959 0.68772 22.153-0.43555 32.99-3.32 6.0245-14.746 2.6891-12.309-4.7676-0.47954-10.422 0.86415-21.133-0.48828-31.42-7.8348-8.1973-17.7-14.565-26.201-22.159-17.461-14.071-34.473-28.815-52.192-42.499-6.7449-2.3959-11.545 5.1917-14.057 10.34-4.6685 10.113 0.62072 21.916 9.2637 27.961 0.28815 3.8136-5.7086 2.4022-6.8398-0.10352-10.861-8.3513-12.84-25.608-3.3301-35.723 11.91-13.286 29.766-20.306 47.498-19.725 10.787-0.54717 21.345-9.0648 21.498-20.307 0.52927-0.60893 1.3912-0.82859 2.1719-0.76757z" stroke-width=".47413"/></g><g transform="matrix(.23967 0 0 .63596 47.497 56.264)"><path d="m472 443.97h-464c-4.418 0-8 3.582-8 8s3.582 8 8 8h464c4.418 0 8-3.582 8-8s-3.582-8-8-8z"/></g><g transform="matrix(.23967 0 0 .63596 29.054 105.84)"><path d="m472 443.97h-464c-4.418 0-8 3.582-8 8s3.582 8 8 8h464c4.418 0 8-3.582 8-8s-3.582-8-8-8z"/></g></svg>
