<svg width="17.604" height="17.604" version="1.1" viewBox="0 0 23.472 23.472" xmlns="http://www.w3.org/2000/svg">
 <path fill="#ffffff" d="m13.434 20.216 0.87286-3.3918h5.7827l0.98196 3.3918h2.4004l-4.5825-14.698h-3.2732l-4.5825 14.698zm3.8187-12.437 2.1821 6.7837h-4.3643zm-12.547-4.5224 1.0234 2.1549h-5.3877v2.3675h1.7392c0.65464 2.0351 1.534 3.6247 2.6251 4.9815-1.2002 0.79143-4.7058 2.0136-4.7058 2.0136l1.4326 2.0498s3.8046-1.5682 5.1149-2.4738c1.0911 0.79143 2.5302 1.3432 4.0577 1.9085l0.6481-2.2612c-1.0911-0.33918-2.169-0.77786-2.9328-1.3432 1.2002-1.2437 2.073-2.8333 2.7277-4.9815h2.3873l0.54554-2.2612h-6.0696l-1.0234-2.1549zm-0.20512 4.5224h4.1253c-0.43643 1.4698-0.98851 2.2612-2.0796 3.3918-1.2002-1.1306-1.6093-1.922-2.0458-3.3918z" stroke-width="1.1107"/>
</svg>
