<svg height="480pt" viewBox="0 -88 480.00385 480" width="480pt" xmlns="http://www.w3.org/2000/svg"><path d="m80 144c-44.183594 0-80 35.820312-80 80 0 44.183594 35.816406 80 80 80s80-35.816406 80-80c-.046875-44.160156-35.835938-79.949219-80-80zm0 144c-35.347656 0-64-28.652344-64-64 0-35.34375 28.652344-64 64-64s64 28.65625 64 64c-.039062 35.332031-28.671875 63.960938-64 64zm0 0"/><path d="m80 192c-17.671875 0-32 14.328125-32 32 0 17.675781 14.328125 32 32 32s32-14.324219 32-32c0-17.671875-14.328125-32-32-32zm0 48c-8.835938 0-16-7.160156-16-16 0-8.835938 7.164062-16 16-16s16 7.164062 16 16c0 8.839844-7.164062 16-16 16zm0 0"/><path d="m400 144c-9.375.019531-18.675781 1.699219-27.464844 4.960938l-6.925781-14.398438c10.003906-3.855469 20.578125-6.015625 31.292969-6.402344.753906 0 1.488281-.109375 2.25-.117187 15.878906-.171875 31.550781 3.617187 45.601562 11.023437 3.902344 2.007813 8.695313.496094 10.738282-3.390625 2.042968-3.886719.574218-8.691406-3.292969-10.769531-15.964844-8.402344-33.734375-12.796875-51.773438-12.800781-.152343 0-.273437-.085938-.425781-.085938-.28125 0-.542969 0-.800781 0-1.421875 0-2.839844.152344-4.261719.214844-12.449219.535156-24.71875 3.164063-36.296875 7.765625l-13.089844-27.253906c7.28125 2.1875 14.847657 3.285156 22.449219 3.253906 4.417969 0 8-3.578125 8-8v-64c0-4.417969-3.582031-8-8-8-18.753906-.964844-36.921875 6.695312-49.320312 20.800781l-15.480469-32.261719c-1.328125-2.769531-4.128907-4.5312495-7.199219-4.539062h-48c-4.417969 0-8 3.582031-8 8 0 4.421875 3.582031 8 8 8h42.96875l11.519531 24h-65.304687c-21.417969.027344-40.734375 12.875-49.039063 32.617188-1.347656-.386719-2.742187-.59375-4.144531-.617188h-128c-17.671875 0-32 14.328125-32 32 .039062 8.386719 6.546875 15.320312 14.910156 15.890625-9.992187 3.902344-19.371094 9.234375-27.839844 15.824219-3.480468 2.722656-4.097656 7.75-1.375 11.230468 2.722657 3.480469 7.75 4.097657 11.234376 1.375 28.925781-22.578124 68.195312-26.695312 101.175781-10.597656 32.976562 16.09375 53.898437 49.582032 53.894531 86.277344v10.539062c-.953125 6.101563.65625 12.324219 4.449219 17.199219 3.101562 2.941407 7.277343 4.484375 11.550781 4.261719h88c6.40625.144531 12.597656-2.335938 17.128906-6.871094 4.53125-4.53125 7.015625-10.71875 6.871094-17.128906v-8c-.015625-15.84375 3.917969-31.445312 11.441406-45.390625.527344-.984375 1.132813-1.894531 1.695313-2.855469 7.054687-12.085937 16.648437-22.496094 28.121093-30.511718.40625-.28125.796876-.601563 1.183594-.871094.933594-.632813 1.933594-1.160156 2.886719-1.753906.617187-.382813 1.246094-.75 1.871094-1.128907l6.945312 14.464844c-33.882812 20.972656-47.117187 63.71875-31.003906 100.167969 16.109375 36.445312 56.628906 55.433594 94.945313 44.492187 38.316406-10.941406 62.699218-48.460937 57.136718-87.921875-5.566406-39.457031-39.375-68.769531-79.222656-68.691406zm-72-88c0-11.375 13.992188-21.199219 32-23.492188v46.988282c-9.742188-.894532-18.941406-4.875-26.265625-11.359375l-5.695313-11.863281c0-.09375-.039062-.183594-.039062-.273438zm-90.816406 0h69.871094l24 48h-120.238282c-5.972656-.003906-10.8125-4.84375-10.816406-10.8125.023438-20.527344 16.65625-37.164062 37.183594-37.1875zm-181.183594 32h128v16h-144c0-8.835938 7.164062-16 16-16zm232 144c.125 2.160156-.679688 4.265625-2.207031 5.796875-1.527344 1.527344-3.636719 2.328125-5.792969 2.203125h-87.9375c-.132812-1.398438-.101562-3.558594-.085938-5.261719l.023438-10.738281c.074219-45.855469-27.894531-87.101562-70.527344-104h62.527344c4.328125-.003906 8.46875-1.765625 11.472656-4.886719 4.488282 3.175781 9.847656 4.882813 15.34375 4.886719h130.070313l3.359375 7c-.703125.410156-1.390625.851562-2.085938 1.273438-1.601562.953124-3.199218 1.847656-4.726562 2.871093l-.152344.121094c-2.402344 1.601563-4.738281 3.375-7.023438 5.191406-.726562-.261719-1.488281-.414062-2.257812-.457031h-104c-6.464844.011719-12.65625 2.625-17.171875 7.25-4.515625 4.628906-6.976563 10.878906-6.828125 17.34375v6.816406c-.148438 6.464844 2.3125 12.714844 6.828125 17.34375 4.515625 4.625 10.707031 7.238282 17.171875 7.246094h68.71875c-1.539062 5.242188-2.691406 10.589844-3.4375 16h-49.28125c-4.417969 0-8 3.582031-8 8 0 4.421875 3.582031 8 8 8h48zm13.34375-60.933594c-.136719.246094-.304688.480469-.441406.734375-.070313.136719-.0625.289063-.125.433594-.640625 1.230469-1.21875 2.511719-1.816406 3.765625h-74.960938c-2.214844-.03125-4.324219-.964844-5.832031-2.585938-1.511719-1.621093-2.292969-3.792968-2.167969-6.003906v-6.816406c-.125-2.210938.65625-4.382812 2.167969-6.003906 1.507812-1.621094 3.617187-2.558594 5.832031-2.589844h90.265625c-4.0625 4.890625-7.703125 10.113281-10.882813 15.617188-.671874 1.183593-1.40625 2.265624-2.039062 3.449218zm98.65625 116.933594c-28.347656.042969-53.335938-18.578125-61.402344-45.753906-8.066406-27.175782 2.71875-56.414063 26.5-71.84375l14.125 29.441406c-11.6875 10.386719-13.855468 27.832031-5.070312 40.765625 8.789062 12.933594 25.804687 17.347656 39.769531 10.308594 13.960937-7.035157 20.542969-23.335938 15.375-38.09375-5.167969-14.757813-20.480469-23.394531-35.785156-20.183594l-14.03125-29.230469c24.039062-8.175781 50.640625-1.367187 67.792969 17.359375 17.15625 18.722657 21.617187 45.816407 11.375 69.050781-10.246094 23.234376-33.253907 38.214844-58.648438 38.179688zm0-80c8.835938 0 16 7.164062 16 16 0 8.839844-7.164062 16-16 16s-16-7.160156-16-16c.011719-3.472656 1.171875-6.847656 3.296875-9.597656 1.359375 1.019531 3.003906 1.578125 4.703125 1.597656 2.113281.003906 4.144531-.84375 5.632812-2.34375 1.488282-1.503906 2.3125-3.539062 2.296876-5.65625zm0 0"/></svg>