<?xml version="1.0" encoding="iso-8859-1"?>
<!-- Generator: Adobe Illustrator 19.0.0, SVG Export Plug-In . SVG Version: 6.00 Build 0)  -->
<svg version="1.1" id="Capa_1" xmlns="http://www.w3.org/2000/svg" xmlns:xlink="http://www.w3.org/1999/xlink" x="0px" y="0px"
	 viewBox="0 0 512 512" style="enable-background:new 0 0 512 512;" xml:space="preserve">
<g>
	<g>
		<path d="M350.8,209.699c22.499-2.4,40.2-21.598,40.2-44.699c0-9.078-2.939-17.437-7.614-24.527l-110.56-55.281l-134.89,44.963
			C127.716,138.369,121,150.906,121,165c0,23.101,17.701,42.299,40.201,44.7c10.199,21.601,27.599,40,49.199,50.501
			c-1.8,6.299-7.5,10.8-14.399,10.8h-18.3l30,120h70.455l82.222-118.546C355.633,271.795,350.924,271,346,271h-30
			c-6.899,0-12.599-4.501-14.399-10.8C323.2,249.699,340.601,231.3,350.8,209.699z"/>
	</g>
</g>
<g>
	<g>
		<path d="M256,0c-20.136,0-38.785,5.978-54.781,15.844l158.795,79.398C355.005,41.971,310.558,0,256,0z"/>
	</g>
</g>
<g>
	<g>
		<path d="M176.594,37.077c-13.416,15.661-22.134,35.153-24.463,56.735l82.76-27.587L176.594,37.077z"/>
	</g>
</g>
<g>
	<g>
		<path d="M184.3,421c-2.14-8.598-36.182-145.323-36.899-148.2C98.2,281.8,61,324.401,61,376v60c0,41.525,33.655,76,75,76h195v-91
			H184.3z"/>
	</g>
</g>
<g>
	<g>
		<path d="M390.692,281.362L314.651,391H361v121h15c41.4,0,75-34.6,75-76v-60C451,334.142,426.209,298.215,390.692,281.362z"/>
	</g>
</g>
<g>
</g>
<g>
</g>
<g>
</g>
<g>
</g>
<g>
</g>
<g>
</g>
<g>
</g>
<g>
</g>
<g>
</g>
<g>
</g>
<g>
</g>
<g>
</g>
<g>
</g>
<g>
</g>
<g>
</g>
</svg>
