<?xml version="1.0" encoding="iso-8859-1"?>
<!-- Generator: Adobe Illustrator 19.0.0, SVG Export Plug-In . SVG Version: 6.00 Build 0)  -->
<svg version="1.1" id="Capa_1" xmlns="http://www.w3.org/2000/svg" xmlns:xlink="http://www.w3.org/1999/xlink" x="0px" y="0px"
	 viewBox="0 0 464.092 464.092" style="enable-background:new 0 0 464.092 464.092;" xml:space="preserve">
<g>
	<g id="XMLID_29_">
		<polygon id="XMLID_87_" points="183.53,347.811 183.53,360.986 219.423,353.601 		"/>
		<polygon id="XMLID_861_" points="227.481,334.643 227.481,327.238 198.304,329.936 		"/>
		<path id="XMLID_862_" d="M183.53,381.099v4.062c0,12.137,9.839,21.976,21.976,21.976c12.137,0,21.976-9.839,21.976-21.976v-12.798
			C181.822,381.757,185.28,381.168,183.53,381.099z"/>
		<circle id="XMLID_875_" cx="232.23" cy="37.954" r="37.954"/>
		<path id="XMLID_876_" d="M221.959,222.273c4.025,11.788,17.4,14.336,23.249,11.412l-11.837-34.661l0,0
			C223.933,202.247,218.652,212.588,221.959,222.273z"/>
		<path id="XMLID_877_" d="M325.131,192.791l-0.167-33.242l-0.143-28.422c-0.119-23.777-19.561-43.121-43.338-43.121h-98.508
			c-23.776,0-43.218,19.344-43.337,43.121l-0.676,134.54c-0.049,9.775,7.576,17.777,17.219,18.349V454.09c0,5.522,4.478,10,10,10
			s10-4.478,10-10c0-12.759,0.082-322.778,0.082-322.778c0-0.001,0-0.001,0-0.002c0.111-2.074,1.855-3.681,3.931-3.622
			s3.724,1.761,3.72,3.838l-0.384,179.693c46.296-4.281,42.951-4.011,43.951-3.984v-38.841c0-2.699,2.188-4.886,4.886-4.886
			c2.641,0,4.781,2.148,4.771,4.789c-0.108,28.442-0.168,173.819-0.168,173.819c0,12.137,9.839,21.976,21.976,21.976
			s21.976-9.839,21.976-21.976l0.008-199.494l-29.261,9.993c-20.063,6.849-41.811-3.888-48.636-23.876
			c-6.827-19.992,3.883-41.812,23.875-48.639c4.714-1.61,53.914-18.412,61.428-20.978l0.083,16.681l13.327,38.576l0,0l10.991-3.754
			c0.004-0.001,0.008-0.003,0.012-0.005C319.83,208.195,325.131,201.561,325.131,192.791z"/>
	</g>
</g>
<g>
</g>
<g>
</g>
<g>
</g>
<g>
</g>
<g>
</g>
<g>
</g>
<g>
</g>
<g>
</g>
<g>
</g>
<g>
</g>
<g>
</g>
<g>
</g>
<g>
</g>
<g>
</g>
<g>
</g>
</svg>
