<svg xmlns="http://www.w3.org/2000/svg" viewBox="0 0 50 50">
    <defs>
        <style>
            .cls-2 {
            fill: #000;
            }
        </style>
    </defs>
    <path class="cls-2" d="M25,45.92c-3.05,0-6.1-1.15-8.48-3.45-.01-.01-.03-.03-.04-.04-3.52-3.42-4.65-8.58-2.89-13.16L22.66,5.68c.37-.97,1.3-1.6,2.33-1.6s1.97.64,2.34,1.6l9.08,23.59c1.76,4.58.63,9.74-2.89,13.16h0c-2.39,2.32-5.46,3.49-8.53,3.49ZM19.93,38.82s.02.02.04.03c2.83,2.75,7.25,2.74,10.08,0,0,0,0,0,0,0,2.08-2.02,2.75-5.07,1.71-7.78l-6.75-17.54-6.75,17.54c-1.04,2.69-.38,5.73,1.68,7.75Z"/>
</svg>