<svg enable-background="new 0 0 464.092 464.092" version="1.1" viewBox="0 0 464.09 464.09" xml:space="preserve" xmlns="http://www.w3.org/2000/svg"><g><g id="XMLID_29_"><polygon id="XMLID_87_" points="183.53 347.81 183.53 360.99 219.42 353.6"/><polygon id="XMLID_861_" points="227.48 334.64 227.48 327.24 198.3 329.94"/><path id="XMLID_862_" d="m183.53 381.1v4.062c0 12.137 9.839 21.976 21.976 21.976s21.976-9.839 21.976-21.976v-12.798c-45.66 9.394-42.202 8.805-43.952 8.736z"/><circle id="XMLID_875_" cx="232.23" cy="37.954" r="37.954"/><path id="XMLID_876_" d="m221.96 222.27c4.025 11.788 17.4 14.336 23.249 11.412l-11.837-34.661c-9.438 3.223-14.719 13.564-11.412 23.249z"/><path id="XMLID_877_" d="m325.13 192.79-0.167-33.242-0.143-28.422c-0.119-23.777-19.561-43.121-43.338-43.121h-98.508c-23.776 0-43.218 19.344-43.337 43.121l-0.676 134.54c-0.049 9.775 7.576 17.777 17.219 18.349v170.07c0 5.522 4.478 10 10 10s10-4.478 10-10c0-12.759 0.082-322.78 0.082-322.78v-2e-3c0.111-2.074 1.855-3.681 3.931-3.622s3.724 1.761 3.72 3.838l-0.384 179.69c46.296-4.281 42.951-4.011 43.951-3.984v-38.841c0-2.699 2.188-4.886 4.886-4.886 2.641 0 4.781 2.148 4.771 4.789-0.108 28.442-0.168 173.82-0.168 173.82 0 12.137 9.839 21.976 21.976 21.976s21.976-9.839 21.976-21.976l8e-3 -199.49-29.261 9.993c-20.063 6.849-41.811-3.888-48.636-23.876-6.827-19.992 3.883-41.812 23.875-48.639 4.714-1.61 53.914-18.412 61.428-20.978l0.083 16.681 13.327 38.576 10.991-3.754c4e-3 -1e-3 8e-3 -3e-3 0.012-5e-3 7.081-2.425 12.382-9.059 12.382-17.829z"/></g></g></svg>
