<svg enable-background="new 0 0 512 512" version="1.1" viewBox="0 0 512 512" xml:space="preserve" xmlns="http://www.w3.org/2000/svg">

	
		
			<path d="m230.79 354.31-6.729 60.51c-0.333 3.01 0.635 6.031 2.656 8.292 2.021 2.26 4.917 3.552 7.948 3.552h42.667c3.031 0 5.927-1.292 7.948-3.552s2.99-5.281 2.656-8.292l-6.729-60.51c10.927-7.948 17.458-20.521 17.458-34.313 0-23.531-19.135-42.667-42.667-42.667s-42.667 19.136-42.667 42.667c0 13.792 6.532 26.365 17.459 34.313zm25.208-55.646c11.76 0 21.333 9.573 21.333 21.333 0 8.177-4.646 15.5-12.125 19.125-4.073 1.979-6.458 6.292-5.958 10.781l6.167 55.427h-18.833l6.167-55.427c0.5-4.49-1.885-8.802-5.958-10.781-7.479-3.625-12.125-10.948-12.125-19.125-1e-3 -11.76 9.572-21.333 21.332-21.333z"/>
			<path d="m437.33 192h-32v-42.667c0-82.343-66.989-149.33-149.33-149.33s-149.33 66.99-149.33 149.33v42.667h-32c-5.896 0-10.667 4.771-10.667 10.667v266.67c0 23.531 19.135 42.666 42.667 42.666h298.67c23.531 0 42.666-19.135 42.666-42.667v-266.67c0-5.896-4.771-10.667-10.667-10.667zm-309.33-42.667c0-70.583 57.417-128 128-128s128 57.417 128 128v42.667h-21.333v-42.667c0-58.813-47.854-106.67-106.67-106.67s-106.67 47.855-106.67 106.67v42.667h-21.333v-42.667zm213.33 0v42.667h-170.67v-42.667c0-47.052 38.281-85.333 85.333-85.333s85.333 38.281 85.333 85.333zm85.334 320c0 11.76-9.573 21.333-21.333 21.333h-298.67c-11.76 0-21.333-9.573-21.333-21.333v-256h341.33v256z"/>
		
	
















</svg>
