<?xml version="1.0" encoding="utf-8"?>
<!-- Generator: Adobe Illustrator 28.3.0, SVG Export Plug-In . SVG Version: 6.00 Build 0)  -->
<svg version="1.1" id="ELEMENTEN" xmlns="http://www.w3.org/2000/svg" xmlns:xlink="http://www.w3.org/1999/xlink" x="0px" y="0px"
	 viewBox="0 0 1002.9 206.7" style="enable-background:new 0 0 1002.9 206.7;" xml:space="preserve">
<style type="text/css">
	.st0{fill:#FAF5F5;}
</style>
<path class="st0" d="M13.6,53.3H39l0.6,16.6H40c6.6-12.4,16-18.8,27-18.8c3.8,0,7,0.8,9.8,1.8v23.6c-2.2-0.6-6.2-1.2-10.2-1.2
	c-17,0-26,11.2-26,23.8v61.6h-27V53.3z"/>
<path class="st0" d="M70.8,107.2c0-32,19.6-56,55.2-56s55.2,24,55.2,56s-19.6,55.8-55.2,55.8S70.8,138.9,70.8,107.2z M98.2,107.2
	c0,19.8,9.2,35,27.8,35s27.8-15.2,27.8-35s-9.2-35.2-27.8-35.2S98.2,87.1,98.2,107.2z"/>
<path class="st0" d="M247.4,160.8l-0.6-15.2h-0.4c-6.2,10.8-16.8,17.4-31.4,17.4c-20.6,0-34.2-13.6-34.2-32.6
	c0-13.2,6.4-23.2,20.4-28c11-3.8,27.8-4.8,44.8-5.4v-8c0-9.8-6.8-17-19.4-17c-11.6,0-18.4,5.8-21.6,14.2L184.2,76
	c7.2-16.4,21.8-24.8,43.6-24.8c29,0,45,14.2,45,37.8v71.8H247.4L247.4,160.8z M246,119.9v-5.8c-6.4,0.4-15.4,1-22.6,2
	c-8.6,1.2-15.8,4.2-15.8,13c0,7.8,5.8,13.6,16,13.6C237.2,142.8,246,132.6,246,119.9L246,119.9z"/>
<path class="st0" d="M277.4,107.9c0-32,18.2-56.8,47-56.8c13.6,0,25,5.8,33,16.2h0.4V7.2h27v153.6h-25.4l-0.6-16.2h-0.4
	c-8.2,11.8-20.8,18.4-35,18.4C294.6,162.9,277.4,138.6,277.4,107.9z M358.5,106.9c0-20.8-9.6-34.6-27-34.6s-26.8,16-26.8,35
	c0,18,8.4,34.4,26.4,34.4S358.5,126.9,358.5,106.9z"/>
<path class="st0" d="M389.8,107.9c0-32,18.2-56.8,47-56.8c13.6,0,25,5.8,33,16.2h0.4V7.2h27v153.6h-25.4l-0.6-16.2h-0.4
	c-8.2,11.8-20.8,18.4-35,18.4C407,162.9,389.8,138.6,389.8,107.9z M471,106.9c0-20.8-9.6-34.6-27-34.6s-26.8,16-26.8,35
	c0,18,8.4,34.4,26.4,34.4S471,126.9,471,106.9z"/>
<path class="st0" d="M570.5,160.8l-0.6-15.2h-0.4c-6.2,10.8-16.8,17.4-31.4,17.4c-20.6,0-34.2-13.6-34.2-32.6
	c0-13.2,6.4-23.2,20.4-28c11-3.8,27.8-4.8,44.8-5.4v-8c0-9.8-6.8-17-19.4-17c-11.6,0-18.4,5.8-21.6,14.2L507.3,76
	c7.2-16.4,21.8-24.8,43.6-24.8c29,0,45,14.2,45,37.8v71.8H570.5L570.5,160.8z M569.2,119.9v-5.8c-6.4,0.4-15.4,1-22.6,2
	c-8.6,1.2-15.8,4.2-15.8,13c0,7.8,5.8,13.6,16,13.6C560.4,142.8,569.2,132.6,569.2,119.9L569.2,119.9z"/>
<path class="st0" d="M607.5,53.3H633l0.6,15.2h0.4c6.6-10.8,18.2-17.4,32.8-17.4c22.6,0,37.2,14.8,37.2,37v72.6h-27V92.2
	c0-11-6.6-19.8-19.2-19.8c-14.4,0-23.2,10.2-23.2,23.8v64.6h-27V53.3z"/>
<path class="st0" d="M813.2,147.6c0,35.2-23.4,52-58.4,52c-17.6,0-31-4.4-40.6-9.8l8.8-19.6c8,4.8,17.8,9.2,31.2,9.2
	c18.2,0,32.2-8.4,32.2-31v-7.4H786c-7.6,10.8-19.2,17-33.6,17c-27.2,0-44.6-22.6-44.6-52.4s17.6-54.4,46.2-54.4
	c14.8,0,26,6.8,33.8,17.6h0.4l0.8-15.4h24.2L813.2,147.6L813.2,147.6z M787.2,104.6c0-18.6-9.4-32.6-26-32.6s-26,14.8-26,33
	s8.2,32.6,26,32.6C778,137.6,787.2,123.2,787.2,104.6z"/>
<path class="st0" d="M917.3,144.6c-9.6,11.4-23.4,18.4-43.6,18.4c-36.4,0-55.6-22.4-55.6-55.8s19-56,52.8-56s50.2,23,50.2,52.6
	c0,4-0.2,9-0.8,12h-74.6c2,16.4,10.8,26.6,28.6,26.6c10.4,0,19.2-4.2,25.8-13L917.3,144.6L917.3,144.6z M894.3,97.6
	c-1.2-15.2-7.8-25.8-23.6-25.8s-23.4,10.4-25,25.8H894.3z"/>
<path class="st0" d="M926.2,53.3h25.4l0.6,16.6h0.4c6.6-12.4,16-18.8,27-18.8c3.8,0,7,0.8,9.8,1.8v23.6c-2.2-0.6-6.2-1.2-10.2-1.2
	c-17,0-26,11.2-26,23.8v61.6h-27V53.3z"/>
</svg>
