<?xml version="1.0" encoding="UTF-8" standalone="no"?>
<svg
   xmlns:dc="http://purl.org/dc/elements/1.1/"
   xmlns:cc="http://creativecommons.org/ns#"
   xmlns:rdf="http://www.w3.org/1999/02/22-rdf-syntax-ns#"
   xmlns:svg="http://www.w3.org/2000/svg"
   xmlns="http://www.w3.org/2000/svg"
   xmlns:sodipodi="http://sodipodi.sourceforge.net/DTD/sodipodi-0.dtd"
   xmlns:inkscape="http://www.inkscape.org/namespaces/inkscape"
   height="480pt"
   viewBox="0 -31 480 479"
   width="480pt"
   version="1.1"
   id="svg16"
   sodipodi:docname="taxi.svg"
   inkscape:version="0.92.2 (5c3e80d, 2017-08-06)">
  <metadata
     id="metadata22">
    <rdf:RDF>
      <cc:Work
         rdf:about="">
        <dc:format>image/svg+xml</dc:format>
        <dc:type
           rdf:resource="http://purl.org/dc/dcmitype/StillImage" />
      </cc:Work>
    </rdf:RDF>
  </metadata>
  <defs
     id="defs20" />
  <sodipodi:namedview
     pagecolor="#ffffff"
     bordercolor="#666666"
     borderopacity="1"
     objecttolerance="10"
     gridtolerance="10"
     guidetolerance="10"
     inkscape:pageopacity="0"
     inkscape:pageshadow="2"
     inkscape:window-width="1366"
     inkscape:window-height="1274"
     id="namedview18"
     showgrid="false"
     inkscape:zoom="0.36875"
     inkscape:cx="320"
     inkscape:cy="320"
     inkscape:window-x="3510"
     inkscape:window-y="494"
     inkscape:window-maximized="0"
     inkscape:current-layer="svg16" />
  <g
     id="g4525"
     transform="matrix(0.88135593,0,0,0.88135593,28.474577,24.737289)">
    <path
       id="path2"
       d="M 448,208.5 H 422.23047 L 376,102.82813 V 8.5 c 0,-4.417969 -3.58203,-8 -8,-8 H 112 c -4.41797,0 -8,3.582031 -8,8 v 94.32813 L 57.769531,208.5 H 32 c -17.671875,0 -32,14.32812 -32,32 0,17.67187 14.328125,32 32,32 h 16 v 72 c 0.04297,10.13281 6.445312,19.14844 16,22.52734 V 408.5 c 0,4.41797 3.582031,8 8,8 h 64 c 4.41797,0 8,-3.58203 8,-8 v -40 h 192 v 40 c 0,4.41797 3.58203,8 8,8 h 64 c 4.41797,0 8,-3.58203 8,-8 v -41.47266 c 9.55469,-3.3789 15.95703,-12.39453 16,-22.52734 v -72 h 16 c 17.67187,0 32,-14.32813 32,-32 0,-17.67188 -14.32813,-32 -32,-32 z M 48.671875,229.30078 c 0,0 -0.04687,0.19141 -0.07813,0.26172 C 48.300781,230.51953 48.101562,231.50391 48,232.5 v 24 H 32 c -8.835938,0 -16,-7.16406 -16,-16 0,-8.83594 7.164062,-16 16,-16 H 50.769531 Z M 120,16.5 h 240 v 80 H 120 Z m -2.76953,96 h 245.53906 l 49,112 H 68.230469 Z M 64,272.5 h 64 v 32 H 64 Z m 64,128 H 80 v -32 h 48 z m 272,0 h -48 v -32 h 48 z m 16,-56 c 0,4.41797 -3.58203,8 -8,8 H 72 c -4.417969,0 -8,-3.58203 -8,-8 v -24 h 352 z m -272,-40 v -16 h 192 v 16 z m 272,0 h -64 v -32 h 64 z m 0,-48 h -72 c -4.41797,0 -8,3.58203 -8,8 v 8 H 144 v -8 c 0,-4.41797 -3.58203,-8 -8,-8 H 64 v -16 h 352 z m 32,0 h -16 v -24 c -0.10156,-1 -0.30078,-1.98438 -0.59375,-2.94531 0,-0.0703 -0.0703,-0.2461 -0.0781,-0.26172 l -2.09765,-4.80078 H 448 c 8.83594,0 16,7.16406 16,16 0,8.83593 -7.16406,16 -16,16 z m 0,0"
       inkscape:connector-curvature="0" />
    <path
       id="path4"
       d="m 176,24.5 h -32 c -4.41797,0 -8,3.582031 -8,8 0,4.417969 3.58203,8 8,8 h 8 v 40 c 0,4.417969 3.58203,8 8,8 4.41797,0 8,-3.582031 8,-8 v -40 h 8 c 4.41797,0 8,-3.582031 8,-8 0,-4.417969 -3.58203,-8 -8,-8 z m 0,0"
       inkscape:connector-curvature="0" />
    <path
       id="path6"
       d="m 240,24.5 h -32 c -4.41797,0 -8,3.582031 -8,8 v 56 h 16 v -16 h 16 v 16 h 16 v -56 c 0,-4.417969 -3.58203,-8 -8,-8 z m -8,32 h -16 v -16 h 16 z m 0,0"
       inkscape:connector-curvature="0" />
    <path
       id="path8"
       d="m 308.44141,25.84375 c -3.67579,-2.453125 -8.64454,-1.460938 -11.09766,2.214844 L 288,42.101562 278.65625,28.058594 c -2.45313,-3.675782 -7.42188,-4.667969 -11.09766,-2.214844 -3.67578,2.453125 -4.66797,7.421875 -2.21484,11.097656 L 278.39844,56.5 265.35937,76.058594 c -2.45312,3.675781 -1.46093,8.644531 2.21485,11.097656 3.67969,2.453125 8.64453,1.460938 11.09765,-2.214844 L 288,70.898438 l 9.34375,14.015624 c 2.45312,3.679688 7.42187,4.671876 11.09766,2.21875 3.67578,-2.453124 4.66797,-7.421874 2.21484,-11.097656 L 297.60156,56.5 310.64063,36.941406 c 2.45703,-3.671875 1.46875,-8.640625 -2.19922,-11.097656 z m 0,0"
       inkscape:connector-curvature="0" />
    <path
       id="path10"
       d="m 336,24.5 c -4.41797,0 -8,3.582031 -8,8 v 48 c 0,4.417969 3.58203,8 8,8 4.41797,0 8,-3.582031 8,-8 v -48 c 0,-4.417969 -3.58203,-8 -8,-8 z m 0,0"
       inkscape:connector-curvature="0" />
    <path
       id="path12"
       d="m 375.19922,180.92578 -24,-48 C 349.83984,130.19922 347.04687,128.48437 344,128.5 h -96 c -4.41797,0 -8,3.58203 -8,8 0,4.41797 3.58203,8 8,8 h 91.05469 l 21.78515,43.57422 c 1.97657,3.95703 6.78125,5.5625 10.73438,3.58594 3.95703,-1.97657 5.5625,-6.78125 3.58594,-10.73438 z m 0,0"
       inkscape:connector-curvature="0" />
    <path
       id="path14"
       d="m 216,128.5 h -8 c -4.41797,0 -8,3.58203 -8,8 0,4.41797 3.58203,8 8,8 h 8 c 4.41797,0 8,-3.58203 8,-8 0,-4.41797 -3.58203,-8 -8,-8 z m 0,0"
       inkscape:connector-curvature="0" />
  </g>
</svg>
