<svg height="480pt" viewBox="0 -88 480 480" width="480pt" xmlns="http://www.w3.org/2000/svg"><path d="m472 288h-464c-4.417969 0-8 3.582031-8 8s3.582031 8 8 8h464c4.417969 0 8-3.582031 8-8s-3.582031-8-8-8zm0 0"/><path d="m112 256h16c0 17.671875 14.328125 32 32 32s32-14.328125 32-32h80c0 17.671875 14.328125 32 32 32s32-14.328125 32-32h16c0 17.671875 14.328125 32 32 32s32-14.328125 32-32c0-.734375-.152344-1.425781-.199219-2.144531 41.078125-7.597657 64.199219-35.824219 64.199219-80.167969 0-92.519531-123.367188-173.6875-264-173.6875h-208c-4.417969 0-8 3.582031-8 8v240c0 4.417969 3.582031 8 8 8h40c0 17.671875 14.328125 32 32 32s32-14.328125 32-32zm-32-136h-64v-56h64zm-64 16h64v72h-64zm86.816406 104h-6.816406v-176h80v176zm129.183594-176c6.738281-.003906 12.988281 3.523438 16.464844 9.296875l25.933594 46.703125h-82.398438v-56zm-72 208c-8.835938 0-16-7.164062-16-16h32c0 8.835938-7.164062 16-16 16zm144 0c-8.835938 0-16-7.164062-16-16h32c0 8.835938-7.164062 16-16 16zm22.816406-32h-134.816406v-16h252.59375c-15.085938 11.390625-33.722656 17.058594-52.59375 16zm73.183594 16c0 8.835938-7.164062 16-16 16s-16-7.164062-16-16h24c2.726562 0 5.359375-.128906 8-.273438zm47.296875-136h-62.617187c-22.296876-.015625-42.824219-12.144531-53.601563-31.664062l-12.117187-20.222657c-.507813-1.089843-.445313-2.359375.167968-3.394531.191406-.328125.496094-.71875.800782-.71875h68.796874c23.386719 14.15625 43.378907 33.273438 58.570313 56zm-231.296875-104c49.722656-.0625 98.847656 10.863281 143.855469 32h-39.855469c-6.066406.042969-11.648438 3.324219-14.632812 8.609375-3.535157 5.996094-3.625 13.421875-.230469 19.503906l12.109375 20.214844c13.617187 24.480469 39.421875 39.664063 67.433594 39.671875h71.144531c5.296875 11.863281 8.078125 24.695312 8.175781 37.6875.339844 11.898438-2.128906 23.710938-7.199219 34.480469-.265625-.070313-.53125-.128907-.800781-.167969h-264v-72h96c2.835938 0 5.457031-1.5 6.894531-3.945312 1.4375-2.441407 1.476563-5.464844.097657-7.941407l-32.542969-58.59375c-6.292969-10.855469-17.898438-17.535156-30.449219-17.519531h-216v-32zm-200 224v-16h64v16zm64 32c-8.835938 0-16-7.164062-16-16h32c0 8.835938-7.164062 16-16 16zm0 0"/></svg>