<?xml version="1.0" encoding="iso-8859-1"?>
<!-- Generator: Adobe Illustrator 17.1.0, SVG Export Plug-In . SVG Version: 6.00 Build 0)  -->
<!DOCTYPE svg PUBLIC "-//W3C//DTD SVG 1.1//EN" "http://www.w3.org/Graphics/SVG/1.1/DTD/svg11.dtd">
<svg version="1.1" id="Capa_1" xmlns="http://www.w3.org/2000/svg" xmlns:xlink="http://www.w3.org/1999/xlink" x="0px" y="0px"
	 viewBox="0 0 448.033 448.033" style="enable-background:new 0 0 448.033 448.033;" xml:space="preserve">
<g>
	<path d="M416.033,159.767H312.004c-0.262-13.009-10.918-23.512-23.988-23.512h-30.61l41.46-21.077
		c2.684-1.364,4.375-4.12,4.375-7.131c0-3.011-1.69-5.767-4.375-7.132l-71.225-36.208c-2.278-1.158-4.973-1.158-7.251,0
		l-71.224,36.208c-2.684,1.365-4.375,4.121-4.375,7.132c0,3.011,1.69,5.767,4.375,7.131l41.46,21.077h-30.61
		c-13.07,0-23.726,10.503-23.988,23.512H32.033c-17.645,0-32,14.355-32,32v125.962l-0.031,1.295C0,319.087,0,319.149,0,319.212
		c0,19.553,13.887,35.921,32.315,39.768c3.262,14.415,16.166,25.214,31.553,25.214c9.704,0,18.417-4.302,24.352-11.091
		c5.936,6.79,14.651,11.091,24.357,11.091c15.078,0,27.778-10.371,31.348-24.356H312.73c3.571,13.984,16.273,24.356,31.354,24.356
		c9.704,0,18.417-4.302,24.352-11.091c5.936,6.79,14.651,11.091,24.357,11.091c15.078,0,27.778-10.371,31.348-24.356h15.892
		c4.418,0,8-3.582,8-8V191.767C448.033,174.123,433.678,159.767,416.033,159.767z M224.016,80.813l53.571,27.234l-53.571,27.233
		l-53.571-27.233L224.016,80.813z M432.033,271.723h-14.371c-0.527-0.109-1.073-0.167-1.633-0.167c-4.5,0-8.162-3.661-8.162-8.162
		v-55.556h24.165V271.723z M160.016,152.255h128c4.246,0,7.721,3.329,7.975,7.512H152.041
		C152.295,155.584,155.77,152.255,160.016,152.255z M16.033,207.838h24.165v55.556c0,4.5-3.662,8.162-8.162,8.162
		c-0.56,0-1.105,0.057-1.633,0.167h-14.37V207.838z M63.868,368.194c-6.113,0-11.445-3.376-14.252-8.356h28.498
		C75.307,364.818,69.978,368.194,63.868,368.194z M112.576,368.194c-6.113,0-11.445-3.376-14.252-8.356h28.498
		C124.015,364.818,118.686,368.194,112.576,368.194z M344.084,368.194c-6.113,0-11.445-3.376-14.252-8.356h28.498
		C355.524,364.818,350.194,368.194,344.084,368.194z M392.792,368.194c-6.113,0-11.445-3.376-14.252-8.356h28.498
		C404.232,364.818,398.902,368.194,392.792,368.194z M417.172,343.838c-0.01,0-0.019-0.001-0.029-0.001s-0.019,0.001-0.029,0.001
		h-48.651c-0.01,0-0.019-0.001-0.029-0.001s-0.019,0.001-0.029,0.001h-48.65c-0.01,0-0.019-0.001-0.029-0.001
		s-0.019,0.001-0.029,0.001H136.955c-0.01,0-0.019-0.001-0.029-0.001s-0.019,0.001-0.029,0.001h-48.65
		c-0.01,0-0.019-0.001-0.029-0.001s-0.019,0.001-0.029,0.001H40.626c-13.55,0-24.579-11-24.626-24.539l0.03-1.288
		c0.001-0.063,0.002-0.126,0.002-0.188v-5.651h7.907c4.418,0,8-3.582,8-8s-3.582-8-8-8h-7.907v-8.448h16.003
		c0.684,0,1.348-0.086,1.981-0.247c12.4-1.011,22.181-11.426,22.181-24.082v-63.556c0-4.418-3.582-8-8-8H16.033v-0.071
		c0-8.823,7.178-16,16-16h384c8.822,0,16,7.177,16,16v0.071h-32.165c-4.418,0-8,3.582-8,8v63.556
		c0,12.656,9.781,23.071,22.181,24.082c0.634,0.161,1.297,0.247,1.981,0.247h16.003v8.448h-7.908c-4.418,0-8,3.582-8,8s3.582,8,8,8
		h7.908v31.667H417.172z"/>
	<path d="M368.208,191.838c-0.093,0-0.186,0.002-0.278,0.005c-0.093-0.003-0.186-0.005-0.279-0.005H80.13c-4.418,0-8,3.582-8,8
		v63.556c0,12.656,9.781,23.071,22.181,24.081c0.634,0.162,1.297,0.247,1.981,0.247h255.754c0.684,0,1.348-0.086,1.981-0.247
		c12.4-1.011,22.181-11.425,22.181-24.081v-63.556C376.208,195.42,372.627,191.838,368.208,191.838z M360.208,263.395
		c0,4.5-3.662,8.162-8.162,8.162c-0.56,0-1.106,0.057-1.633,0.167H97.925c-0.527-0.109-1.073-0.167-1.633-0.167
		c-4.5,0-8.162-3.661-8.162-8.162v-55.556h272.079V263.395z"/>
</g>
<g>
</g>
<g>
</g>
<g>
</g>
<g>
</g>
<g>
</g>
<g>
</g>
<g>
</g>
<g>
</g>
<g>
</g>
<g>
</g>
<g>
</g>
<g>
</g>
<g>
</g>
<g>
</g>
<g>
</g>
</svg>
