<svg enable-background="new 0 0 571.052 571.053" version="1.1" viewBox="0 0 571.05 571.05" xml:space="preserve" xmlns="http://www.w3.org/2000/svg"><path d="m438.4 281.07c-0.67-10.982-10.291-16.23-15.086-25.107 8.207-4.085 14.003-4.024 23.128-4.024 0-3.959-14.321-3.896-17.084-3.017 0 2.182-10.05 2.604-10.05 5.015-6.661 2.182-20.104-4.363-20.104-11.046-2.788 0-2.396-12.069-6.044-12.069 0-6.805-6.025-11.906-8.023-18.082-1.661-0.848-14.082-16.894-14.082-19.104 2.182 0.992 2.834 1.75 6.025 2.014 0-0.884-11.398-12.05-10.043-12.05 0-2.956-3.018-6.111-3.018-9.048-12.555-6.279-1.783-13.709 0-22.124 10.579 2.164 15.312 26.145 19.089 26.145-0.03-2.897-0.942-16.092-5.01-16.092-0.93-3.635-6.267-13.072-11.059-13.072 0-7.886 20.099-9 20.099-13.057 1.737 0 3.375-0.266 4.976-0.624-1.23 3.953-1.935 7.301-0.353 10.034 0.156 0.269 0.456 0.288 0.612 0.021 0.135-0.226 0.238-0.465 0.324-0.725 0.098-0.293 0.26-0.315 0.397-0.037 0.731 1.49 2.424 4.872 4.386 6.377 0.244 0.19 0.495 0.067 0.538-0.239 0.027-0.196 0.052-0.422 0.07-0.713 0.019-0.309 0.172-0.361 0.37-0.123 1.328 1.573 3.593 3.421 5.003 4.055 0.282 0.128 0.594-0.055 0.628-0.364 0.012-0.107 0.021-0.223 0.027-0.343 0.013-0.309 0.184-0.395 0.438-0.217 1.387 0.985 4.636 2.717 6.117 3.105 0.3 0.08 0.686-0.141 0.771-0.438 0.417-1.472 0.582-5.15 0.435-6.845-0.027-0.309 0.135-0.413 0.407-0.269 0.107 0.058 0.211 0.107 0.31 0.153 0.281 0.128 0.597-0.046 0.63-0.355 0.172-1.539-0.27-4.428-0.948-6.371-0.102-0.293 0.019-0.397 0.294-0.257 0.257 0.132 0.465 0.224 0.648 0.3 0.287 0.12 0.52-0.034 0.48-0.339-0.3-2.458-2.351-5.634-3.262-7.02-0.172-0.26-0.067-0.392 0.235-0.324 0.275 0.062 0.529 0.092 0.789 0.092 0.31 0 0.447-0.266 0.294-0.539-0.927-1.643-2.484-2.665-4.428-3.439 1.582-0.336 3.207-0.587 4.941-0.587 0-1.224 17.299-3.021 20.107-3.021 2.286 1.289 4.018 8.247 4.018 10.062 3.063 0 1.356 11.041 4.006 11.041 1.041 3.268-0.416 7.243 2.02 10.055-1.466 2.509-3.412 4.039-4.018 7.041 3.243-0.386 2.932-0.912 5.037-2.007 1.539 3.687 1.062 7.497 4.676 9.664-0.358-3.219-8.048-47.143-9.71-46.858 5.126-0.884 6.857-2.007 12.044-2.007 1.864 5.432 6.298 6.87 8.051 12.062 0.579 1.72 7.054 15.086 7.041 15.086-0.149 4.743-1.303 6.337-2.007 10.037 2.956-0.79 2.91-2.258 5.016-4.024 1.392 2.54 2.766 6.031 5.039 6.031-1.126-6.539-5.691-10.578-6.545-16.582-0.248-1.76-2.5-8.553-3.51-8.553-2.308-9.006-5.563-13.847-8.045-21.102 3.36-2.922 7.855-10.395 9.039-14.061 2.586 0 4.064-4.07 6.044-6.031 11.469 0 11.787 25.12 17.065 25.12-0.235-12.448-5.505-19.768-11.034-28.137 12.454-5.6 8.391 4.272 18.075 7.041-0.997-5.34-4.271-10.382-9.039-13.072 0.842-3.562 2.873-6.27 3.014-10.055-3.626 0.976-3.855 3.85-6.024 6.031 0-5.413-10.251-0.884-14.076-2.007 0-3.36-21.42-3.048-25.529-2.99-3.578 0.067-7.146 0.245-10.689 0.582 3.366-4.345 5.906-8.103 5.193-12.136-0.067-0.374-0.401-0.518-0.691-0.279-0.248 0.205-0.466 0.435-0.674 0.695-0.235 0.297-0.431 0.251-0.471-0.123-0.215-2.01-0.747-6.588-2.365-9.128-0.202-0.318-0.539-0.285-0.717 0.052-0.113 0.214-0.235 0.462-0.379 0.786-0.15 0.346-0.346 0.34-0.478-0.012-0.866-2.353-2.687-5.41-4.039-6.726-0.272-0.263-0.701-0.184-0.869 0.156-0.058 0.119-0.116 0.245-0.171 0.383-0.145 0.349-0.377 0.376-0.591 0.064-1.175-1.705-4.177-5.04-5.71-6.102-0.31-0.214-0.845-0.125-1.065 0.181-1.089 1.511-2.809 5.655-3.348 7.656-0.098 0.364-0.327 0.419-0.578 0.138-0.098-0.11-0.195-0.211-0.29-0.303-0.272-0.263-0.704-0.196-0.869 0.144-0.836 1.689-1.533 5.18-1.567 7.687-6e-3 0.376-0.187 0.447-0.443 0.171-0.242-0.257-0.44-0.45-0.615-0.612-0.278-0.257-0.605-0.18-0.691 0.19-0.68 2.938 0.346 7.427 0.811 9.394 0.089 0.367-0.085 0.478-0.403 0.275-0.291-0.184-0.569-0.324-0.866-0.435-0.355-0.128-0.621 0.12-0.56 0.493 0.667 4.011 4.308 6.643 8.873 9.611-1.499 0.361-2.989 0.747-4.474 1.196-4.93 0-15.884 0.71-18.1 5.028-6.417 2.148-12.203 10.055-18.078 10.055-2.365 2.971-10.643 15.064-12.075 15.064 0 1.673-2.665 8.044-4.006 8.044-1.902 7.476-7.658 10.055-10.063 17.078-1.692 0-5.738 8.17-8.758 11.791 0.244-1.089 0.41-2.127 0.397-2.883-3e-3 -0.355-0.343-0.587-0.68-0.474-0.116 0.04-0.241 0.086-0.367 0.138-0.327 0.135-0.498 0-0.435-0.349 0.353-1.913 0.572-6.123 0.261-7.846-0.064-0.349-0.478-0.643-0.829-0.587-0.41 0.067-0.946 0.211-1.54 0.401 3.593-4.856 6.057-9.238 5.233-13.896-0.089-0.493-0.533-0.688-0.918-0.367-0.328 0.272-0.618 0.575-0.894 0.921-0.312 0.392-0.569 0.333-0.625-0.166-0.284-2.665-0.988-8.73-3.136-12.099-0.27-0.422-0.713-0.376-0.949 0.067-0.149 0.281-0.314 0.612-0.502 1.043-0.198 0.459-0.455 0.453-0.63-0.019-1.147-3.118-3.562-7.172-5.355-8.914-0.357-0.349-0.93-0.242-1.15 0.205-0.076 0.156-0.156 0.327-0.229 0.505-0.189 0.462-0.499 0.499-0.783 0.085-1.558-2.261-5.535-6.68-7.567-8.087-0.413-0.285-1.117-0.166-1.41 0.242-1.444 2.001-3.725 7.497-4.44 10.147-0.132 0.483-0.432 0.554-0.765 0.181-0.132-0.147-0.261-0.282-0.386-0.404-0.358-0.349-0.931-0.257-1.153 0.19-1.108 2.24-2.032 6.867-2.078 10.187-6e-3 0.502-0.248 0.594-0.591 0.227-0.318-0.343-0.581-0.597-0.817-0.811-0.367-0.339-0.805-0.238-0.918 0.251-0.899 3.893 0.456 9.844 1.077 12.451 0.116 0.486-0.113 0.63-0.535 0.364-0.386-0.245-0.753-0.432-1.147-0.575-0.472-0.171-0.823 0.159-0.743 0.655 1.01 6.074 7.15 9.761 14.4 14.456-1.188 1.465-2.179 3.038-2.745 3.957-0.187 0.303-0.373 0.26-0.45-0.086-0.07-0.315-0.162-0.594-0.287-0.863-0.15-0.321-0.493-0.333-0.701-0.043-1.872 2.616-1.683 5.992-0.945 9.973-2.647 4.819-4.529 10.318-6.863 15.278-2.023 4.296-4.11 8.565-6.228 12.815-2.39-7.347-4.617-13.333-9.801-15.63-0.459-0.202-0.866 0.055-0.817 0.554 0.043 0.425 0.132 0.835 0.267 1.255 0.149 0.477-0.043 0.661-0.483 0.425-2.369-1.251-7.794-4.058-11.788-4.159-0.502-0.012-0.71 0.382-0.475 0.823 0.153 0.281 0.33 0.603 0.584 0.998 0.27 0.422 0.12 0.63-0.367 0.514-3.228-0.79-7.938-1.053-10.385-0.542-0.49 0.104-0.722 0.637-0.471 1.071 0.085 0.153 0.184 0.309 0.291 0.471 0.279 0.416 0.135 0.691-0.367 0.698-2.745 0.027-8.632 0.86-10.937 1.756-0.468 0.181-0.762 0.835-0.59 1.304 0.854 2.316 4.137 7.276 5.937 9.351 0.327 0.379 0.217 0.667-0.279 0.738-0.193 0.027-0.379 0.058-0.551 0.095-0.49 0.104-0.734 0.627-0.486 1.062 1.239 2.173 4.559 5.523 7.289 7.415 0.413 0.285 0.355 0.539-0.141 0.615-0.462 0.073-0.82 0.15-1.129 0.223-0.487 0.113-0.646 0.536-0.306 0.903 2.724 2.922 8.418 5.123 10.927 6.065 0.468 0.177 0.459 0.447 0 0.648-0.419 0.184-0.777 0.383-1.117 0.63-0.406 0.294-0.327 0.774 0.129 0.979 4.862 2.221 10.405 0.217 16.971-2.564-2.179 4.085-4.385 8.158-6.649 12.194-3.274 5.838-6.417 11.964-10.031 17.58-0.968 1.502-7.736 8.617-7.451 9.994 0.618 2.962-14.41-8.543-15.652-9.721-5.918-5.618-13.244-10.282-20.269-14.93 3.907 0.214 7.157-0.083 9.437-2.151 0.257-0.232 0.202-0.566-0.138-0.67-0.288-0.092-0.579-0.146-0.891-0.18-0.352-0.037-0.419-0.208-0.144-0.426 1.466-1.153 4.777-3.812 5.937-6.312 0.147-0.312-0.055-0.557-0.407-0.529-0.227 0.018-0.483 0.043-0.811 0.095-0.349 0.052-0.444-0.101-0.232-0.373 1.398-1.827 2.858-4.737 3.194-6.429 0.067-0.34-0.217-0.633-0.569-0.597-0.123 0.012-0.254 0.03-0.389 0.055-0.349 0.061-0.487-0.107-0.355-0.426 0.734-1.747 1.802-5.707 1.848-7.414 9e-3 -0.346-0.336-0.713-0.688-0.734-1.744-0.101-5.872 0.603-7.717 1.169-0.336 0.104-0.496-0.046-0.404-0.379 0.037-0.132 0.064-0.257 0.088-0.376 0.067-0.34-0.208-0.64-0.56-0.603-1.753 0.184-4.844 1.356-6.827 2.564-0.3 0.181-0.447 0.077-0.361-0.26 0.08-0.312 0.125-0.56 0.162-0.777 0.058-0.339-0.171-0.557-0.505-0.443-2.65 0.915-5.643 3.914-6.943 5.242-0.242 0.248-0.416 0.168-0.422-0.178-6e-3 -0.315-0.037-0.6-0.104-0.881-0.08-0.34-0.413-0.422-0.673-0.19-3.112 2.763-3.005 7.519-2.968 13.271-9.263-6.61-18.522-13.219-27.785-19.832 4.183-0.633 7.576-1.601 9.479-4.327 0.205-0.291 0.08-0.612-0.275-0.643-0.3-0.027-0.597-0.021-0.909 0.016-0.352 0.04-0.453-0.12-0.229-0.395 1.193-1.478 3.88-4.872 4.492-7.635 0.077-0.346-0.171-0.547-0.508-0.44-0.217 0.067-0.462 0.15-0.774 0.272-0.331 0.131-0.456-3e-3 -0.306-0.325 0.989-2.139 1.809-5.379 1.784-7.151-6e-3 -0.355-0.343-0.587-0.679-0.475-0.12 0.04-0.242 0.086-0.367 0.138-0.328 0.138-0.499 0-0.435-0.349 0.352-1.913 0.572-6.123 0.26-7.846-0.064-0.349-0.477-0.643-0.829-0.587-1.726 0.278-5.624 1.891-7.31 2.861-0.309 0.177-0.496 0.061-0.475-0.294 6e-3 -0.138 9e-3 -0.272 9e-3 -0.395-3e-3 -0.355-0.336-0.597-0.673-0.483-1.68 0.566-4.458 2.42-6.147 4.063-0.254 0.248-0.422 0.174-0.41-0.181 0.012-0.33 6e-3 -0.59-3e-3 -0.817-0.015-0.355-0.285-0.523-0.584-0.333-2.402 1.5-4.703 5.162-5.701 6.778-0.187 0.303-0.374 0.26-0.45-0.085-0.071-0.315-0.163-0.594-0.288-0.863-0.15-0.321-0.493-0.334-0.701-0.043-1.928 2.693-1.667 6.187-0.881 10.324-3.467-2.476-6.934-4.951-10.404-7.423-18.097-12.917-37.344-28.452-36.212-52.556 0.278-8.896 0.566-17.788 0.841-26.702 0.214-6.775 4.78-7.457 6.188-13.507-1.842 0.526-5.034 1.796-5.034 4.024-3.014 1.916-7.763 1.05-11.065 1.004 0.352 1.132 1.01 1.921 1.01 3.02 2.782-1.343 4.22-0.435 7.041 0-1.304 11.463-2.61 22.941-3.914 34.407-0.646 5.661 1.478 9.973-5.242 9.712-3.602-0.125-7.237-0.386-10.786-1.114-6.019-1.224-10.355-2.8-15.242-2.8-4.663-1.518-11.221-3.36-16.08-2.014 0 1.778-17.084 1.16-17.084 6.038 11.606-0.468 28.626-7.476 38.198 2.007-7.469 3.464-19.109 13.923-19.109 21.102 5.015 0 6.031-9.033 9.054-9.033-0.339 2.996-0.664 6.013-1.003 9.033 7.075 0 2.39-12.05 7.041-12.05 1.166-2.304 8.039-4.905 8.039-7.041 6.956 0 13.409 3.017 20.104 3.017 4.168 5.043 7.209 10.83 12.05 14.079 0 2.442 4.605 7.283 6.481 9.731 2.788 3.635 2.558 3.574 2.558 8.351-5.765 1.206-14.015 9.052-18.079 9.052-3.718 5.569-17.09 11.958-17.09 19.088-4.612 3.7-7.509 10.741-12.069 13.072 0 4.951-9.143 14.511-3.014 19.095 1.888-6.038 2.666-14.544 8.048-18.1 0-1.674 1.649-5.015 4.027-5.015 0.324 5.015 0.664 10.061 0.992 15.07-2.372 0-3.583 4.162-4.012 6.031 2.8-0.293 4.07-3.011 6.025-3.011 0.86 3.418 1.154 12.062 5.021 12.062-0.024-4.716-0.587-13.424-4.012-17.078v-13.58c0-6.16 2.516-6.702 7.02-10.551 6.774-11.243 19.305-14.823 31.166-20.107 1.199 3.62 6.27 20.107 2.013 20.107 0 5.443-4.021 13.011-4.021 21.12 1.524 0 8.032-17.886 8.032-21.12 3.822 1.27 6.267 5.009 10.067 5.009 5.046 3.002 5.346 9.658 10.049 11.065-1.056-3.424-3.029-7.273-3.029-10.042-2.13 0-9.627-5.909-11.035-8.039-5.333 0-5.979-11.756-6.046-16.074 7.512 2.044 15.881 10.083 22.169 14.51 9.098 6.408 17.926 13.195 26.454 20.343 9.416 7.889 18.467 16.215 27.115 24.942 3.88 3.914 21.757 18.247 21.757 23.632 0 1.72 4.247 11.028 5.021 11.028-4.018 28.292-4.018 57.301-4.018 85.873 0 12.097-2.007 23.146-2.007 34.174 0 13.149-2.111 20.526-2.377 34.275-0.227 11.895-6.246 27.562-3.036 39.459 2.944 10.921-3.274 18.197-3.663 29.458-0.016 0.48-0.058 1.273-0.116 2.277-5.248 9.461-7.668 19.761-4.333 30.468-0.224 1.35-0.441 2.705-0.738 4.019-1.343 2.619-3.874 6.734-7.164 8.252-2.959 1.365-3.207 3.277-3.084 5.566-2.402 2.191-4.079 5.067-4.933 8.262-0.988 0.82-1.974 1.638-2.962 2.457-2.98 0.915-6.567 1.757-10.444 2.844-9.562 2.677-12.24 7.649-12.24 7.649 4.208-2.295 11.475-1.147 16.447 0.383s23.333 2.295 30.217 0.765c6.885-1.53 13.77-4.207 20.655-1.53 6.885 2.678 30.983-2.295 45.135-2.677 14.152-0.383 24.11 2.656 24.11 2.656-0.766-2.678-1.53-4.591-8.033-6.886-6.502-2.295-1.912-3.825-6.885-8.415-1.459-1.346-2.919-2.631-4.277-3.794-0.01-0.03 0-0.056-0.013-0.089-2.684-7.867-6.028-15.367-9.954-22.527-1.199-6.791-1.912-13.412-1.912-19.407-1.236 0-4.238-23.715-3.015-28.137 2.644 0-4.712-31.622-5.019-36.478-1.205-18.719-5.406-79.294-6.459-112.46-0.588-18.146-1.142-36.288-1.727-54.422 3.158-9.483 6.307-18.966 9.471-28.431 6.711-20.08 21.031-40.049 35.315-55.392-1.159 1.245 1.454 4.44 2.316 5.021 3.565-13.461 14.597-4.223 22.011 2.329 7.249 6.405 12.718 14.538 18.106 22.577 6.153 9.18 12.965 19.247 14.694 30.41 1.475 9.529-3.406 18.586-3.406 28.501-2.417 0-1.178 26.142-4.03 26.142 0.774 2.741 0.232 2.273 3.015 3.017 0-3.094 3.504-25.135 4.018-25.135 0-8.063 1.753-15.239 4.697-24.119 4.409-13.268 12.096 5.386 15.41 7.041 2.215 10.018 5.413 17.063 8.045 28.136-3.231 0 0.195 5.028-3.012 5.028 0.334 1.132 0.992 1.934 0.992 3.029 2.747 0 3.014-2.919 3.014-5.04 2.562 2.644 0.554 7.035 5.034 7.035-1.246-10.872-6.004-20.915-8.042-31.154-1.387-6.943-3.941-9.006-6.031-15.064 1.01 0.324 1.34 0 1.01-1.01 6.943 0.435 8.791 6.903 14.073 10.043 1.187 6.013 5.015 24.149 5.015 8.047 2 1e-3 1.152 3.199 4.032 4.006zm44.223-195.99c-2.157 3.635-12.056 9.418-12.056 2.013 3.758-0.634 9.488-2.013 12.056-2.013zm-82.721 52.129-2.732-2.983c0.707-0.257 1.411-0.517 2.114-0.783l0.988 3.562c0.034 0.308-0.128 0.4-0.37 0.204zm65.637-45.088h-2.007c-0.691 3.556-7.087 17.09-11.059 17.09 0-5.367-4.03-7.237-4.03-12.062-0.41 0-7.029-8.433-7.029-10.055 6.267-0.127 21.876-3.624 24.125 5.027zm-41.405-18.128c0.082-0.367 0.312-0.404 0.505-0.083l2.628 6.353c-1.229 0.174-2.454 0.373-3.678 0.593l0.545-6.863zm-0.82 22.152c5.126 1.016 7.322 2.754 9.204 7.735 1.219 3.262 2.553 11.353 5.882 11.353-0.221-5.725-1.753-11.444-5.062-16.184-1.569-2.255-9.021-6.989-9.021-8.941 4.847 0 9.397-3.543 13.066 2.014 3.647 1.206 5.027 4.051 6.049 8.039 2.118 1.426 6.689 12.068 7.014 12.068-2.359 9.392-27.466 9.033-35.162 9.033 0.774-4.657 3.008-10.578 3.008-14.061 1.941-3.756 4.636-6.653 5.022-11.056zm-4.006-3.018c-0.254 2.412-0.924 11.059-4.023 11.059 0 1.72-2.371 1.812-3.018 4.005h2.008c-0.324 4.364-0.67 8.728-1.016 13.072-4.41 0.08-8.785 0.606-13.104 1.472-7.775 1.548-15.278 4.162-23.075 5.569 3.251-16.092 23.297-34.993 42.228-35.177zm-227.22 92.525c-0.795-0.569-1.591-1.135-2.387-1.704l4-3.415c0.3-0.19 0.474-0.062 0.392 0.281l-2.005 4.838zm42.363 22.598-3.571 5.074c-0.331-0.233-0.67-0.459-0.995-0.692-0.679-0.486-1.358-0.97-2.041-1.457l6.279-3.277c0.336-0.116 0.481 0.04 0.328 0.352zm65.292-11.949-7.571-6.016c-0.343-0.364-0.214-0.643 0.285-0.618l9.682 1.968c-0.79 1.557-1.589 3.115-2.396 4.666zm25.067-23.773c0.651-1.444 1.236-2.788 1.796-4.088 0.899-0.107 1.778-0.214 2.626-0.324-1.668 2.157-3.244 4.412-4.422 4.412zm2.001-30.692 0.68-8.617c0.113-0.49 0.413-0.536 0.67-0.107l2.757 6.655c-1.953-0.547-3.235 0.497-4.107 2.069zm24.147 33.694c0.704-2.754 1.928-3.647 3.014-6.013 5.01 3.987 8.391 10.67 11.06 17.078-4.344-3.593-10.106-11.065-14.074-11.065z"/><path d="m197.83 223.2c0.245 0.123 0.486 0.218 0.743 0.285 0.3 0.08 0.499-0.146 0.419-0.447-1.114-4.162-6.022-6.129-11.609-9.03-0.275-0.144-0.526-3e-3 -0.56 0.306l0.373 8.442c-0.034 0.309-0.214 0.361-0.404 0.116l-4.101-7.24c-0.189-0.245-0.48-0.233-0.643 0.034-3.204 5.272-6.404 9.357-5.263 13.445 0.083 0.3 0.371 0.392 0.588 0.171 0.184-0.184 0.339-0.385 0.493-0.624 0.168-0.26 0.333-0.242 0.395 0.064 0.336 1.625 1.132 5.321 2.656 7.271 0.189 0.245 0.462 0.187 0.581-0.101 0.074-0.184 0.156-0.395 0.245-0.67 0.095-0.293 0.254-0.306 0.392-0.027 0.894 1.854 2.625 4.208 3.834 5.174 0.242 0.193 0.587 0.095 0.698-0.196 0.04-0.101 0.077-0.211 0.11-0.328 0.088-0.297 0.278-0.336 0.477-0.098 1.096 1.3 3.813 3.788 5.15 4.532 0.272 0.15 0.698 0.034 0.854-0.235 0.771-1.322 1.848-4.844 2.13-6.521 0.052-0.306 0.232-0.367 0.462-0.156 0.089 0.083 0.174 0.156 0.26 0.224 0.242 0.192 0.59 0.104 0.701-0.187 0.551-1.447 0.841-4.354 0.67-6.404-0.027-0.309 0.116-0.379 0.349-0.174 0.217 0.192 0.397 0.333 0.554 0.453 0.248 0.187 0.511 0.098 0.551-0.211 0.321-2.454-0.872-6.041-1.408-7.61-0.108-0.297 0.024-0.398 0.303-0.258z"/><path d="m180.31 244.4c0.245 0.123 0.487 0.217 0.744 0.285 0.3 0.08 0.499-0.147 0.419-0.447-1.114-4.162-6.022-6.129-11.61-9.03-0.275-0.144-0.526-3e-3 -0.56 0.306l0.373 8.443c-0.034 0.309-0.214 0.361-0.404 0.116l-4.101-7.24c-0.189-0.245-0.48-0.232-0.643 0.034-3.204 5.272-6.404 9.357-5.263 13.446 0.083 0.3 0.37 0.392 0.587 0.171 0.184-0.184 0.34-0.386 0.493-0.625 0.168-0.26 0.333-0.242 0.395 0.064 0.336 1.625 1.132 5.321 2.656 7.271 0.19 0.245 0.462 0.187 0.582-0.101 0.074-0.184 0.156-0.395 0.245-0.67 0.095-0.294 0.254-0.306 0.392-0.028 0.894 1.854 2.625 4.208 3.834 5.175 0.242 0.193 0.587 0.095 0.698-0.196 0.04-0.101 0.077-0.211 0.11-0.328 0.088-0.297 0.278-0.336 0.477-0.098 1.096 1.3 3.813 3.788 5.15 4.532 0.272 0.15 0.701 0.034 0.857-0.236 0.771-1.322 1.848-4.844 2.13-6.521 0.052-0.306 0.232-0.367 0.462-0.156 0.089 0.083 0.174 0.156 0.26 0.223 0.242 0.193 0.59 0.104 0.701-0.187 0.551-1.447 0.841-4.354 0.67-6.404-0.027-0.309 0.116-0.379 0.349-0.175 0.217 0.193 0.397 0.333 0.554 0.453 0.248 0.187 0.511 0.098 0.551-0.211 0.321-2.454-0.872-6.04-1.408-7.61-0.107-0.292 0.021-0.393 0.3-0.256z"/><path d="m107.46 156.15c-0.037 0.309 0.196 0.459 0.48 0.339 0.181-0.076 0.389-0.168 0.649-0.3 0.275-0.141 0.397-0.037 0.293 0.257-0.679 1.943-1.12 4.832-0.948 6.371 0.034 0.309 0.349 0.483 0.63 0.355 0.101-0.046 0.205-0.095 0.309-0.153 0.272-0.147 0.435-0.04 0.407 0.266-0.144 1.695 0.019 5.376 0.435 6.845 0.085 0.3 0.471 0.517 0.771 0.438 1.481-0.389 4.731-2.121 6.117-3.106 0.254-0.18 0.425-0.095 0.438 0.217 6e-3 0.12 0.015 0.236 0.027 0.343 0.034 0.309 0.343 0.49 0.627 0.364 1.411-0.637 3.675-2.485 5.003-4.055 0.199-0.235 0.352-0.187 0.371 0.123 0.018 0.291 0.046 0.517 0.07 0.713 0.042 0.306 0.291 0.429 0.539 0.239 1.961-1.505 3.657-4.887 4.388-6.377 0.135-0.278 0.3-0.257 0.398 0.037 0.085 0.26 0.193 0.499 0.324 0.725 0.156 0.267 0.456 0.248 0.612-0.021 2.154-3.73 0.076-8.592-1.824-14.596-0.095-0.296-0.371-0.373-0.612-0.18l-5.707 6.23c-0.242 0.196-0.407 0.104-0.367-0.205l2.222-8.02c0.04-0.309-0.177-0.505-0.477-0.432-5.995 1.463-11.145 2.087-13.229 5.783-0.153 0.27-0.015 0.539 0.294 0.539 0.26 0 0.514-0.03 0.789-0.092 0.303-0.067 0.407 0.064 0.236 0.325-0.914 1.394-2.965 4.57-3.265 7.028z"/><path d="m112.18 238.78-5.707 6.23c-0.242 0.196-0.407 0.104-0.367-0.205l2.222-8.02c0.04-0.309-0.178-0.505-0.478-0.432-5.995 1.462-11.145 2.087-13.229 5.783-0.153 0.27-0.015 0.539 0.294 0.539 0.26 0 0.511-0.03 0.79-0.092 0.303-0.067 0.407 0.064 0.235 0.325-0.912 1.386-2.962 4.565-3.262 7.02-0.037 0.309 0.196 0.459 0.48 0.339 0.184-0.076 0.389-0.168 0.648-0.3 0.275-0.141 0.398-0.037 0.294 0.257-0.679 1.943-1.12 4.832-0.949 6.371 0.034 0.309 0.349 0.483 0.63 0.355 0.101-0.046 0.205-0.095 0.312-0.153 0.272-0.147 0.435-0.04 0.407 0.269-0.144 1.695 0.019 5.376 0.435 6.845 0.085 0.3 0.471 0.517 0.771 0.438 1.481-0.389 4.731-2.121 6.117-3.106 0.254-0.181 0.425-0.095 0.438 0.217 6e-3 0.119 0.015 0.235 0.024 0.343 0.034 0.309 0.343 0.489 0.627 0.364 1.414-0.636 3.675-2.484 5.003-4.054 0.199-0.236 0.352-0.187 0.37 0.122 0.019 0.291 0.046 0.517 0.07 0.713 0.043 0.306 0.291 0.429 0.539 0.239 1.961-1.505 3.657-4.887 4.385-6.377 0.138-0.278 0.3-0.257 0.397 0.037 0.086 0.26 0.193 0.499 0.325 0.726 0.156 0.266 0.456 0.248 0.612-0.021 2.154-3.73 0.077-8.593-1.824-14.596-0.092-0.292-0.367-0.369-0.609-0.176z"/><path d="m71.85 173.05c-0.134 0.257-0.229 0.465-0.309 0.646-0.122 0.285 0.028 0.517 0.337 0.483 2.457-0.275 5.658-2.292 7.053-3.191 0.26-0.168 0.389-0.064 0.321 0.235-0.061 0.266-0.095 0.526-0.098 0.79-3e-3 0.309 0.263 0.45 0.533 0.3 3.773-2.078 4.51-7.316 5.988-13.433 0.074-0.303-0.125-0.514-0.431-0.471l-8.106 2.384c-0.306 0.042-0.401-0.123-0.208-0.364l6.05-5.716c0.193-0.245 0.11-0.523-0.187-0.615-5.888-1.849-10.618-3.978-14.315-1.891-0.269 0.153-0.293 0.453-0.027 0.612 0.223 0.135 0.456 0.239 0.722 0.331 0.294 0.101 0.312 0.266 0.034 0.401-1.5 0.716-4.896 2.375-6.423 4.321-0.19 0.245-0.07 0.496 0.235 0.542 0.196 0.027 0.419 0.058 0.71 0.08 0.309 0.021 0.358 0.174 0.12 0.373-1.585 1.313-3.458 3.556-4.107 4.96-0.131 0.282 0.049 0.594 0.355 0.63 0.11 0.012 0.224 0.024 0.346 0.031 0.309 0.015 0.392 0.189 0.211 0.44-1 1.377-2.763 4.611-3.167 6.086-0.083 0.3 0.134 0.686 0.431 0.774 1.469 0.432 5.147 0.634 6.842 0.505 0.309-0.024 0.413 0.138 0.263 0.41-0.058 0.107-0.11 0.208-0.156 0.306-0.131 0.282 0.04 0.597 0.349 0.636 1.536 0.187 4.431-0.223 6.38-0.884 0.294-0.106 0.398 0.017 0.254 0.289z"/><path d="m387.49 312.96-5.707 6.229c-0.241 0.196-0.407 0.104-0.367-0.205l2.222-8.02c0.04-0.31-0.178-0.505-0.478-0.432-5.994 1.463-11.145 2.087-13.229 5.783-0.152 0.27-0.015 0.539 0.294 0.539 0.26 0 0.514-0.031 0.789-0.092 0.304-0.067 0.407 0.063 0.236 0.324-0.912 1.386-2.962 4.565-3.263 7.02-0.036 0.309 0.196 0.459 0.48 0.34 0.181-0.077 0.389-0.169 0.649-0.3 0.275-0.142 0.397-0.037 0.294 0.257-0.677 1.943-1.117 4.832-0.949 6.371 0.034 0.309 0.349 0.483 0.631 0.354 0.098-0.046 0.201-0.095 0.309-0.153 0.272-0.146 0.435-0.039 0.407 0.27-0.144 1.695 0.019 5.377 0.435 6.846 0.086 0.3 0.471 0.517 0.771 0.438 1.481-0.389 4.731-2.121 6.117-3.106 0.254-0.181 0.426-0.095 0.438 0.218 6e-3 0.119 0.016 0.235 0.024 0.343 0.034 0.309 0.343 0.489 0.628 0.364 1.41-0.637 3.675-2.485 5.003-4.055 0.198-0.236 0.352-0.187 0.37 0.122 0.019 0.291 0.046 0.518 0.07 0.713 0.043 0.307 0.291 0.429 0.538 0.239 1.962-1.506 3.657-4.887 4.386-6.377 0.138-0.279 0.3-0.258 0.397 0.036 0.086 0.261 0.192 0.499 0.324 0.726 0.156 0.266 0.456 0.248 0.612-0.021 2.157-3.73 0.076-8.593-1.824-14.597-0.091-0.29-0.369-0.367-0.607-0.174z"/><path d="m354.7 228.12c7e-3 0.12 0.016 0.236 0.024 0.343 0.034 0.309 0.343 0.49 0.628 0.364 1.413-0.637 3.675-2.485 5.003-4.055 0.199-0.235 0.352-0.187 0.37 0.123 0.019 0.291 0.046 0.517 0.07 0.713 0.043 0.306 0.291 0.428 0.539 0.239 1.961-1.505 3.656-4.887 4.385-6.377 0.138-0.278 0.3-0.257 0.397 0.037 0.086 0.26 0.189 0.499 0.324 0.725 0.156 0.267 0.456 0.248 0.612-0.021 2.157-3.73 0.076-8.592-1.823-14.596-0.096-0.296-0.371-0.373-0.612-0.18l-5.707 6.23c-0.242 0.196-0.407 0.104-0.367-0.205l2.222-8.02c0.036-0.309-0.178-0.505-0.478-0.432-5.994 1.463-11.145 2.087-13.229 5.783-0.153 0.27-0.015 0.539 0.294 0.539 0.26 0 0.514-0.03 0.789-0.092 0.304-0.067 0.407 0.064 0.236 0.325-0.912 1.386-2.962 4.565-3.263 7.02-0.036 0.309 0.196 0.459 0.48 0.34 0.184-0.077 0.389-0.168 0.649-0.3 0.275-0.141 0.397-0.037 0.293 0.257-0.679 1.943-1.119 4.832-0.948 6.371 0.034 0.309 0.349 0.483 0.631 0.354 0.101-0.046 0.201-0.095 0.312-0.153 0.272-0.147 0.435-0.043 0.407 0.266-0.144 1.695 0.019 5.376 0.435 6.845 0.086 0.3 0.471 0.517 0.771 0.438 1.48-0.388 4.73-2.121 6.116-3.106 0.256-0.169 0.428-0.084 0.44 0.225z"/><path d="m426.84 310.5-5.707 6.23c-0.241 0.196-0.406 0.104-0.367-0.205l2.222-8.021c0.04-0.309-0.177-0.505-0.478-0.431-5.994 1.462-11.145 2.086-13.228 5.783-0.153 0.269-0.016 0.538 0.293 0.538 0.261 0 0.515-0.03 0.79-0.092 0.303-0.067 0.406 0.064 0.235 0.324-0.912 1.387-2.962 4.565-3.262 7.02-0.037 0.31 0.195 0.459 0.48 0.34 0.181-0.076 0.389-0.168 0.648-0.3 0.275-0.141 0.397-0.036 0.294 0.257-0.68 1.943-1.12 4.832-0.949 6.371 0.034 0.31 0.35 0.483 0.631 0.355 0.101-0.046 0.205-0.095 0.309-0.153 0.272-0.146 0.435-0.04 0.407 0.27-0.144 1.695 0.019 5.376 0.435 6.845 0.086 0.3 0.472 0.518 0.771 0.438 1.48-0.389 4.73-2.12 6.116-3.105 0.254-0.181 0.426-0.095 0.438 0.217 6e-3 0.12 0.015 0.236 0.027 0.343 0.033 0.31 0.343 0.49 0.627 0.364 1.411-0.637 3.675-2.484 5.003-4.055 0.199-0.235 0.353-0.187 0.37 0.123 0.019 0.29 0.046 0.517 0.07 0.713 0.043 0.306 0.291 0.429 0.539 0.238 1.961-1.505 3.656-4.887 4.388-6.377 0.135-0.278 0.3-0.257 0.398 0.037 0.085 0.26 0.192 0.499 0.324 0.725 0.156 0.267 0.456 0.248 0.612-0.021 2.153-3.729 0.076-8.592-1.824-14.596-0.091-0.291-0.37-0.367-0.612-0.175z"/><path d="m429.01 192.11c1.413-0.636 3.675-2.484 5.003-4.054 0.198-0.236 0.352-0.187 0.37 0.122 0.019 0.291 0.046 0.518 0.07 0.713 0.043 0.306 0.291 0.428 0.538 0.238 1.962-1.505 3.657-4.887 4.386-6.377 0.138-0.278 0.3-0.257 0.397 0.037 0.086 0.26 0.192 0.499 0.324 0.726 0.156 0.266 0.456 0.248 0.612-0.021 2.157-3.73 0.076-8.593-1.824-14.596-0.095-0.297-0.373-0.374-0.611-0.181l-5.707 6.23c-0.242 0.196-0.407 0.104-0.367-0.205l2.222-8.021c0.039-0.309-0.178-0.505-0.478-0.431-5.995 1.462-11.145 2.087-13.229 5.783-0.153 0.269-0.016 0.539 0.294 0.539 0.26 0 0.514-0.031 0.789-0.092 0.303-0.067 0.407 0.064 0.235 0.324-0.911 1.386-2.962 4.565-3.262 7.02-0.036 0.309 0.196 0.459 0.48 0.34 0.181-0.077 0.389-0.168 0.648-0.3 0.275-0.141 0.398-0.037 0.294 0.257-0.679 1.943-1.12 4.832-0.948 6.371 0.033 0.309 0.349 0.483 0.63 0.355 0.099-0.046 0.202-0.095 0.31-0.153 0.272-0.146 0.435-0.042 0.407 0.267-0.145 1.695 0.018 5.376 0.434 6.845 0.086 0.3 0.472 0.517 0.771 0.438 1.481-0.389 4.73-2.121 6.117-3.106 0.254-0.181 0.425-0.095 0.438 0.217 6e-3 0.119 0.016 0.236 0.024 0.343 0.042 0.317 0.351 0.5 0.633 0.372z"/><path d="m428.38 218.7c0.116-0.288-0.058-0.697-0.343-0.817-1.41-0.593-5.043-1.203-6.744-1.264-0.309-0.012-0.395-0.184-0.214-0.438 0.07-0.098 0.131-0.196 0.189-0.288 0.159-0.266 0.027-0.6-0.275-0.67-1.506-0.355-4.428-0.269-6.438 0.168-0.303 0.067-0.392-0.067-0.22-0.324 0.162-0.242 0.278-0.438 0.376-0.609 0.153-0.27 0.03-0.517-0.281-0.517-2.473 0-5.876 1.649-7.362 2.387-0.279 0.138-0.396 0.021-0.294-0.272 0.089-0.26 0.149-0.511 0.184-0.774 0.04-0.309-0.211-0.474-0.496-0.358-3.98 1.644-5.294 6.769-7.441 12.687-0.107 0.291 0.067 0.523 0.376 0.517l8.32-1.466c0.309-6e-3 0.386 0.165 0.168 0.386l-6.646 5.006c-0.217 0.22-0.168 0.508 0.116 0.633 5.646 2.491 10.11 5.132 14.016 3.47 0.284-0.123 0.339-0.416 0.095-0.606-0.208-0.159-0.426-0.288-0.683-0.407-0.281-0.132-0.281-0.3 0.013-0.401 1.569-0.545 5.128-1.814 6.863-3.58 0.217-0.221 0.125-0.484-0.175-0.563-0.189-0.049-0.41-0.104-0.694-0.156-0.307-0.055-0.337-0.214-0.076-0.382 1.72-1.129 3.828-3.149 4.629-4.474 0.159-0.266 0.019-0.593-0.284-0.667-0.107-0.024-0.221-0.049-0.34-0.067-0.306-0.052-0.37-0.232-0.159-0.462 1.143-1.251 3.254-4.268 3.82-5.692z"/><path d="m467.9 190.83c0.251 0.147 0.456 0.248 0.633 0.333 0.278 0.135 0.518-6e-3 0.496-0.315-0.175-2.47-2.06-5.747-2.897-7.179-0.156-0.267-0.05-0.392 0.251-0.312 0.263 0.07 0.52 0.116 0.783 0.129 0.309 0.018 0.459-0.242 0.321-0.521-1.919-3.855-7.124-4.807-13.177-6.536-0.297-0.085-0.517 0.104-0.489 0.413l2.047 8.198c0.03 0.309-0.138 0.395-0.373 0.193l-5.462-6.279c-0.236-0.202-0.518-0.131-0.625 0.159-2.09 5.805-4.412 10.444-2.479 14.223 0.141 0.275 0.44 0.312 0.609 0.052 0.144-0.217 0.257-0.443 0.357-0.71 0.113-0.288 0.279-0.303 0.401-0.015 0.651 1.527 2.17 4.991 4.052 6.594 0.235 0.202 0.492 0.092 0.551-0.214 0.036-0.192 0.073-0.416 0.106-0.704 0.034-0.309 0.19-0.352 0.377-0.104 1.245 1.637 3.412 3.599 4.789 4.305 0.275 0.141 0.593-0.024 0.643-0.33 0.018-0.107 0.033-0.224 0.043-0.343 0.03-0.309 0.204-0.386 0.446-0.193 1.334 1.056 4.492 2.95 5.948 3.415 0.297 0.095 0.692-0.107 0.793-0.401 0.492-1.451 0.845-5.116 0.786-6.815-9e-3 -0.309 0.156-0.407 0.423-0.245 0.104 0.061 0.205 0.12 0.3 0.168 0.275 0.141 0.6-0.016 0.648-0.321 0.251-1.527-0.043-4.434-0.621-6.411-0.075-0.292 0.05-0.39 0.32-0.234z"/><path d="m456.49 214.01c0.251 0.147 0.456 0.248 0.634 0.333 0.278 0.135 0.517-6e-3 0.495-0.315-0.174-2.469-2.056-5.747-2.897-7.179-0.156-0.266-0.049-0.392 0.251-0.312 0.263 0.07 0.521 0.116 0.783 0.128 0.309 0.018 0.459-0.245 0.321-0.52-1.919-3.856-7.124-4.808-13.177-6.536-0.3-0.086-0.517 0.104-0.489 0.413l2.047 8.197c0.028 0.309-0.138 0.395-0.373 0.193l-5.462-6.279c-0.235-0.202-0.518-0.132-0.624 0.159-2.09 5.805-4.413 10.443-2.479 14.223 0.141 0.275 0.44 0.312 0.608 0.052 0.144-0.217 0.257-0.444 0.358-0.71 0.113-0.291 0.278-0.303 0.4-0.016 0.652 1.527 2.17 4.991 4.052 6.594 0.235 0.202 0.492 0.092 0.551-0.214 0.036-0.193 0.073-0.417 0.107-0.707 0.033-0.309 0.189-0.352 0.376-0.104 1.245 1.637 3.412 3.599 4.789 4.305 0.275 0.141 0.594-0.024 0.643-0.33 0.019-0.107 0.033-0.224 0.043-0.343 0.03-0.309 0.205-0.386 0.446-0.193 1.334 1.056 4.492 2.95 5.949 3.415 0.293 0.095 0.691-0.107 0.792-0.401 0.493-1.451 0.845-5.116 0.787-6.814-0.013-0.309 0.155-0.407 0.422-0.245 0.104 0.062 0.205 0.12 0.3 0.168 0.275 0.141 0.6-0.015 0.648-0.321 0.251-1.527-0.043-4.434-0.621-6.411-0.072-0.288 0.053-0.386 0.32-0.23z"/><path d="m454.6 289.76c0.263 0.07 0.52 0.116 0.783 0.129 0.309 0.019 0.459-0.245 0.321-0.521-1.919-3.855-7.124-4.808-13.177-6.536-0.3-0.086-0.517 0.104-0.489 0.413l2.047 8.198c0.027 0.309-0.138 0.395-0.373 0.192l-5.462-6.279c-0.236-0.202-0.518-0.132-0.625 0.159-2.09 5.805-4.412 10.443-2.479 14.223 0.142 0.275 0.441 0.312 0.609 0.053 0.144-0.218 0.257-0.444 0.358-0.71 0.113-0.291 0.278-0.304 0.4-0.016 0.651 1.527 2.17 4.991 4.052 6.595 0.235 0.201 0.492 0.092 0.551-0.215 0.036-0.192 0.073-0.416 0.106-0.707 0.034-0.309 0.19-0.352 0.377-0.104 1.245 1.637 3.412 3.599 4.789 4.306 0.275 0.141 0.594-0.025 0.643-0.331 0.019-0.107 0.033-0.224 0.043-0.343 0.03-0.309 0.205-0.386 0.446-0.192 1.334 1.056 4.492 2.949 5.949 3.415 0.293 0.095 0.691-0.107 0.792-0.401 0.493-1.45 0.845-5.116 0.786-6.814-0.012-0.309 0.156-0.407 0.423-0.245 0.104 0.062 0.205 0.12 0.3 0.169 0.275 0.141 0.6-0.016 0.648-0.321 0.251-1.527-0.043-4.435-0.621-6.411-0.086-0.297 0.04-0.397 0.306-0.241 0.251 0.144 0.456 0.247 0.634 0.333 0.278 0.135 0.518-6e-3 0.496-0.315-0.175-2.469-2.057-5.746-2.898-7.179-0.142-0.261-0.035-0.383 0.265-0.304z"/><path d="m503.07 130.64c0.275 0.062 0.529 0.092 0.79 0.092 0.309 0 0.446-0.266 0.293-0.539-2.083-3.696-7.233-4.321-13.228-5.783-0.304-0.074-0.518 0.123-0.478 0.431l2.222 8.021c0.039 0.309-0.126 0.401-0.367 0.205l-5.707-6.23c-0.242-0.195-0.521-0.116-0.612 0.181-1.9 6.001-3.981 10.866-1.823 14.596 0.155 0.27 0.455 0.288 0.611 0.021 0.135-0.227 0.239-0.465 0.324-0.725 0.099-0.294 0.261-0.315 0.398-0.037 0.731 1.49 2.423 4.872 4.385 6.377 0.245 0.189 0.496 0.067 0.538-0.239 0.028-0.196 0.053-0.422 0.071-0.713 0.018-0.309 0.171-0.361 0.37-0.123 1.328 1.573 3.592 3.421 5.003 4.055 0.284 0.128 0.594-0.055 0.627-0.364 0.013-0.107 0.021-0.223 0.027-0.343 0.013-0.309 0.184-0.395 0.438-0.217 1.387 0.985 4.637 2.717 6.117 3.106 0.3 0.08 0.686-0.141 0.771-0.438 0.416-1.472 0.581-5.153 0.435-6.845-0.027-0.309 0.135-0.413 0.407-0.266 0.106 0.058 0.211 0.107 0.309 0.153 0.284 0.128 0.597-0.046 0.63-0.355 0.172-1.539-0.269-4.428-0.948-6.371-0.101-0.293 0.019-0.397 0.294-0.257 0.257 0.131 0.465 0.223 0.648 0.3 0.288 0.12 0.521-0.034 0.48-0.339-0.3-2.454-2.35-5.634-3.262-7.02-0.166-0.27-0.066-0.402 0.237-0.334z"/><path d="m475.18 121.28c0.153 0.076 0.275 0.131 0.383 0.177 0.168 0.07 0.306-0.018 0.284-0.202-0.178-1.45-1.39-3.329-1.928-4.149-0.102-0.153-0.04-0.233 0.138-0.193 0.162 0.037 0.312 0.055 0.468 0.055 0.184 0 0.264-0.159 0.175-0.318-1.233-2.185-4.278-2.555-7.821-3.421-0.178-0.042-0.306 0.074-0.281 0.254l1.312 4.74c0.024 0.181-0.073 0.236-0.218 0.123l-3.372-3.685c-0.144-0.116-0.306-0.067-0.364 0.107-1.123 3.549-2.353 6.423-1.077 8.629 0.092 0.159 0.27 0.171 0.361 0.012 0.08-0.134 0.141-0.275 0.193-0.428 0.058-0.174 0.155-0.187 0.235-0.021 0.432 0.881 1.432 2.879 2.592 3.77 0.146 0.11 0.294 0.04 0.318-0.141 0.015-0.117 0.03-0.251 0.043-0.422 0.012-0.184 0.101-0.214 0.22-0.074 0.787 0.93 2.124 2.023 2.959 2.399 0.169 0.076 0.353-0.034 0.371-0.214 6e-3 -0.064 0.012-0.132 0.015-0.202 6e-3 -0.184 0.11-0.232 0.257-0.128 0.82 0.582 2.742 1.606 3.617 1.836 0.178 0.046 0.407-0.083 0.456-0.26 0.248-0.869 0.343-3.044 0.257-4.048-0.015-0.184 0.08-0.245 0.242-0.159 0.064 0.033 0.125 0.064 0.184 0.092 0.168 0.076 0.352-0.028 0.373-0.211 0.101-0.909-0.159-2.616-0.56-3.767-0.067-0.172 3e-3 -0.234 0.168-0.151z"/><path d="m205.44 95.371c-0.386-0.245-0.753-0.432-1.147-0.575-0.471-0.171-0.823 0.159-0.741 0.655 1.123 6.76 8.593 10.551 16.882 16.077 0.416 0.279 0.851 0.098 0.96-0.392l1.056-13.394c0.11-0.49 0.414-0.536 0.67-0.107l5.22 12.604c0.26 0.428 0.726 0.462 1.028 0.064 6.193-8.06 12.035-14.29 10.823-21.141-0.089-0.493-0.533-0.688-0.918-0.367-0.328 0.272-0.618 0.575-0.894 0.921-0.312 0.392-0.572 0.333-0.625-0.165-0.284-2.666-0.988-8.73-3.136-12.1-0.27-0.422-0.713-0.376-0.949 0.067-0.15 0.285-0.315 0.612-0.502 1.043-0.199 0.459-0.459 0.453-0.63-0.018-1.147-3.118-3.562-7.173-5.355-8.914-0.358-0.349-0.93-0.242-1.15 0.205-0.077 0.156-0.156 0.328-0.229 0.505-0.19 0.462-0.499 0.499-0.783 0.086-1.558-2.262-5.536-6.68-7.567-8.088-0.413-0.285-1.117-0.165-1.411 0.242-1.444 2.001-3.724 7.497-4.44 10.147-0.131 0.484-0.431 0.554-0.765 0.181-0.132-0.147-0.26-0.282-0.386-0.404-0.358-0.349-0.93-0.257-1.153 0.189-1.108 2.24-2.032 6.867-2.078 10.187-6e-3 0.501-0.248 0.593-0.59 0.226-0.318-0.342-0.582-0.597-0.817-0.811-0.367-0.34-0.805-0.239-0.918 0.251-0.899 3.892 0.456 9.844 1.077 12.451 0.12 0.498-0.107 0.641-0.532 0.375z"/><path d="m202.14 43.722c-0.088-0.493-0.532-0.688-0.918-0.367-0.327 0.272-0.618 0.575-0.894 0.921-0.312 0.392-0.572 0.333-0.624-0.166-0.285-2.665-0.988-8.73-3.137-12.099-0.269-0.422-0.716-0.376-0.949 0.067-0.15 0.285-0.315 0.612-0.501 1.043-0.199 0.459-0.459 0.453-0.63-0.019-1.147-3.118-3.562-7.172-5.355-8.914-0.358-0.349-0.93-0.242-1.151 0.205-0.076 0.156-0.153 0.327-0.229 0.505-0.189 0.462-0.499 0.499-0.783 0.085-1.558-2.261-5.536-6.68-7.567-8.087-0.413-0.285-1.12-0.165-1.411 0.242-1.444 2.001-3.724 7.497-4.44 10.147-0.132 0.483-0.432 0.554-0.765 0.181-0.131-0.147-0.26-0.282-0.386-0.404-0.358-0.349-0.93-0.257-1.153 0.189-1.108 2.24-2.032 6.867-2.078 10.187-6e-3 0.501-0.248 0.593-0.591 0.226-0.318-0.342-0.584-0.597-0.817-0.811-0.367-0.34-0.805-0.239-0.918 0.25-0.9 3.893 0.456 9.844 1.077 12.451 0.116 0.487-0.113 0.63-0.536 0.364-0.386-0.245-0.753-0.432-1.147-0.575-0.471-0.171-0.823 0.159-0.741 0.655 1.123 6.76 8.593 10.551 16.882 16.077 0.416 0.279 0.851 0.098 0.964-0.392l1.056-13.394c0.11-0.49 0.413-0.536 0.67-0.107l5.221 12.604c0.26 0.428 0.725 0.462 1.028 0.064 6.197-8.047 12.038-14.28 10.823-21.128z"/><path d="m488.92 169.94c0.275 0.061 0.529 0.092 0.789 0.092 0.31 0 0.447-0.266 0.294-0.539-2.084-3.697-7.233-4.321-13.229-5.784-0.303-0.073-0.517 0.123-0.477 0.432l2.221 8.021c0.04 0.309-0.125 0.4-0.367 0.205l-5.706-6.23c-0.242-0.196-0.521-0.116-0.612 0.181-1.9 6-3.981 10.866-1.824 14.596 0.156 0.269 0.456 0.288 0.612 0.021 0.135-0.227 0.238-0.465 0.324-0.726 0.098-0.293 0.261-0.315 0.398-0.037 0.73 1.49 2.423 4.872 4.385 6.377 0.244 0.19 0.495 0.067 0.538-0.238 0.028-0.196 0.053-0.422 0.07-0.713 0.019-0.309 0.172-0.361 0.37-0.122 1.328 1.573 3.593 3.421 5.004 4.054 0.284 0.129 0.594-0.055 0.627-0.364 0.012-0.107 0.021-0.223 0.027-0.342 0.013-0.309 0.184-0.395 0.438-0.217 1.387 0.985 4.636 2.717 6.117 3.106 0.3 0.08 0.686-0.141 0.771-0.438 0.416-1.472 0.581-5.15 0.435-6.845-0.028-0.309 0.134-0.413 0.406-0.269 0.107 0.058 0.212 0.107 0.31 0.153 0.284 0.128 0.597-0.046 0.63-0.355 0.172-1.539-0.269-4.428-0.948-6.371-0.102-0.294 0.019-0.398 0.294-0.257 0.257 0.132 0.465 0.224 0.648 0.3 0.288 0.12 0.521-0.033 0.48-0.339-0.3-2.458-2.351-5.633-3.262-7.02-0.168-0.264-0.066-0.396 0.237-0.332z"/><path d="m517.04 81.54c-0.279-0.138-0.285-0.331-0.016-0.486 0.104-0.062 0.202-0.126 0.291-0.187 0.257-0.174 0.269-0.532 0.024-0.722-1.228-0.945-3.923-2.068-5.934-2.5-0.303-0.064-0.331-0.223-0.067-0.386 0.248-0.153 0.432-0.281 0.594-0.397 0.251-0.181 0.241-0.459-0.04-0.588-2.255-1.019-6.034-0.921-7.692-0.859-0.31 0.012-0.371-0.144-0.156-0.371 0.195-0.205 0.352-0.404 0.489-0.627 0.162-0.266 3e-3 -0.52-0.306-0.529-4.241-0.141-7.454 3.936-11.818 8.296-0.22 0.22-0.162 0.505 0.12 0.633l8.005 2.271c0.284 0.128 0.275 0.315-0.016 0.419l-8.289 1.637c-0.291 0.104-0.371 0.383-0.166 0.618 4.141 4.743 7.216 9.049 11.521 9.144 0.309 6e-3 0.48-0.239 0.333-0.511-0.125-0.232-0.272-0.447-0.449-0.655-0.199-0.235-0.135-0.386 0.174-0.358 1.652 0.15 5.423 0.462 7.729-0.432 0.288-0.113 0.315-0.389 0.074-0.584-0.153-0.125-0.334-0.266-0.572-0.431-0.254-0.178-0.221-0.333 0.088-0.379 2.035-0.318 4.789-1.292 6.065-2.167 0.257-0.174 0.26-0.536 0.016-0.726-0.086-0.067-0.178-0.134-0.279-0.199-0.257-0.171-0.241-0.364 0.043-0.486 1.564-0.67 4.731-2.549 5.833-3.611 0.223-0.214 0.235-0.658 0.024-0.888-1.04-1.13-4.1-3.18-5.623-3.939z"/><path d="m388.47 186.38-5.707-6.23c-0.242-0.196-0.521-0.116-0.612 0.181-1.9 6-3.981 10.866-1.823 14.596 0.155 0.269 0.455 0.288 0.611 0.021 0.135-0.227 0.239-0.465 0.324-0.725 0.099-0.294 0.261-0.315 0.398-0.037 0.731 1.49 2.423 4.872 4.385 6.377 0.245 0.189 0.496 0.067 0.538-0.239 0.028-0.196 0.053-0.422 0.07-0.713 0.019-0.309 0.172-0.361 0.371-0.123 1.328 1.573 3.592 3.421 5.003 4.055 0.284 0.128 0.594-0.055 0.627-0.364 0.013-0.107 0.021-0.224 0.027-0.343 0.013-0.309 0.184-0.395 0.438-0.217 1.387 0.985 4.637 2.717 6.117 3.106 0.3 0.08 0.686-0.141 0.771-0.438 0.416-1.472 0.581-5.153 0.435-6.845-0.027-0.309 0.135-0.413 0.406-0.27 0.107 0.058 0.212 0.107 0.31 0.153 0.281 0.128 0.597-0.046 0.63-0.355 0.172-1.54-0.269-4.428-0.948-6.371-0.101-0.294 0.019-0.398 0.294-0.257 0.257 0.131 0.465 0.223 0.648 0.3 0.285 0.119 0.521-0.034 0.48-0.34-0.3-2.454-2.35-5.633-3.262-7.02-0.172-0.26-0.067-0.392 0.235-0.324 0.275 0.061 0.529 0.092 0.79 0.092 0.309 0 0.446-0.267 0.293-0.539-2.084-3.697-7.233-4.321-13.229-5.784-0.3-0.073-0.517 0.123-0.477 0.432l2.221 8.02c0.043 0.301-0.122 0.394-0.364 0.201z"/><path d="m470.36 260.98c0.119-0.016 0.235-0.031 0.343-0.052 0.306-0.058 0.462-0.379 0.314-0.652-0.737-1.361-2.748-3.482-4.412-4.691-0.251-0.184-0.211-0.336 0.095-0.379 0.288-0.04 0.511-0.083 0.704-0.123 0.303-0.064 0.406-0.321 0.201-0.554-1.646-1.845-5.144-3.283-6.686-3.901-0.288-0.116-0.278-0.282 6e-3 -0.401 0.261-0.107 0.486-0.227 0.701-0.376 0.254-0.177 0.214-0.474-0.064-0.609-3.822-1.848-8.409 0.578-14.165 2.8-0.29 0.11-0.354 0.395-0.146 0.627l6.401 5.318c0.208 0.229 0.125 0.401-0.187 0.379l-8.241-1.86c-0.309-0.021-0.492 0.202-0.4 0.499 1.863 6.013 2.932 11.193 6.833 13.026 0.281 0.132 0.538-0.024 0.514-0.333-0.021-0.263-0.07-0.517-0.146-0.78-0.086-0.297 0.034-0.407 0.306-0.257 1.451 0.808 4.771 2.616 7.243 2.735 0.31 0.016 0.447-0.227 0.303-0.505-0.088-0.177-0.195-0.376-0.349-0.627-0.162-0.266-0.064-0.392 0.236-0.312 1.988 0.533 4.901 0.759 6.423 0.475 0.306-0.058 0.456-0.383 0.306-0.655-0.052-0.095-0.11-0.196-0.175-0.296-0.165-0.263-0.073-0.432 0.236-0.429 1.701 0.019 5.357-0.416 6.796-0.939 0.291-0.107 0.483-0.508 0.383-0.798-0.499-1.448-2.464-4.562-3.55-5.872-0.203-0.245-0.133-0.422 0.177-0.458z"/><path d="m309.66 158.26c0.309 0.04 0.505-0.177 0.432-0.477-1.463-5.995-2.087-11.145-5.784-13.229-0.269-0.153-0.538-0.015-0.538 0.294 0 0.26 0.03 0.514 0.092 0.789 0.067 0.303-0.064 0.407-0.324 0.236-1.387-0.912-4.565-2.962-7.02-3.262-0.31-0.037-0.459 0.196-0.34 0.48 0.076 0.184 0.168 0.389 0.3 0.649 0.141 0.275 0.037 0.398-0.257 0.294-1.943-0.68-4.832-1.12-6.371-0.949-0.31 0.034-0.483 0.349-0.354 0.63 0.045 0.101 0.095 0.202 0.152 0.309 0.147 0.272 0.04 0.435-0.27 0.407-1.695-0.144-5.374 0.019-6.845 0.435-0.297 0.086-0.518 0.471-0.438 0.771 0.389 1.481 2.12 4.731 3.105 6.117 0.181 0.254 0.095 0.425-0.217 0.438-0.119 6e-3 -0.235 0.016-0.343 0.024-0.31 0.034-0.493 0.343-0.364 0.627 0.637 1.411 2.485 3.675 4.055 5.003 0.235 0.199 0.187 0.352-0.123 0.371-0.29 0.018-0.517 0.046-0.713 0.07-0.306 0.043-0.428 0.291-0.238 0.539 1.506 1.961 4.887 3.657 6.377 4.385 0.278 0.138 0.257 0.3-0.037 0.398-0.26 0.085-0.498 0.193-0.725 0.324-0.27 0.156-0.248 0.456 0.019 0.612 3.729 2.157 8.592 0.076 14.596-1.824 0.297-0.095 0.377-0.37 0.181-0.612l-6.23-5.707c-0.195-0.242-0.104-0.407 0.205-0.367l8.017 2.225z"/><path d="m373.64 96.289c0.294 0.095 0.529-0.076 0.514-0.385-0.293-6.163 0.074-11.337-3.157-14.088-0.236-0.202-0.526-0.119-0.585 0.187-0.049 0.254-0.067 0.511-0.061 0.792 6e-3 0.309-0.142 0.386-0.364 0.168-1.188-1.16-3.917-3.779-6.271-4.541-0.294-0.095-0.489 0.104-0.425 0.407 0.039 0.193 0.092 0.413 0.171 0.692 0.086 0.297-0.04 0.397-0.309 0.242-1.778-1.034-4.529-2.02-6.071-2.145-0.31-0.024-0.539 0.251-0.468 0.551 0.024 0.107 0.055 0.217 0.092 0.333 0.092 0.297-0.043 0.435-0.34 0.349-1.638-0.465-5.282-1.006-6.806-0.878-0.31 0.027-0.597 0.364-0.578 0.673 0.101 1.527 1.178 5.049 1.882 6.598 0.128 0.281 0.012 0.435-0.297 0.389-0.119-0.019-0.232-0.031-0.343-0.04-0.31-0.024-0.548 0.245-0.478 0.545 0.355 1.508 1.738 4.082 3.029 5.686 0.193 0.242 0.116 0.379-0.189 0.339-0.288-0.037-0.514-0.055-0.713-0.064-0.31-0.019-0.478 0.205-0.337 0.48 1.104 2.213 4.101 4.52 5.426 5.521 0.248 0.187 0.195 0.343-0.113 0.382-0.272 0.037-0.526 0.095-0.774 0.181-0.294 0.104-0.33 0.401-0.098 0.603 3.249 2.827 8.421 1.71 14.676 0.991 0.309-0.037 0.438-0.294 0.294-0.566l-5.031-6.791c-0.144-0.275-0.024-0.419 0.272-0.321l7.452 3.71z"/><path d="m156.66 221.65-6.79 5.03c-0.275 0.144-0.419 0.024-0.321-0.272l3.709-7.448c0.095-0.294-0.077-0.529-0.386-0.514-6.163 0.294-11.337-0.073-14.088 3.158-0.202 0.235-0.119 0.526 0.187 0.584 0.254 0.049 0.511 0.067 0.792 0.062 0.309-6e-3 0.385 0.141 0.168 0.364-1.16 1.187-3.779 3.917-4.541 6.27-0.095 0.294 0.104 0.49 0.407 0.426 0.193-0.04 0.413-0.092 0.691-0.171 0.297-0.086 0.398 0.04 0.242 0.309-1.037 1.778-2.02 4.529-2.145 6.071-0.024 0.309 0.251 0.539 0.551 0.468 0.107-0.024 0.217-0.055 0.333-0.092 0.297-0.092 0.435 0.043 0.349 0.34-0.465 1.637-1.007 5.281-0.878 6.805 0.027 0.309 0.364 0.597 0.673 0.579 1.527-0.101 5.049-1.178 6.597-1.882 0.282-0.128 0.435-0.012 0.389 0.297-0.019 0.12-0.031 0.233-0.04 0.343-0.024 0.309 0.245 0.548 0.545 0.478 1.509-0.355 4.079-1.738 5.686-3.026 0.242-0.196 0.379-0.116 0.34 0.189-0.037 0.288-0.055 0.514-0.067 0.713-0.019 0.309 0.205 0.477 0.48 0.336 2.212-1.104 4.52-4.101 5.52-5.425 0.187-0.248 0.343-0.196 0.382 0.11 0.037 0.272 0.092 0.526 0.181 0.774 0.104 0.293 0.401 0.331 0.603 0.098 2.827-3.25 1.71-8.421 0.991-14.676-0.027-0.313-0.284-0.445-0.56-0.298z"/><path d="m168.05 125.79c0.128-0.281-0.055-0.593-0.364-0.627-0.107-0.012-0.223-0.021-0.343-0.024-0.309-0.012-0.395-0.184-0.217-0.438 0.985-1.386 2.717-4.636 3.106-6.117 0.08-0.3-0.141-0.686-0.438-0.771-1.472-0.417-5.15-0.582-6.845-0.435-0.309 0.027-0.413-0.135-0.266-0.407 0.058-0.107 0.107-0.211 0.153-0.309 0.128-0.282-0.046-0.597-0.355-0.63-1.539-0.171-4.428 0.27-6.371 0.949-0.294 0.101-0.398-0.019-0.257-0.294 0.132-0.257 0.224-0.465 0.3-0.648 0.12-0.288-0.03-0.521-0.339-0.48-2.458 0.3-5.634 2.35-7.02 3.262-0.26 0.171-0.392 0.067-0.324-0.235 0.062-0.275 0.092-0.53 0.092-0.79 0-0.309-0.266-0.447-0.539-0.294-3.696 2.084-4.321 7.234-5.783 13.229-0.074 0.3 0.123 0.517 0.431 0.478l8.021-2.222c0.309-0.04 0.398 0.125 0.205 0.367l-6.23 5.707c-0.196 0.242-0.116 0.52 0.181 0.612 6.001 1.9 10.866 3.981 14.596 1.824 0.27-0.156 0.288-0.456 0.021-0.612-0.227-0.135-0.465-0.239-0.725-0.325-0.294-0.098-0.315-0.26-0.037-0.397 1.49-0.731 4.872-2.424 6.377-4.385 0.189-0.245 0.067-0.496-0.239-0.539-0.196-0.027-0.422-0.055-0.713-0.07-0.309-0.019-0.361-0.171-0.123-0.37 1.56-1.334 3.408-3.599 4.045-5.009z"/><path d="m146.77 81.84 8.02-2.222c0.309-0.04 0.401 0.125 0.205 0.367l-6.23 5.707c-0.196 0.242-0.116 0.52 0.181 0.612 6 1.9 10.866 3.981 14.596 1.824 0.27-0.156 0.288-0.456 0.019-0.612-0.227-0.135-0.465-0.239-0.725-0.324-0.294-0.098-0.315-0.26-0.037-0.398 1.49-0.731 4.872-2.423 6.377-4.385 0.189-0.245 0.067-0.496-0.239-0.539-0.196-0.028-0.422-0.052-0.713-0.071-0.309-0.018-0.361-0.171-0.123-0.37 1.573-1.328 3.421-3.592 4.055-5.003 0.128-0.282-0.055-0.594-0.364-0.627-0.107-0.012-0.224-0.021-0.343-0.024-0.309-0.012-0.395-0.184-0.217-0.438 0.985-1.386 2.717-4.636 3.106-6.117 0.08-0.3-0.141-0.685-0.438-0.771-1.472-0.416-5.153-0.581-6.845-0.435-0.309 0.028-0.413-0.135-0.27-0.407 0.058-0.107 0.107-0.211 0.153-0.309 0.128-0.282-0.046-0.597-0.355-0.63-1.539-0.171-4.428 0.269-6.371 0.949-0.294 0.101-0.398-0.019-0.257-0.294 0.131-0.257 0.223-0.465 0.3-0.649 0.119-0.288-0.031-0.52-0.34-0.48-2.454 0.3-5.633 2.35-7.02 3.262-0.26 0.171-0.392 0.067-0.324-0.236 0.061-0.275 0.092-0.529 0.092-0.789 0-0.309-0.267-0.447-0.539-0.294-3.697 2.084-4.321 7.234-5.784 13.229-0.074 0.296 0.124 0.514 0.43 0.474z"/><path d="m367.98 249.93c-0.036 0.309 0.196 0.459 0.48 0.34 0.181-0.077 0.389-0.168 0.649-0.3 0.275-0.141 0.397-0.037 0.293 0.257-0.676 1.943-1.116 4.832-0.948 6.371 0.034 0.309 0.349 0.483 0.63 0.355 0.099-0.046 0.202-0.095 0.31-0.153 0.272-0.146 0.435-0.04 0.407 0.27-0.145 1.695 0.018 5.376 0.435 6.845 0.085 0.3 0.471 0.517 0.771 0.438 1.481-0.389 4.731-2.121 6.117-3.106 0.254-0.181 0.426-0.095 0.438 0.217 6e-3 0.119 0.016 0.236 0.024 0.343 0.034 0.309 0.343 0.49 0.628 0.364 1.413-0.637 3.675-2.485 5.003-4.055 0.198-0.235 0.352-0.187 0.37 0.123 0.019 0.291 0.046 0.517 0.07 0.713 0.043 0.306 0.291 0.428 0.538 0.239 1.962-1.505 3.657-4.887 4.386-6.377 0.138-0.279 0.3-0.257 0.397 0.037 0.086 0.26 0.192 0.499 0.324 0.725 0.156 0.266 0.456 0.248 0.612-0.021 2.157-3.73 0.076-8.592-1.824-14.596-0.095-0.297-0.373-0.373-0.611-0.18l-5.707 6.23c-0.242 0.196-0.407 0.104-0.367-0.205l2.222-8.02c0.039-0.309-0.178-0.505-0.478-0.432-5.995 1.462-11.145 2.087-13.229 5.783-0.153 0.27-0.016 0.539 0.294 0.539 0.26 0 0.514-0.03 0.789-0.092 0.303-0.067 0.407 0.064 0.235 0.325-0.907 1.389-2.958 4.566-3.258 7.023z"/><path d="m369.96 293.04c-0.211 0.175-0.395 0.358-0.561 0.566-0.192 0.241-0.066 0.514 0.239 0.562 4.257 0.661 8.038-3.038 12.946-6.979 0.242-0.193 0.215-0.483-0.055-0.637l-7.873-3.066c-0.27-0.156-0.242-0.343 0.058-0.416l8.28-0.829c0.3-0.076 0.407-0.346 0.229-0.6-3.531-5.059-5.976-9.636-10.178-10.242-0.306-0.042-0.508 0.178-0.395 0.468 0.095 0.242 0.215 0.468 0.37 0.704 0.172 0.257 0.086 0.401-0.217 0.336-1.622-0.349-5.327-1.111-7.724-0.502-0.3 0.077-0.358 0.349-0.144 0.572 0.138 0.141 0.297 0.303 0.514 0.496 0.232 0.208 0.178 0.358-0.131 0.367-2.057 0.071-4.908 0.704-6.282 1.42-0.275 0.144-0.325 0.499-0.104 0.716 0.08 0.076 0.162 0.156 0.254 0.232 0.235 0.202 0.196 0.389-0.101 0.478-1.635 0.477-5.003 1.961-6.225 2.883-0.247 0.187-0.312 0.627-0.131 0.878 0.899 1.239 3.687 3.645 5.106 4.581 0.261 0.171 0.242 0.36-0.043 0.486-0.109 0.049-0.214 0.098-0.309 0.146-0.275 0.144-0.334 0.499-0.113 0.716 1.104 1.087 3.645 2.528 5.591 3.198 0.294 0.101 0.303 0.26 0.019 0.392-0.264 0.122-0.466 0.229-0.64 0.324-0.272 0.15-0.294 0.426-0.031 0.588 2.115 1.285 5.879 1.64 7.534 1.78 0.317 0.024 0.356 0.183 0.117 0.382z"/><path d="m67.358 130.36c0.309 0 0.471-0.242 0.361-0.533l-4.073-7.258c-0.11-0.291 0.027-0.419 0.309-0.288l7.029 4.688c0.281 0.132 0.532-0.012 0.554-0.321 0.41-6.282 1.27-11.502-1.713-14.608-0.214-0.224-0.511-0.171-0.6 0.125-0.073 0.254-0.119 0.508-0.141 0.783-0.024 0.309-0.177 0.367-0.376 0.132-1.065-1.273-3.516-4.153-5.783-5.147-0.285-0.125-0.496 0.052-0.465 0.361 0.021 0.196 0.049 0.422 0.101 0.71 0.055 0.306-0.08 0.392-0.331 0.208-1.665-1.208-4.305-2.463-5.826-2.742-0.306-0.055-0.563 0.196-0.523 0.502 0.015 0.107 0.034 0.22 0.058 0.34 0.061 0.303-0.086 0.428-0.374 0.315-1.582-0.627-5.15-1.53-6.683-1.554-0.309-6e-3 -0.633 0.3-0.643 0.609-0.052 1.527 0.667 5.141 1.212 6.753 0.098 0.293-0.031 0.435-0.333 0.358-0.116-0.031-0.229-0.055-0.337-0.074-0.306-0.055-0.569 0.187-0.526 0.496 0.202 1.536 1.319 4.235 2.442 5.958 0.168 0.26 0.076 0.392-0.224 0.321-0.282-0.067-0.505-0.107-0.701-0.138-0.306-0.049-0.496 0.156-0.386 0.447 0.878 2.313 3.626 4.908 4.844 6.038 0.227 0.211 0.159 0.364-0.15 0.37-0.282 6e-3 -0.536 0.037-0.79 0.101-0.303 0.073-0.37 0.367-0.156 0.59 2.902 3.095 8.052 2.471 14.224 2.458z"/><path d="m120.82 119.59 7.029 4.688c0.282 0.132 0.533-0.012 0.554-0.321 0.41-6.282 1.27-11.502-1.714-14.608-0.214-0.223-0.511-0.171-0.6 0.125-0.077 0.254-0.119 0.508-0.144 0.783-0.024 0.309-0.177 0.367-0.376 0.132-1.065-1.273-3.516-4.152-5.784-5.147-0.285-0.125-0.496 0.052-0.465 0.361 0.021 0.196 0.049 0.422 0.101 0.71 0.055 0.306-0.08 0.389-0.33 0.208-1.665-1.208-4.303-2.463-5.827-2.742-0.306-0.055-0.563 0.196-0.52 0.502 0.015 0.107 0.034 0.22 0.055 0.34 0.061 0.303-0.086 0.428-0.374 0.315-1.582-0.627-5.15-1.53-6.68-1.554-0.309-6e-3 -0.634 0.3-0.643 0.609-0.052 1.527 0.667 5.141 1.211 6.753 0.098 0.293-0.03 0.435-0.331 0.358-0.119-0.031-0.229-0.055-0.339-0.073-0.306-0.055-0.569 0.187-0.526 0.496 0.202 1.536 1.319 4.235 2.442 5.958 0.168 0.26 0.077 0.392-0.224 0.321-0.281-0.067-0.505-0.104-0.701-0.138-0.306-0.049-0.496 0.156-0.385 0.447 0.878 2.313 3.626 4.909 4.844 6.038 0.227 0.211 0.159 0.364-0.15 0.373-0.281 6e-3 -0.536 0.037-0.79 0.098-0.3 0.074-0.367 0.367-0.156 0.594 2.907 3.094 8.057 2.469 14.226 2.457 0.309 0 0.471-0.242 0.361-0.532l-4.073-7.258c-0.11-0.296 0.028-0.424 0.309-0.293z"/><path d="m96.22 173.75c-1.579-0.627-5.15-1.53-6.68-1.555-0.309-6e-3 -0.633 0.3-0.643 0.609-0.055 1.527 0.667 5.141 1.212 6.753 0.098 0.294-0.031 0.435-0.331 0.358-0.116-0.031-0.229-0.055-0.336-0.074-0.306-0.055-0.569 0.187-0.529 0.496 0.202 1.536 1.319 4.235 2.442 5.958 0.168 0.26 0.076 0.392-0.227 0.321-0.282-0.067-0.505-0.107-0.701-0.138-0.306-0.049-0.496 0.156-0.386 0.447 0.878 2.313 3.626 4.908 4.844 6.038 0.226 0.211 0.159 0.364-0.15 0.37-0.281 6e-3 -0.535 0.037-0.789 0.101-0.303 0.073-0.371 0.367-0.156 0.59 2.907 3.094 8.057 2.47 14.229 2.457 0.309 0 0.471-0.242 0.361-0.532l-4.073-7.258c-0.11-0.291 0.028-0.419 0.309-0.288l7.029 4.688c0.282 0.131 0.533-0.012 0.551-0.321 0.41-6.282 1.27-11.503-1.713-14.609-0.214-0.223-0.511-0.171-0.6 0.126-0.077 0.254-0.12 0.508-0.144 0.783-0.024 0.309-0.177 0.367-0.376 0.131-1.065-1.273-3.516-4.152-5.783-5.147-0.285-0.125-0.499 0.052-0.465 0.361 0.021 0.196 0.049 0.422 0.101 0.71 0.055 0.306-0.08 0.392-0.331 0.208-1.665-1.209-4.305-2.463-5.826-2.742-0.306-0.055-0.563 0.196-0.523 0.501 0.016 0.107 0.034 0.221 0.058 0.34 0.061 0.306-0.086 0.431-0.374 0.318z"/><path d="m98.417 220.2c0.221-0.22 0.163-0.505-0.122-0.63l-8.011-2.252c-0.285-0.125-0.275-0.315 0.015-0.422l8.287-1.655c0.291-0.107 0.367-0.386 0.162-0.618-4.152-4.734-7.237-9.03-11.542-9.119-0.309-6e-3 -0.48 0.239-0.333 0.514 0.125 0.232 0.275 0.444 0.453 0.655 0.202 0.236 0.135 0.386-0.174 0.358-1.652-0.146-5.422-0.45-7.729 0.45-0.288 0.113-0.315 0.389-0.074 0.584 0.153 0.125 0.333 0.263 0.572 0.431 0.254 0.178 0.22 0.334-0.085 0.383-2.032 0.321-4.786 1.3-6.059 2.182-0.254 0.178-0.26 0.536-0.012 0.725 0.086 0.067 0.181 0.132 0.279 0.199 0.257 0.171 0.242 0.364-0.043 0.486-1.561 0.673-4.725 2.561-5.823 3.626-0.224 0.214-0.236 0.661-0.024 0.888 1.043 1.117 4.106 3.164 5.633 3.917 0.278 0.138 0.285 0.331 0.019 0.487-0.104 0.061-0.202 0.125-0.291 0.187-0.254 0.177-0.269 0.536-0.021 0.722 1.227 0.942 3.926 2.062 5.939 2.488 0.303 0.064 0.33 0.223 0.067 0.386-0.245 0.153-0.431 0.281-0.59 0.397-0.251 0.184-0.242 0.462 0.043 0.587 2.255 1.016 6.037 0.906 7.696 0.845 0.309-0.012 0.37 0.144 0.156 0.37-0.192 0.205-0.352 0.407-0.486 0.627-0.162 0.266-3e-3 0.52 0.309 0.529 4.234 0.124 7.435-3.958 11.789-8.327z"/><path d="m126.69 67.271c-0.214-0.223-0.511-0.171-0.6 0.125-0.077 0.254-0.12 0.508-0.144 0.784-0.024 0.309-0.177 0.367-0.376 0.131-1.065-1.273-3.516-4.152-5.783-5.147-0.285-0.125-0.496 0.052-0.465 0.361 0.021 0.196 0.049 0.422 0.101 0.71 0.055 0.306-0.08 0.389-0.331 0.208-1.665-1.209-4.302-2.463-5.826-2.742-0.306-0.055-0.563 0.196-0.52 0.502 0.015 0.107 0.034 0.22 0.055 0.339 0.061 0.303-0.086 0.428-0.374 0.315-1.582-0.627-5.15-1.53-6.68-1.555-0.309-6e-3 -0.633 0.3-0.643 0.609-0.052 1.527 0.667 5.141 1.212 6.753 0.098 0.294-0.031 0.435-0.331 0.358-0.119-0.03-0.229-0.055-0.339-0.073-0.306-0.055-0.569 0.187-0.526 0.496 0.202 1.536 1.319 4.235 2.442 5.958 0.168 0.26 0.076 0.392-0.224 0.321-0.281-0.067-0.505-0.104-0.701-0.138-0.306-0.049-0.496 0.156-0.386 0.447 0.878 2.313 3.626 4.908 4.844 6.037 0.227 0.211 0.159 0.364-0.15 0.374-0.282 6e-3 -0.536 0.037-0.79 0.098-0.3 0.073-0.367 0.367-0.156 0.593 2.907 3.094 8.057 2.47 14.226 2.458 0.309 0 0.471-0.242 0.361-0.533l-4.073-7.258c-0.11-0.291 0.028-0.419 0.309-0.288l7.029 4.688c0.282 0.131 0.533-0.012 0.554-0.321 0.411-6.283 1.271-11.504-1.715-14.61z"/><path d="m249.27 166.92c0.086 0.3 0.471 0.517 0.771 0.438 1.481-0.389 4.731-2.121 6.117-3.106 0.254-0.18 0.425-0.095 0.438 0.217 6e-3 0.12 0.015 0.236 0.024 0.343 0.034 0.309 0.343 0.49 0.627 0.364 1.414-0.637 3.675-2.485 5.003-4.055 0.199-0.235 0.352-0.187 0.371 0.123 0.018 0.291 0.046 0.517 0.07 0.713 0.042 0.306 0.291 0.429 0.539 0.239 1.961-1.505 3.657-4.887 4.385-6.377 0.138-0.278 0.3-0.257 0.398 0.037 0.085 0.26 0.193 0.499 0.324 0.725 0.156 0.27 0.456 0.248 0.612-0.021 2.157-3.73 0.076-8.592-1.824-14.596-0.095-0.296-0.37-0.373-0.612-0.18l-5.707 6.23c-0.242 0.196-0.407 0.104-0.367-0.205l2.222-8.02c0.04-0.309-0.177-0.505-0.478-0.432-5.994 1.463-11.145 2.087-13.228 5.783-0.153 0.27-0.016 0.539 0.293 0.539 0.26 0 0.514-0.03 0.79-0.092 0.303-0.067 0.407 0.067 0.236 0.325-0.912 1.386-2.962 4.565-3.262 7.02-0.037 0.309 0.196 0.459 0.48 0.34 0.184-0.077 0.389-0.168 0.649-0.3 0.275-0.141 0.397-0.037 0.293 0.257-0.679 1.943-1.12 4.832-0.948 6.371 0.034 0.309 0.349 0.483 0.63 0.354 0.101-0.046 0.202-0.095 0.312-0.153 0.272-0.147 0.435-0.04 0.407 0.269-0.146 1.697 0.016 5.378 0.435 6.85z"/><path d="m188.64 153.8c3.773-2.078 4.51-7.316 5.988-13.433 0.074-0.303-0.125-0.514-0.431-0.471l-8.106 2.384c-0.306 0.042-0.401-0.123-0.208-0.364l6.05-5.716c0.193-0.245 0.11-0.523-0.187-0.615-5.888-1.849-10.618-3.979-14.315-1.891-0.269 0.153-0.293 0.453-0.027 0.612 0.223 0.135 0.456 0.239 0.722 0.331 0.294 0.101 0.312 0.266 0.034 0.401-1.5 0.716-4.896 2.375-6.423 4.321-0.19 0.245-0.07 0.496 0.235 0.542 0.196 0.027 0.419 0.058 0.71 0.08 0.309 0.021 0.358 0.174 0.12 0.373-1.585 1.313-3.455 3.556-4.107 4.96-0.131 0.281 0.049 0.594 0.355 0.63 0.107 0.012 0.224 0.024 0.346 0.031 0.309 0.015 0.392 0.189 0.211 0.44-1 1.377-2.763 4.611-3.167 6.086-0.083 0.3 0.134 0.686 0.431 0.774 1.469 0.432 5.147 0.634 6.842 0.505 0.309-0.024 0.41 0.138 0.263 0.41-0.058 0.107-0.11 0.208-0.156 0.306-0.128 0.281 0.04 0.597 0.349 0.636 1.536 0.187 4.431-0.223 6.38-0.881 0.294-0.098 0.398 0.021 0.254 0.296-0.134 0.257-0.229 0.465-0.309 0.646-0.122 0.284 0.028 0.517 0.337 0.483 2.46-0.275 5.658-2.292 7.053-3.191 0.26-0.168 0.389-0.064 0.321 0.238-0.061 0.267-0.095 0.526-0.098 0.79-2e-3 0.296 0.264 0.434 0.533 0.287z"/><path d="m258.83 223.12c-0.024 0.309 0.251 0.539 0.551 0.468 0.107-0.024 0.217-0.055 0.333-0.092 0.296-0.092 0.434 0.043 0.349 0.34-0.465 1.637-1.007 5.281-0.878 6.805 0.028 0.309 0.364 0.597 0.673 0.579 1.527-0.101 5.049-1.178 6.597-1.882 0.282-0.128 0.435-0.012 0.389 0.297-0.018 0.12-0.03 0.233-0.04 0.343-0.024 0.309 0.245 0.548 0.544 0.478 1.509-0.355 4.082-1.738 5.686-3.026 0.242-0.193 0.379-0.116 0.34 0.193-0.037 0.288-0.055 0.514-0.064 0.713-0.018 0.309 0.205 0.478 0.48 0.336 2.213-1.104 4.52-4.1 5.521-5.425 0.187-0.248 0.343-0.196 0.382 0.113 0.037 0.272 0.096 0.526 0.181 0.774 0.104 0.293 0.401 0.33 0.606 0.098 2.827-3.25 1.71-8.421 0.991-14.676-0.037-0.309-0.294-0.438-0.566-0.293l-6.79 5.03c-0.275 0.144-0.419 0.024-0.321-0.272l3.709-7.448c0.095-0.294-0.076-0.529-0.386-0.514-6.163 0.294-11.337-0.073-14.088 3.158-0.202 0.235-0.12 0.526 0.187 0.584 0.254 0.049 0.511 0.067 0.792 0.062 0.309-6e-3 0.385 0.141 0.168 0.364-1.16 1.187-3.779 3.917-4.541 6.27-0.095 0.294 0.104 0.49 0.407 0.426 0.193-0.04 0.413-0.092 0.691-0.171 0.297-0.086 0.398 0.04 0.242 0.309-1.037 1.766-2.019 4.517-2.145 6.059z"/><path d="m275.03 134.9c-0.192 0.242-0.116 0.52 0.181 0.612 6.001 1.9 10.866 3.981 14.596 1.824 0.27-0.156 0.288-0.456 0.021-0.612-0.227-0.135-0.465-0.239-0.725-0.324-0.294-0.098-0.315-0.26-0.037-0.398 1.49-0.731 4.872-2.423 6.377-4.385 0.189-0.245 0.067-0.496-0.238-0.539-0.196-0.028-0.423-0.052-0.713-0.071-0.31-0.018-0.361-0.171-0.123-0.37 1.573-1.328 3.421-3.592 4.055-5.003 0.129-0.282-0.055-0.594-0.364-0.627-0.106-0.012-0.223-0.021-0.343-0.024-0.309-0.012-0.395-0.184-0.217-0.438 0.985-1.386 2.714-4.636 3.105-6.117 0.08-0.3-0.141-0.685-0.438-0.771-1.472-0.416-5.149-0.581-6.845-0.435-0.31 0.028-0.413-0.135-0.27-0.407 0.058-0.107 0.107-0.211 0.153-0.309 0.128-0.282-0.046-0.597-0.355-0.63-1.539-0.171-4.428 0.269-6.371 0.949-0.293 0.101-0.398-0.019-0.257-0.294 0.132-0.257 0.224-0.465 0.3-0.649 0.119-0.285-0.033-0.52-0.34-0.48-2.454 0.3-5.633 2.35-7.02 3.262-0.26 0.171-0.392 0.067-0.324-0.236 0.062-0.275 0.092-0.529 0.092-0.79 0-0.309-0.266-0.446-0.538-0.293-3.697 2.084-4.321 7.234-5.784 13.229-0.074 0.303 0.123 0.517 0.431 0.477l8.021-2.222c0.309-0.04 0.397 0.126 0.205 0.367l-6.235 5.704z"/><path d="m270.14 104.57c0.08-0.3-0.141-0.686-0.438-0.771-1.472-0.416-5.15-0.582-6.845-0.435-0.309 0.027-0.413-0.135-0.267-0.407 0.058-0.107 0.107-0.211 0.153-0.31 0.128-0.281-0.046-0.597-0.355-0.63-1.539-0.171-4.428 0.269-6.371 0.948-0.293 0.101-0.397-0.018-0.257-0.293 0.131-0.257 0.223-0.465 0.3-0.649 0.119-0.285-0.031-0.52-0.34-0.48-2.454 0.3-5.633 2.35-7.02 3.262-0.26 0.171-0.392 0.067-0.324-0.236 0.061-0.275 0.092-0.529 0.092-0.79 0-0.309-0.266-0.447-0.539-0.293-3.697 2.083-4.321 7.233-5.784 13.228-0.073 0.303 0.123 0.517 0.432 0.478l8.021-2.222c0.309-0.04 0.4 0.125 0.205 0.367l-6.23 5.707c-0.196 0.242-0.116 0.52 0.181 0.612 6 1.9 10.866 3.981 14.596 1.824 0.269-0.156 0.288-0.456 0.021-0.612-0.227-0.135-0.465-0.239-0.726-0.324-0.293-0.098-0.315-0.26-0.037-0.398 1.49-0.731 4.872-2.423 6.377-4.385 0.19-0.245 0.067-0.496-0.238-0.539-0.196-0.028-0.422-0.052-0.713-0.07-0.309-0.019-0.361-0.171-0.122-0.371 1.573-1.328 3.421-3.592 4.054-5.003 0.129-0.282-0.055-0.594-0.364-0.627-0.107-0.012-0.223-0.021-0.342-0.024-0.309-0.012-0.395-0.184-0.217-0.438 0.979-1.388 2.708-4.638 3.097-6.119z"/><path d="m195.78 111.2c0.41-6.282 1.27-11.502-1.713-14.608-0.214-0.224-0.511-0.171-0.6 0.125-0.077 0.254-0.12 0.508-0.144 0.783-0.024 0.309-0.177 0.367-0.376 0.131-1.065-1.273-3.516-4.152-5.783-5.147-0.285-0.125-0.499 0.052-0.465 0.361 0.021 0.196 0.049 0.422 0.101 0.71 0.055 0.306-0.08 0.392-0.331 0.208-1.665-1.208-4.305-2.463-5.826-2.742-0.306-0.055-0.563 0.196-0.523 0.502 0.016 0.107 0.034 0.22 0.059 0.339 0.061 0.303-0.086 0.429-0.374 0.315-1.579-0.627-5.15-1.53-6.68-1.555-0.309-6e-3 -0.633 0.3-0.643 0.609-0.055 1.527 0.667 5.141 1.212 6.753 0.098 0.294-0.031 0.435-0.331 0.358-0.116-0.031-0.229-0.055-0.336-0.074-0.306-0.055-0.569 0.187-0.529 0.496 0.202 1.536 1.319 4.235 2.442 5.958 0.168 0.26 0.076 0.392-0.227 0.321-0.282-0.067-0.505-0.107-0.701-0.138-0.306-0.049-0.496 0.156-0.386 0.447 0.878 2.313 3.626 4.908 4.844 6.038 0.226 0.211 0.159 0.364-0.15 0.37-0.282 6e-3 -0.536 0.037-0.79 0.101-0.303 0.073-0.371 0.367-0.156 0.593 2.907 3.094 8.057 2.47 14.229 2.458 0.309 0 0.471-0.242 0.361-0.533l-4.073-7.258c-0.11-0.291 0.028-0.419 0.309-0.288l7.029 4.688c0.282 0.131 0.533-0.012 0.551-0.321z"/><path d="m219.1 148.94c-0.3 0.073-0.37 0.367-0.156 0.594 2.907 3.094 8.057 2.469 14.229 2.457 0.309 0 0.471-0.242 0.361-0.532l-4.073-7.258c-0.11-0.291 0.027-0.419 0.309-0.288l7.029 4.688c0.281 0.132 0.532-0.012 0.554-0.321 0.41-6.282 1.27-11.502-1.714-14.608-0.214-0.223-0.511-0.171-0.6 0.125-0.073 0.254-0.119 0.508-0.141 0.784-0.024 0.309-0.178 0.367-0.376 0.131-1.065-1.273-3.516-4.152-5.783-5.147-0.285-0.125-0.496 0.052-0.465 0.361 0.021 0.196 0.049 0.422 0.101 0.71 0.055 0.306-0.08 0.392-0.331 0.208-1.665-1.209-4.305-2.463-5.826-2.742-0.306-0.055-0.563 0.196-0.523 0.501 0.016 0.107 0.034 0.221 0.058 0.34 0.062 0.303-0.085 0.429-0.373 0.315-1.582-0.627-5.15-1.53-6.683-1.555-0.309-6e-3 -0.633 0.3-0.643 0.609-0.052 1.527 0.667 5.141 1.212 6.753 0.098 0.294-0.031 0.435-0.334 0.358-0.116-0.03-0.229-0.055-0.336-0.073-0.306-0.055-0.569 0.187-0.526 0.496 0.202 1.536 1.319 4.235 2.442 5.958 0.168 0.26 0.077 0.392-0.223 0.321-0.282-0.067-0.505-0.107-0.701-0.138-0.306-0.049-0.496 0.156-0.386 0.447 0.878 2.313 3.626 4.908 4.844 6.037 0.227 0.211 0.159 0.364-0.15 0.371-0.292 7e-3 -0.545 0.037-0.796 0.098z"/><path d="m271.8 86.216c0.41-6.282 1.27-11.503-1.714-14.608-0.214-0.224-0.511-0.171-0.6 0.125-0.073 0.254-0.119 0.508-0.144 0.784-0.024 0.309-0.178 0.367-0.376 0.131-1.065-1.273-3.516-4.152-5.784-5.147-0.284-0.125-0.499 0.052-0.465 0.361 0.021 0.196 0.049 0.422 0.101 0.71 0.055 0.306-0.08 0.392-0.331 0.208-1.665-1.208-4.306-2.463-5.826-2.742-0.306-0.055-0.563 0.196-0.523 0.502 0.015 0.107 0.034 0.22 0.058 0.339 0.061 0.303-0.085 0.429-0.373 0.315-1.579-0.627-5.15-1.53-6.68-1.555-0.309-6e-3 -0.633 0.3-0.643 0.609-0.055 1.527 0.667 5.141 1.212 6.753 0.098 0.294-0.031 0.435-0.331 0.358-0.116-0.03-0.229-0.055-0.337-0.073-0.306-0.055-0.569 0.187-0.526 0.496 0.202 1.536 1.319 4.235 2.441 5.958 0.168 0.26 0.077 0.392-0.226 0.321-0.282-0.067-0.505-0.107-0.701-0.138-0.306-0.049-0.496 0.156-0.386 0.447 0.878 2.313 3.626 4.908 4.844 6.037 0.226 0.211 0.159 0.364-0.15 0.371-0.281 6e-3 -0.535 0.037-0.789 0.101-0.303 0.073-0.371 0.367-0.156 0.593 2.907 3.094 8.057 2.47 14.229 2.458 0.309 0 0.471-0.242 0.361-0.533l-4.073-7.258c-0.11-0.291 0.028-0.419 0.309-0.288l7.029 4.688c0.277 0.129 0.528-0.014 0.55-0.323z"/><path d="m234.98 176.01 7.029 4.688c0.282 0.132 0.533-0.012 0.554-0.321 0.41-6.282 1.27-11.502-1.713-14.608-0.214-0.224-0.511-0.171-0.6 0.125-0.077 0.254-0.12 0.508-0.144 0.783-0.024 0.309-0.177 0.367-0.376 0.132-1.065-1.273-3.516-4.153-5.783-5.147-0.285-0.125-0.496 0.052-0.465 0.361 0.021 0.196 0.049 0.422 0.101 0.71 0.055 0.306-0.08 0.392-0.331 0.208-1.665-1.208-4.302-2.463-5.826-2.742-0.306-0.055-0.563 0.196-0.52 0.502 0.015 0.107 0.034 0.22 0.055 0.34 0.061 0.303-0.086 0.428-0.374 0.315-1.579-0.627-5.15-1.53-6.68-1.554-0.309-6e-3 -0.633 0.3-0.643 0.609-0.052 1.527 0.667 5.141 1.212 6.753 0.098 0.293-0.031 0.435-0.331 0.358-0.119-0.031-0.229-0.055-0.336-0.074-0.306-0.055-0.569 0.187-0.526 0.496 0.202 1.536 1.319 4.235 2.442 5.958 0.168 0.26 0.077 0.392-0.223 0.321-0.282-0.067-0.505-0.107-0.701-0.138-0.306-0.049-0.496 0.156-0.385 0.447 0.878 2.313 3.626 4.908 4.844 6.038 0.227 0.211 0.159 0.364-0.15 0.37-0.281 6e-3 -0.536 0.037-0.79 0.101-0.303 0.073-0.37 0.367-0.156 0.594 2.907 3.094 8.057 2.469 14.226 2.457 0.309 0 0.472-0.242 0.361-0.532l-4.073-7.258c-0.118-0.295 0.021-0.423 0.302-0.292z"/><path d="m303.93 84.208c-0.076 0.254-0.119 0.508-0.144 0.783-0.024 0.309-0.178 0.367-0.376 0.131-1.065-1.273-3.517-4.152-5.784-5.146-0.284-0.126-0.495 0.052-0.465 0.361 0.021 0.196 0.049 0.422 0.102 0.71 0.055 0.306-0.08 0.392-0.331 0.208-1.664-1.208-4.302-2.463-5.826-2.742-0.306-0.055-0.562 0.196-0.523 0.502 0.016 0.107 0.034 0.22 0.059 0.339 0.061 0.303-0.086 0.429-0.373 0.315-1.582-0.627-5.151-1.53-6.681-1.555-0.309-6e-3 -0.633 0.3-0.643 0.609-0.052 1.527 0.667 5.141 1.212 6.753 0.098 0.294-0.03 0.435-0.333 0.358-0.117-0.031-0.229-0.055-0.337-0.074-0.306-0.055-0.569 0.187-0.526 0.496 0.202 1.536 1.318 4.235 2.441 5.958 0.169 0.26 0.077 0.392-0.223 0.321-0.282-0.067-0.505-0.104-0.701-0.138-0.306-0.049-0.496 0.156-0.386 0.447 0.879 2.313 3.626 4.908 4.845 6.038 0.226 0.211 0.158 0.364-0.15 0.37-0.281 6e-3 -0.535 0.037-0.789 0.101-0.301 0.073-0.367 0.367-0.156 0.594 2.906 3.093 8.057 2.469 14.226 2.457 0.31 0 0.472-0.242 0.361-0.533l-4.073-7.258c-0.11-0.291 0.027-0.419 0.31-0.288l7.028 4.688c0.281 0.132 0.532-0.012 0.554-0.321 0.41-6.282 1.271-11.502-1.713-14.608-0.222-0.225-0.519-0.172-0.605 0.124z"/><path d="m346.07 61.127 1.056-13.394c0.11-0.489 0.413-0.535 0.67-0.107l5.221 12.604c0.26 0.429 0.726 0.462 1.028 0.064 6.193-8.06 12.035-14.29 10.823-21.139-0.089-0.493-0.533-0.688-0.918-0.367-0.328 0.272-0.618 0.576-0.894 0.921-0.312 0.392-0.572 0.333-0.625-0.166-0.284-2.665-0.988-8.73-3.136-12.099-0.27-0.422-0.713-0.376-0.949 0.067-0.149 0.281-0.314 0.612-0.502 1.043-0.198 0.459-0.459 0.453-0.63-0.019-1.147-3.118-3.562-7.172-5.355-8.914-0.357-0.349-0.93-0.242-1.15 0.205-0.076 0.156-0.156 0.327-0.229 0.505-0.189 0.462-0.499 0.499-0.783 0.085-1.558-2.261-5.535-6.68-7.567-8.087-0.413-0.285-1.117-0.166-1.41 0.242-1.444 2.001-3.725 7.497-4.44 10.147-0.132 0.483-0.432 0.554-0.765 0.181-0.132-0.147-0.261-0.282-0.386-0.404-0.358-0.349-0.931-0.257-1.153 0.19-1.108 2.24-2.032 6.867-2.078 10.187-6e-3 0.502-0.248 0.594-0.591 0.227-0.318-0.343-0.584-0.597-0.817-0.811-0.367-0.339-0.805-0.238-0.918 0.251-0.899 3.893 0.456 9.844 1.077 12.451 0.116 0.487-0.112 0.63-0.535 0.364-0.386-0.245-0.753-0.432-1.147-0.575-0.472-0.171-0.823 0.159-0.743 0.655 1.123 6.759 8.592 10.551 16.882 16.077 0.419 0.283 0.853 0.102 0.964-0.384z"/><path d="m442.45 23.259c0.079-0.3-0.141-0.686-0.44-0.771-1.472-0.417-5.15-0.582-6.846-0.435-0.309 0.027-0.413-0.135-0.27-0.407 0.059-0.107 0.107-0.211 0.153-0.309 0.129-0.281-0.046-0.597-0.354-0.63-1.539-0.171-4.428 0.27-6.371 0.949-0.294 0.101-0.397-0.019-0.257-0.294 0.131-0.257 0.223-0.465 0.3-0.648 0.119-0.285-0.034-0.52-0.34-0.48-2.457 0.3-5.634 2.35-7.02 3.262-0.261 0.171-0.392 0.067-0.324-0.235 0.061-0.275 0.092-0.529 0.092-0.79 0-0.309-0.27-0.447-0.539-0.294-3.696 2.084-4.32 7.234-5.783 13.229-0.073 0.3 0.122 0.517 0.432 0.478l8.021-2.222c0.309-0.04 0.397 0.125 0.205 0.367l-6.233 5.707c-0.193 0.242-0.116 0.52 0.181 0.612 6 1.9 10.865 3.981 14.596 1.824 0.27-0.156 0.288-0.456 0.021-0.612-0.227-0.135-0.465-0.239-0.726-0.325-0.293-0.098-0.314-0.26-0.036-0.397 1.49-0.731 4.871-2.424 6.377-4.385 0.189-0.245 0.067-0.496-0.238-0.539-0.196-0.027-0.423-0.052-0.714-0.07-0.309-0.018-0.357-0.171-0.122-0.37 1.573-1.328 3.421-3.592 4.055-5.003 0.129-0.282-0.055-0.594-0.364-0.627-0.107-0.012-0.224-0.021-0.343-0.024-0.309-0.012-0.395-0.184-0.217-0.438 0.983-1.392 2.712-4.642 3.104-6.123z"/><path d="m332.07 76.323 7.029 4.688c0.281 0.131 0.532-0.012 0.551-0.321 0.41-6.282 1.27-11.503-1.714-14.608-0.214-0.224-0.511-0.171-0.6 0.125-0.076 0.254-0.119 0.508-0.144 0.784-0.024 0.309-0.178 0.367-0.377 0.131-1.064-1.273-3.516-4.152-5.783-5.146-0.284-0.126-0.495 0.052-0.465 0.361 0.021 0.196 0.049 0.422 0.101 0.71 0.056 0.306-0.079 0.392-0.33 0.208-1.665-1.208-4.303-2.463-5.826-2.742-0.307-0.055-0.563 0.196-0.521 0.502 0.016 0.107 0.034 0.22 0.059 0.339 0.061 0.303-0.086 0.429-0.374 0.315-1.579-0.627-5.149-1.53-6.68-1.555-0.309-6e-3 -0.634 0.3-0.643 0.609-0.052 1.527 0.667 5.141 1.212 6.753 0.098 0.294-0.03 0.435-0.331 0.358-0.119-0.03-0.229-0.055-0.336-0.073-0.307-0.055-0.569 0.187-0.526 0.496 0.202 1.536 1.318 4.235 2.441 5.958 0.169 0.26 0.077 0.392-0.227 0.321-0.281-0.067-0.505-0.107-0.7-0.138-0.306-0.049-0.496 0.156-0.386 0.447 0.878 2.313 3.626 4.908 4.844 6.037 0.227 0.211 0.159 0.364-0.149 0.371-0.285 6e-3 -0.536 0.037-0.79 0.101-0.303 0.073-0.367 0.367-0.155 0.593 2.906 3.094 8.057 2.47 14.229 2.458 0.309 0 0.472-0.242 0.361-0.533l-4.073-7.258c-0.116-0.294 0.022-0.423 0.303-0.291z"/><path d="m69.185 94.68c-0.386-0.245-0.753-0.432-1.147-0.575-0.471-0.171-0.823 0.159-0.741 0.655 1.123 6.759 8.593 10.551 16.882 16.077 0.416 0.278 0.851 0.098 0.964-0.392l0.731-9.278c0.881 0.04 1.796 0.055 2.763 0.046l3.452 8.335c0.26 0.428 0.725 0.462 1.031 0.064 6.193-8.06 12.035-14.29 10.82-21.142-0.089-0.493-0.532-0.688-0.918-0.367-0.327 0.272-0.618 0.575-0.894 0.921-0.312 0.392-0.569 0.333-0.624-0.166-0.285-2.665-0.988-8.73-3.137-12.099-0.269-0.422-0.716-0.376-0.948 0.067-0.15 0.282-0.315 0.612-0.502 1.043-0.199 0.459-0.456 0.453-0.63-0.019-1.147-3.118-3.562-7.172-5.355-8.914-0.358-0.349-0.93-0.242-1.151 0.205-0.076 0.156-0.153 0.324-0.229 0.505-0.189 0.462-0.499 0.499-0.783 0.085-1.558-2.261-5.536-6.68-7.567-8.087-0.413-0.285-1.12-0.166-1.411 0.242-1.444 2.001-3.724 7.497-4.44 10.147-0.128 0.483-0.432 0.554-0.765 0.181-0.131-0.147-0.26-0.282-0.386-0.404-0.358-0.349-0.93-0.257-1.153 0.189-1.108 2.24-2.035 6.867-2.078 10.187-6e-3 0.502-0.248 0.594-0.591 0.227-0.318-0.343-0.584-0.597-0.817-0.811-0.367-0.34-0.805-0.239-0.918 0.25-0.9 3.893 0.456 9.844 1.077 12.451 0.117 0.502-0.11 0.646-0.535 0.377z"/><path d="m139.51 53.281c-0.303 0.074-0.37 0.367-0.156 0.594 2.907 3.094 8.057 2.469 14.229 2.457 0.309 0 0.471-0.242 0.361-0.532l-4.073-7.255c-0.11-0.291 0.027-0.419 0.309-0.288l7.029 4.688c0.282 0.131 0.533-0.012 0.554-0.321 0.41-6.282 1.27-11.502-1.713-14.608-0.214-0.224-0.511-0.171-0.6 0.125-0.074 0.254-0.12 0.508-0.141 0.783-0.024 0.309-0.177 0.367-0.376 0.131-1.065-1.272-3.519-4.152-5.784-5.146-0.285-0.125-0.496 0.052-0.465 0.361 0.021 0.196 0.049 0.422 0.101 0.71 0.055 0.306-0.08 0.392-0.33 0.208-1.665-1.208-4.306-2.463-5.827-2.742-0.306-0.055-0.563 0.196-0.523 0.502 0.015 0.107 0.034 0.22 0.058 0.34 0.061 0.303-0.086 0.428-0.374 0.315-1.582-0.627-5.15-1.53-6.683-1.555-0.309-6e-3 -0.633 0.3-0.643 0.609-0.052 1.527 0.667 5.141 1.212 6.754 0.101 0.293-0.031 0.434-0.331 0.358-0.116-0.031-0.229-0.055-0.336-0.074-0.306-0.055-0.569 0.187-0.526 0.496 0.202 1.536 1.319 4.235 2.442 5.958 0.168 0.26 0.077 0.392-0.227 0.321-0.281-0.067-0.505-0.107-0.701-0.138-0.306-0.049-0.496 0.156-0.386 0.447 0.878 2.313 3.626 4.908 4.844 6.038 0.227 0.211 0.159 0.364-0.15 0.37-0.289 2e-3 -0.543 0.033-0.794 0.094z"/><path d="m223.9 43.274 7.029 4.688c0.281 0.132 0.532-0.012 0.554-0.321 0.41-6.282 1.27-11.502-1.713-14.608-0.214-0.223-0.511-0.171-0.6 0.125-0.073 0.254-0.119 0.508-0.144 0.783-0.024 0.31-0.178 0.368-0.376 0.132-1.065-1.273-3.516-4.152-5.783-5.147-0.285-0.125-0.499 0.052-0.465 0.361 0.021 0.196 0.049 0.422 0.101 0.709 0.055 0.306-0.08 0.392-0.331 0.208-1.665-1.209-4.306-2.463-5.826-2.742-0.306-0.055-0.563 0.196-0.523 0.501 0.016 0.107 0.034 0.221 0.058 0.34 0.062 0.303-0.085 0.428-0.373 0.315-1.579-0.627-5.15-1.53-6.68-1.554-0.309-6e-3 -0.633 0.3-0.643 0.609-0.055 1.527 0.667 5.141 1.212 6.753 0.098 0.294-0.031 0.435-0.331 0.358-0.116-0.03-0.229-0.055-0.336-0.073-0.306-0.055-0.569 0.187-0.526 0.496 0.202 1.536 1.319 4.235 2.442 5.958 0.168 0.26 0.076 0.392-0.227 0.321-0.282-0.067-0.505-0.107-0.701-0.138-0.306-0.049-0.496 0.156-0.386 0.447 0.878 2.313 3.626 4.908 4.844 6.037 0.226 0.211 0.159 0.364-0.15 0.37-0.282 6e-3 -0.536 0.037-0.79 0.098-0.303 0.074-0.371 0.367-0.156 0.594 2.907 3.094 8.057 2.469 14.229 2.457 0.309 0 0.471-0.242 0.361-0.532l-4.073-7.258c-0.117-0.29 0.024-0.418 0.303-0.287z"/><path d="m466.66 54.257c-0.122-0.284-0.397-0.303-0.584-0.055-0.119 0.159-0.254 0.343-0.413 0.584-0.169 0.26-0.324 0.229-0.383-0.076-0.383-2.022-1.444-4.743-2.362-5.992-0.184-0.25-0.542-0.242-0.726 9e-3 -0.063 0.089-0.128 0.184-0.189 0.285-0.162 0.263-0.354 0.254-0.486-0.028-0.722-1.539-2.702-4.645-3.798-5.713-0.223-0.217-0.667-0.214-0.887 3e-3 -1.087 1.077-3.039 4.199-3.746 5.747-0.128 0.281-0.321 0.293-0.486 0.034-0.064-0.104-0.132-0.199-0.195-0.285-0.184-0.251-0.542-0.254-0.726 0-0.905 1.254-1.943 3.987-2.308 6.013-0.055 0.306-0.211 0.337-0.382 0.08-0.159-0.242-0.297-0.422-0.416-0.578-0.19-0.245-0.469-0.227-0.588 0.058-0.945 2.286-0.726 6.059-0.612 7.717 0.021 0.309-0.131 0.374-0.364 0.168-0.211-0.19-0.416-0.34-0.643-0.468-0.269-0.153-0.52 0.012-0.52 0.324-3e-3 4.244 4.174 7.323 8.672 11.542 0.227 0.211 0.511 0.146 0.627-0.141l2.011-8.076c0.116-0.288 0.306-0.285 0.422 3e-3l1.903 8.231c0.113 0.288 0.396 0.355 0.621 0.144 4.605-4.29 8.811-7.503 8.768-11.812-3e-3 -0.309-0.254-0.475-0.523-0.318-0.229 0.131-0.438 0.288-0.64 0.471-0.229 0.208-0.383 0.147-0.364-0.165 0.097-1.653 0.284-5.429-0.683-7.706z"/><path d="m315.81 43.076c-0.089-0.493-0.532-0.688-0.918-0.367-0.327 0.272-0.618 0.575-0.894 0.921-0.312 0.392-0.569 0.333-0.624-0.166-0.285-2.665-0.988-8.73-3.137-12.099-0.27-0.422-0.713-0.376-0.948 0.067-0.15 0.284-0.315 0.612-0.502 1.043-0.199 0.459-0.456 0.453-0.631-0.019-1.147-3.118-3.562-7.172-5.354-8.914-0.358-0.349-0.931-0.242-1.15 0.205-0.077 0.156-0.156 0.327-0.229 0.505-0.19 0.462-0.499 0.499-0.783 0.085-1.558-2.261-5.536-6.68-7.568-8.087-0.412-0.285-1.116-0.166-1.41 0.242-1.444 2.001-3.724 7.497-4.44 10.147-0.131 0.483-0.431 0.554-0.765 0.181-0.132-0.147-0.26-0.282-0.386-0.404-0.357-0.349-0.93-0.257-1.153 0.19-1.107 2.24-2.032 6.867-2.078 10.187-6e-3 0.502-0.248 0.594-0.59 0.227-0.318-0.343-0.582-0.597-0.817-0.811-0.367-0.339-0.805-0.238-0.918 0.251-0.899 3.893 0.456 9.844 1.077 12.451 0.116 0.487-0.113 0.63-0.536 0.364-0.385-0.245-0.752-0.432-1.147-0.575-0.471-0.171-0.822 0.159-0.74 0.655 1.123 6.759 8.593 10.551 16.882 16.077 0.417 0.278 0.851 0.098 0.964-0.392l1.056-13.394c0.11-0.49 0.413-0.536 0.671-0.107l5.22 12.604c0.261 0.428 0.726 0.462 1.031 0.064 6.19-8.05 12.032-14.283 10.817-21.131z"/><path d="m206.49 3.011c-0.3 0.085-0.517 0.471-0.438 0.771 0.389 1.481 2.121 4.731 3.106 6.117 0.181 0.254 0.095 0.425-0.217 0.438-0.119 6e-3 -0.235 0.015-0.343 0.024-0.309 0.034-0.493 0.343-0.364 0.627 0.636 1.411 2.484 3.675 4.054 5.003 0.236 0.199 0.187 0.352-0.123 0.37-0.291 0.019-0.517 0.046-0.713 0.071-0.306 0.042-0.428 0.291-0.239 0.538 1.506 1.962 4.887 3.657 6.377 4.385 0.278 0.138 0.257 0.3-0.037 0.398-0.26 0.085-0.499 0.192-0.725 0.324-0.266 0.156-0.248 0.456 0.021 0.612 3.73 2.157 8.592 0.077 14.596-1.824 0.297-0.095 0.374-0.37 0.181-0.612l-6.23-5.707c-0.196-0.242-0.104-0.407 0.205-0.367l8.021 2.222c0.309 0.04 0.505-0.178 0.431-0.478-1.462-5.995-2.087-11.145-5.783-13.228-0.269-0.153-0.539-0.016-0.539 0.293 0 0.26 0.031 0.514 0.092 0.79 0.067 0.303-0.064 0.407-0.324 0.235-1.386-0.912-4.562-2.962-7.02-3.262-0.309-0.037-0.462 0.196-0.34 0.48 0.077 0.184 0.168 0.389 0.3 0.648 0.141 0.275 0.037 0.398-0.257 0.294-1.943-0.679-4.832-1.12-6.371-0.949-0.309 0.034-0.483 0.349-0.355 0.63 0.046 0.101 0.095 0.202 0.153 0.309 0.147 0.272 0.043 0.435-0.269 0.407-1.699-0.14-5.381 0.022-6.85 0.441z"/><path d="m327.42 21.833c0.211-0.226 0.144-0.517-0.156-0.593-0.254-0.062-0.505-0.092-0.79-0.101-0.309-9e-3 -0.379-0.159-0.149-0.37 1.218-1.129 3.966-3.724 4.844-6.038 0.11-0.291-0.079-0.493-0.386-0.447-0.195 0.031-0.419 0.07-0.7 0.138-0.303 0.07-0.395-0.061-0.227-0.321 1.123-1.726 2.24-4.425 2.441-5.958 0.04-0.309-0.223-0.551-0.526-0.496-0.106 0.019-0.22 0.046-0.336 0.074-0.3 0.076-0.432-0.064-0.331-0.358 0.545-1.612 1.268-5.223 1.212-6.753-0.012-0.31-0.333-0.616-0.643-0.61-1.53 0.024-5.101 0.927-6.68 1.555-0.288 0.113-0.435-9e-3 -0.373-0.315 0.024-0.119 0.042-0.232 0.058-0.339 0.04-0.309-0.217-0.56-0.521-0.502-1.523 0.278-4.161 1.533-5.826 2.742-0.251 0.184-0.386 0.098-0.33-0.208 0.052-0.288 0.079-0.511 0.101-0.71 0.034-0.309-0.181-0.486-0.465-0.361-2.265 0.994-4.719 3.874-5.783 5.147-0.199 0.238-0.353 0.177-0.377-0.132-0.021-0.272-0.067-0.529-0.144-0.783-0.089-0.297-0.383-0.352-0.6-0.125-2.983 3.106-2.127 8.326-1.714 14.608 0.021 0.309 0.272 0.453 0.551 0.321l7.029-4.688c0.281-0.132 0.419-3e-3 0.309 0.288l-4.072 7.258c-0.11 0.291 0.052 0.532 0.36 0.532 6.167 0.015 11.317 0.639 14.224-2.455z"/><path d="m273.8 34.936c-0.395 0.144-0.762 0.331-1.147 0.576-0.422 0.266-0.652 0.125-0.536-0.364 0.618-2.607 1.977-8.562 1.077-12.451-0.113-0.487-0.551-0.591-0.918-0.251-0.232 0.217-0.499 0.471-0.817 0.811-0.343 0.367-0.582 0.272-0.591-0.227-0.043-3.323-0.967-7.947-2.078-10.187-0.224-0.45-0.796-0.542-1.154-0.189-0.125 0.122-0.257 0.257-0.385 0.404-0.334 0.374-0.637 0.303-0.765-0.181-0.716-2.653-2.996-8.146-4.44-10.147-0.294-0.407-1.001-0.526-1.411-0.242-2.032 1.408-6.01 5.826-7.567 8.088-0.285 0.413-0.591 0.376-0.784-0.086-0.073-0.181-0.15-0.349-0.229-0.505-0.223-0.45-0.792-0.554-1.15-0.205-1.793 1.744-4.208 5.796-5.355 8.914-0.174 0.471-0.432 0.477-0.63 0.018-0.187-0.431-0.352-0.759-0.502-1.043-0.232-0.443-0.679-0.489-0.948-0.067-2.146 3.369-2.852 9.434-3.137 12.1-0.052 0.499-0.312 0.557-0.625 0.165-0.275-0.346-0.566-0.649-0.893-0.921-0.386-0.318-0.83-0.125-0.918 0.367-1.215 6.848 4.627 13.082 10.82 21.138 0.306 0.398 0.771 0.364 1.031-0.064l5.22-12.604c0.26-0.429 0.56-0.38 0.67 0.107l1.056 13.394c0.113 0.49 0.544 0.667 0.964 0.392 8.287-5.526 15.759-9.318 16.882-16.077 0.083-0.504-0.271-0.837-0.74-0.663z"/><path d="m388.93 73.627 7.029 4.688c0.281 0.131 0.532-0.012 0.554-0.321 0.41-6.282 1.27-11.503-1.714-14.609-0.214-0.223-0.511-0.171-0.6 0.126-0.073 0.254-0.119 0.508-0.141 0.783-0.024 0.309-0.178 0.367-0.377 0.131-1.064-1.273-3.519-4.152-5.783-5.147-0.284-0.125-0.496 0.052-0.465 0.361 0.021 0.196 0.049 0.422 0.101 0.71 0.056 0.306-0.079 0.392-0.33 0.208-1.665-1.209-4.306-2.463-5.826-2.742-0.307-0.055-0.563 0.196-0.523 0.501 0.016 0.107 0.033 0.221 0.058 0.34 0.062 0.303-0.085 0.429-0.373 0.315-1.579-0.627-5.149-1.53-6.68-1.555-0.31-6e-3 -0.634 0.3-0.643 0.609-0.052 1.527 0.667 5.141 1.212 6.753 0.101 0.294-0.031 0.435-0.331 0.358-0.116-0.031-0.229-0.055-0.336-0.074-0.307-0.055-0.569 0.187-0.526 0.496 0.201 1.536 1.318 4.235 2.441 5.958 0.168 0.26 0.076 0.392-0.227 0.321-0.281-0.067-0.505-0.107-0.7-0.138-0.307-0.049-0.496 0.156-0.386 0.447 0.878 2.313 3.626 4.908 4.844 6.037 0.227 0.211 0.159 0.364-0.15 0.371-0.281 6e-3 -0.535 0.037-0.789 0.101-0.303 0.074-0.37 0.367-0.156 0.594 2.907 3.094 8.058 2.47 14.229 2.458 0.309 0 0.471-0.242 0.36-0.533l-4.072-7.258c-0.119-0.292 0.019-0.421 0.3-0.289z"/><path d="m394.8 21.31c-0.214-0.224-0.511-0.171-0.6 0.125-0.073 0.254-0.12 0.508-0.141 0.783-0.024 0.309-0.178 0.367-0.377 0.132-1.064-1.273-3.519-4.152-5.783-5.147-0.284-0.125-0.496 0.052-0.465 0.361 0.021 0.196 0.049 0.422 0.101 0.71 0.055 0.306-0.079 0.392-0.33 0.208-1.665-1.208-4.306-2.463-5.826-2.742-0.307-0.055-0.563 0.196-0.523 0.502 0.015 0.107 0.033 0.22 0.058 0.339 0.062 0.303-0.085 0.429-0.373 0.315-1.579-0.627-5.15-1.53-6.68-1.555-0.31-6e-3 -0.634 0.3-0.643 0.609-0.053 1.527 0.667 5.141 1.212 6.753 0.101 0.293-0.031 0.434-0.331 0.358-0.116-0.031-0.229-0.055-0.337-0.074-0.306-0.055-0.568 0.187-0.526 0.496 0.202 1.536 1.319 4.235 2.442 5.958 0.168 0.26 0.076 0.392-0.227 0.321-0.281-0.067-0.505-0.107-0.701-0.138-0.306-0.049-0.495 0.156-0.385 0.447 0.878 2.313 3.626 4.908 4.844 6.038 0.227 0.211 0.159 0.364-0.15 0.37-0.281 6e-3 -0.535 0.037-0.789 0.101-0.303 0.073-0.37 0.367-0.156 0.594 2.907 3.093 8.057 2.469 14.229 2.457 0.309 0 0.471-0.242 0.36-0.533l-4.072-7.258c-0.11-0.291 0.027-0.419 0.309-0.288l7.029 4.688c0.281 0.132 0.532-0.012 0.554-0.321 0.404-6.283 1.261-11.503-1.723-14.609z"/></svg>
