<svg enable-background="new 0 0 454.82 454.82" version="1.1" viewBox="0 0 454.82 454.82" xmlns="http://www.w3.org/2000/svg">
 <path d="m307.56 106.27c-5.4408 1.362-13.18-2.1629-17.07 3.3652-4.9493 5.7329 0.52972 15.47 7.959 13.602 4.5478-0.63806 6.5681 4.3537 5.373 8.1856v163.97c-5.3513-2.2388-13.042 2.6174-17.055-2.8379-1.5183-5.3701 0.54748-11.237-0.28101-16.797-0.21542-39.907 0.5942-79.902-0.4436-119.75-3.8708-8.6268-14.836-4.9359-22.08-5.5738-84.606 0.17637-169.24-0.3999-253.83 0.30426-8.509 2.8591-6.0349 13.458-6.1244 20.234 0.27203 45.139-0.6085 90.366 0.46231 135.45 3.2506 7.719 12.801 5.4194 19.344 5.7559 4.3923-0.81915 12.405-1.6336 12.789 4.6914 2.37 22.711 29.337 38.325 50.22 28.886 5.713-2.2523 10.656-6.088 14.834-10.537 13.897 17.538 43.949 17.415 57.318-0.73046 5.1288-6.3953 7.8784-14.423 8.2344-22.5 48.922 5.9e-4 97.844 1e-3 146.77 2e-3 -0.30044 22.566 23.519 41.408 45.424 35.516 16.018-3.5622 28.685-19.018 28.727-35.49 19.315-0.6373 38.837 1.1346 58.014-0.87891 7.5446-4.7393 4.0062-15.07 4.6398-22.385-0.36037-18.414 0.98348-37.121-0.70814-55.342-4.2417-7.2072-13.788-5.5274-20.727-7.9911-11.425-2.4765-22.851-4.9512-34.277-7.4288-1.7535-13.167-0.10152-26.667-3.6191-39.312-5.6106-6.5985-15.356-3.9419-22.88-6.2438-15.907-2.2895-31.815-4.5763-47.722-6.8675-0.61862-18.107 1.1132-36.445-0.87305-54.354-2.0304-4.7999-7.9407-5.091-12.414-4.9375zm-284.56 61.152h246.51v127.56c-35.417 0-70.833-1e-5 -106.25 0-9.2675-20.257-38.379-27.303-55.605-12.943-2.9633 1.1594-5.6321 8.2046-8.1484 3.375-15.515-16.681-46.075-13.732-57.5 6.1465-2.7485 5.1115-8.5688 2.472-13.289 3.6973-3.9425 0.91134-8.6761-1.8149-7.7148-6.2891v-121.55h1zm300.11 15.639c6.1091 2.2261 13.87-0.46727 18.941 4.3535 2.1904 7.5642 0.28244 16.134 0.74023 24.072 0.54361 6.135-1.0609 13.129 1.8965 18.719 6.3014 5.8392 15.612 2.3788 23.328 3.1738 12.863-0.67634 25.718 0.73268 38.061 4.3858 9.2491 2.0043 18.498 4.0079 27.747 6.0126v51.205h-49.6c-9.2177-20.127-38.109-27.285-55.361-13.127-3.1441 1.5426-9.5024 10.576-8.0391 2.5723v-101.7c0.76171 0.10937 1.5234 0.21874 2.2852 0.32812zm40.076 5.7656c5.357 0.14815 13.823 0.80203 14.043 7.9063-1.4287 5.4608 1.1412 10.858 0.37696 16.316-1.6347 5.2684-8.3697 3.2221-12.539 3.4219-5.2813-0.0664-6.8934-6.0358-5.0488-10.176 0.56415-5.8066-2.0728-12.611 1.9375-17.645l0.98995 0.14143zm-289.49 102.58c14.601-0.30636 24.799 18.306 16.531 30.432-6.8981 12.356-27.137 12.644-34.135 0.18359-7.8932-11.683 0.85866-30.018 15.184-30.518 0.80451-0.082 1.6125-0.0805 2.4199-0.0976zm56.973 0c14.601-0.30651 24.797 18.307 16.529 30.432-6.8955 12.355-27.132 12.644-34.131 0.1875-7.8962-11.683 0.85416-30.022 15.182-30.521 0.80451-0.082 1.6125-0.0805 2.4199-0.0976zm220.96 0c14.601-0.30677 24.796 18.307 16.529 30.432-6.8971 12.358-27.136 12.643-34.135 0.18359-7.8911-11.685 0.8602-30.018 15.186-30.518 0.80451-0.082 1.6125-0.0805 2.4199-0.0976z" stroke-width=".1"/>
</svg>
