<svg enable-background="new 0 0 461.136 461.136" version="1.1" viewBox="0 0 461.14 461.14" xml:space="preserve" xmlns="http://www.w3.org/2000/svg"><g fill="#42b660"><circle cx="230.57" cy="37.954" r="37.954"/><path d="m338.71 263.64-15.574-133.67c-0.732-23.245-19.927-41.966-43.317-41.966h-98.508c-23.391 0-42.586 18.721-43.317 41.966l-15.574 133.67c-1.265 10.854 7.208 20.434 18.213 20.434 9.166 0 17.081-6.869 18.167-16.195 16.785-144.06 15.791-135.06 15.799-136.57v-2e-3c0.011-2.058 1.685-3.719 3.743-3.713s3.723 1.676 3.723 3.734l8e-3 307.83c0 12.137 9.839 21.976 21.976 21.976s21.976-9.839 21.976-21.976v-175.65h9.489v175.65c0 12.137 9.839 21.976 21.976 21.976s21.976-9.839 21.976-21.976c0-81.577-0.378-223.1-0.398-307.83 0-2.058 1.665-3.728 3.723-3.733 2.058-6e-3 3.732 1.656 3.743 3.714 7e-3 1.514-0.974-7.381 15.798 136.57 1.173 10.062 10.283 17.242 20.31 16.07 10.042-1.17 17.237-10.263 16.068-20.309z"/></g></svg>
