<svg enable-background="new 0 0 612 612" version="1.1" viewBox="0 0 612 612" xml:space="preserve" xmlns="http://www.w3.org/2000/svg"><g transform="matrix(.76695 0 0 .76695 71.314 71.314)"><path d="m306.02 612v-13.984l-0.022 13.984c-168.73 0-306-137.28-306-306 0-168.72 137.27-306 306-306s306 137.27 306 306c0 168.73-137.26 306-305.98 306zm-0.022-584.03c-153.31 0-278.03 124.72-278.03 278.02 0 153.31 124.72 278.04 278.03 278.04h0.022c153.29 0 278.01-124.73 278.01-278.04 0-153.3-124.72-278.02-278.03-278.02z"/><path d="m306 370.41c-7.725 0-13.985-6.26-13.985-13.985v-59.195c0-7.725 6.26-13.985 13.985-13.985 30.951 0 56.13-25.178 56.13-56.129 0-30.957-25.179-56.146-56.13-56.146s-56.135 25.189-56.135 56.146c0 7.725-6.26 13.985-13.985 13.985s-13.985-6.26-13.985-13.985c0-46.379 37.731-84.116 84.105-84.116s84.1 37.737 84.1 84.116c0 41.608-30.375 76.257-70.114 82.936v46.374c-2e-3 7.724-6.26 13.984-13.986 13.984z"/><circle cx="306" cy="433.74" r="23.03"/></g></svg>
