<?xml version="1.0" encoding="UTF-8" standalone="no"?>
<svg
   xmlns:dc="http://purl.org/dc/elements/1.1/"
   xmlns:cc="http://creativecommons.org/ns#"
   xmlns:rdf="http://www.w3.org/1999/02/22-rdf-syntax-ns#"
   xmlns:svg="http://www.w3.org/2000/svg"
   xmlns="http://www.w3.org/2000/svg"
   xmlns:sodipodi="http://sodipodi.sourceforge.net/DTD/sodipodi-0.dtd"
   xmlns:inkscape="http://www.inkscape.org/namespaces/inkscape"
   height="512pt"
   viewBox="-15 0 511 512"
   width="512pt"
   version="1.1"
   id="svg4"
   sodipodi:docname="wheelchair.svg"
   inkscape:version="0.92.2 (5c3e80d, 2017-08-06)">
  <metadata
     id="metadata10">
    <rdf:RDF>
      <cc:Work
         rdf:about="">
        <dc:format>image/svg+xml</dc:format>
        <dc:type
           rdf:resource="http://purl.org/dc/dcmitype/StillImage" />
        <dc:title></dc:title>
      </cc:Work>
    </rdf:RDF>
  </metadata>
  <defs
     id="defs8" />
  <sodipodi:namedview
     pagecolor="#ffffff"
     bordercolor="#666666"
     borderopacity="1"
     objecttolerance="10"
     gridtolerance="10"
     guidetolerance="10"
     inkscape:pageopacity="0"
     inkscape:pageshadow="2"
     inkscape:window-width="1994"
     inkscape:window-height="1574"
     id="namedview6"
     showgrid="false"
     inkscape:zoom="0.34570313"
     inkscape:cx="341.33333"
     inkscape:cy="341.33333"
     inkscape:window-x="3239"
     inkscape:window-y="368"
     inkscape:window-maximized="0"
     inkscape:current-layer="svg4" />
  <path
     d="m 100.93736,287.142 c 24.03793,0 48.07585,0 72.11377,0 0,11.03933 0,22.07864 0,33.11796 -32.05056,0 -64.10112,0 -96.151686,0 0,17.25822 0,34.51645 0,51.77467 -21.931341,10.00096 -30.990283,39.61109 -18.160902,59.77901 10.973776,18.76345 37.57227,27.02426 57.051108,16.35508 8.11215,-4.07982 15.05207,-10.98401 19.16629,-19.01352 70.28893,0 140.57785,0 210.86677,0 10.23081,21.94563 41.20212,30.72751 61.65828,17.31564 18.41128,-11.11094 26.34004,-36.75585 15.66292,-55.61338 -4.21552,-8.0808 -11.09832,-14.74614 -19.30999,-18.87051 0,-17.24232 0,-34.48466 0,-51.72699 -8.01265,0 -16.02529,0 -24.03792,0 0,-34.70717 0,-69.41432 0,-104.12148 16.07522,-0.0513 32.15082,0.079 48.22578,-0.0569 1.4255,-25.60983 -8.91473,-52.03771 -29.84044,-67.96148 -16.259,-12.89598 -37.62748,-18.82937 -58.18926,-17.20967 -7.57114,-4.7e-4 -15.14228,-9.5e-4 -22.71342,-0.001 0,7.88963 0,15.77924 0,23.66886 -16.02528,0 -32.05056,0 -48.07585,0 0,4.73993 0,9.47986 0,14.21979 16.02529,-1e-5 32.05057,0 48.07585,0 0,15.77923 0,31.55848 0,47.33772 16.02527,0 32.05057,0 48.07584,0 0,34.7979 0,69.5958 0,104.39369 -28.27909,2.39379 -54.63637,21.06605 -65.73021,47.06859 -13.3695,1e-5 -26.73899,0 -40.10849,0 0.4219,-12.62652 1.77309,-27.48681 -8.08293,-37.38573 -8.45531,-9.51206 -22.35724,-11.07384 -34.3044,-9.952 -9.87862,0 -19.75723,0 -29.63584,0 0,-11.03931 0,-22.07864 0,-33.11795 24.00563,0 48.01128,0 72.01692,0 -0.69668,-14.46817 2.43426,-29.52188 -2.60216,-43.45137 -5.76346,-12.69366 -20.53265,-19.95072 -34.18101,-18.10614 -11.74459,0 -23.48917,0 -35.23375,0 0,-18.92894 0,-37.85787 0,-56.78681 16.02527,-1e-5 32.05056,-1e-5 48.07584,0 0,-4.73993 0,-9.47986 0,-14.21979 -40.06321,0 -80.1264,0 -120.1896,0 0,-31.82198 0,-63.643966 0,-95.465952 -4.81383,0 -9.62767,0 -14.44151,0 0,76.010022 0,152.020042 0,228.030062 z M 346.30067,144.92427 c 21.08284,-0.21549 42.34893,9.24431 54.59381,26.42701 6.66452,8.93466 10.89172,19.57068 12.28752,30.56435 -27.15395,0 -54.3079,0 -81.46185,0 1e-5,-18.93355 0,-37.86711 0,-56.80066 4.86186,0.10584 9.71836,-0.234 14.58052,-0.1907 z m -229.3224,23.87341 c 18.69095,0 37.3819,0 56.07286,0 0,18.92894 0,37.85788 0,56.78682 -19.22409,0 -38.44818,0 -57.67226,0 0,-18.92894 0,-37.85788 0,-56.78682 h 0.7997 z m 72.14187,70.9789 c 14.945,0.47562 30.08749,-0.8615 44.91609,0.94737 8.86541,2.96114 12.65665,13.19156 11.11251,21.67843 0.91904,4.15982 0.0446,11.00985 -5.65048,10.77822 -40.51228,-0.64468 -81.09345,-0.002 -121.56878,-0.3122 -4.70889,-1.843 -1.955,-8.00137 -2.38974,-11.61298 -0.38883,-7.11531 -0.0452,-14.30834 -0.16087,-21.45269 24.58043,0.0522 49.16084,-0.0157 73.74127,-0.0261 z m -86.66771,94.47245 c 17.61158,-0.33354 35.93401,4.36153 48.98332,16.52669 9.27199,8.27585 15.9989,19.16306 19.69266,30.90486 46.13434,0.31178 92.26984,0.0546 138.40469,0.1338 7.17852,-24.5562 29.68253,-44.69655 55.92137,-46.87941 6.76435,-0.47211 13.74995,-1.28139 20.44394,-0.0892 5.94853,2.35141 2.89587,10.10493 3.30032,14.68422 -0.32574,5.10672 0.78917,10.20878 0.1812,15.28865 -1.4065,4.70519 -7.34684,1.79687 -10.77567,3.05433 -21.0626,2.81332 -39.00778,22.80538 -37.10181,43.98965 -1.38785,4.78292 -7.59201,2.70815 -11.24581,3.06511 -63.67134,0.018 -127.34437,0.002 -191.01636,0.008 3.494,-24.26406 -18.74921,-48.81533 -43.764939,-47.17164 -4.53785,-0.36499 -4.978277,-5.58683 -4.134401,-8.99846 -10e-7,-8.07161 0,-16.14323 0,-24.21484 3.701089,-0.18067 7.405047,-0.32388 11.11149,-0.30143 z m 104.66258,0.16611 c 9.56157,0.66769 19.64571,-1.31367 28.86112,1.79323 8.05821,3.91961 10.3805,13.65477 9.28872,21.7403 0.7093,4.0704 -0.68228,10.26746 -5.97901,10.03504 -19.33663,-0.91693 -38.78045,-0.1038 -58.17052,-0.39679 -5.59824,-13.11571 -15.31142,-23.88596 -26.11528,-33.1318 17.37161,0.0926 34.7434,0.0252 52.11497,-0.04 z M 95.781477,381.79132 c 18.542493,-0.95652 34.073073,19.16667 28.094223,36.50602 -4.58408,16.28751 -25.535232,25.63304 -40.766069,17.34333 -14.427283,-7.02703 -20.739375,-26.86514 -11.569128,-40.27551 5.10211,-8.119 14.497336,-13.54467 24.240974,-13.57384 z m 288.455053,0 c 18.54251,-0.95652 34.07307,19.16667 28.09423,36.50602 -4.58409,16.28751 -25.53523,25.63304 -40.76607,17.34333 -14.42729,-7.02703 -20.73937,-26.86514 -11.56913,-40.27551 5.10211,-8.119 14.49734,-13.54467 24.24097,-13.57384 z"
     id="path2"
     inkscape:connector-curvature="0"
     style="stroke-width:0.7935394" />
</svg>
