<?xml version="1.0" encoding="UTF-8"?>
<svg id="witte_lijnicoontjes" xmlns="http://www.w3.org/2000/svg" viewBox="0 0 50 50">
  <defs>
    <style>
      .cls-1 {
        fill: none;
        stroke: #fff;
        stroke-linecap: round;
        stroke-linejoin: round;
        stroke-width: 2px;
      }
    </style>
  </defs>
  <path class="cls-1" d="M43.87,34.45h3.54v-7.64c0-.87-1.61-8.67-1.61-8.67-.31-1.31-1.02-2.27-2.27-2.27h-3.14c.15,0-33.06,0-33.06,0h-3.14c-1.25,0-1.95.96-2.27,2.27,0,0-1.61,7.8-1.61,8.67v7.64s3.19,0,3.19,0"/>
  <path class="cls-1" d="M8.85,34.45h1.78s25.94,0,26.45,0h1.59"/>
  <path class="cls-1" d="M3.4,35.78c0-1.55,1.26-2.81,2.81-2.81s2.81,1.26,2.81,2.81-1.26,2.81-2.81,2.81-2.81-1.26-2.81-2.81"/>
  <path class="cls-1" d="M38.43,35.78c0-1.55,1.26-2.81,2.81-2.81s2.81,1.26,2.81,2.81-1.26,2.81-2.81,2.81-2.81-1.26-2.81-2.81"/>
  <line class="cls-1" x1=".3" y1="26.81" x2="36.79" y2="26.81"/>
  <line class="cls-1" x1="37.67" y1="16.39" x2="37.67" y2="34.45"/>
  <line class="cls-1" x1="29.11" y1="26.14" x2="29.11" y2="16.1"/>
  <line class="cls-1" x1="20.25" y1="26.14" x2="20.25" y2="16.1"/>
  <line class="cls-1" x1="11.39" y1="26.14" x2="11.39" y2="16.1"/>
</svg>