<?xml version="1.0" encoding="UTF-8"?>
<svg id="witte_lijnicoontjes" xmlns="http://www.w3.org/2000/svg" viewBox="0 0 50 50">
  <defs>
    <style>
      .cls-1 {
        fill: none;
        stroke: #000;
        stroke-linecap: round;
        stroke-linejoin: round;
        stroke-width: 2px;
      }
    </style>
  </defs>
  <polyline class="cls-1" points="6.33 34.45 2.05 34.45 2.05 10.72 32.33 10.72 32.33 34.45 15.4 34.45"/>
  <path class="cls-1" d="M36.5,34.45h-4.23V13.87h8.63c1.25,0,1.95.96,2.27,2.27l1.84,6.04,2.15,2.28c.6.64.93,1.47.93,2.35v7.64h-2.28"/>
  <path class="cls-1" d="M6.37,34.18c0-2.44,1.98-4.41,4.41-4.41s4.41,1.98,4.41,4.41-1.98,4.41-4.41,4.41-4.41-1.98-4.41-4.41"/>
  <circle class="cls-1" cx="41.06" cy="34.18" r="4.41"/>
  <line class="cls-1" x1="32.61" y1="22.41" x2="44.24" y2="22.41"/>
</svg>