<svg version="1.1" viewBox="0 0 463 463" xmlns="http://www.w3.org/2000/svg" fill="#fff">
    <path d="m383.5 313c-7.995 0-14.5 6.505-14.5 14.5s6.505 14.5 14.5 14.5 14.5-6.505 14.5-14.5-6.505-14.5-14.5-14.5z"/>
    <path d="m95.5 313c-7.995 0-14.5 6.505-14.5 14.5s6.505 14.5 14.5 14.5 14.5-6.505 14.5-14.5-6.505-14.5-14.5-14.5z"/>
    <path d="m444.29 218.31-55.167-24.519-40.382-87.494c-5.13-11.117-16.357-18.299-28.6-18.299h-296.64c-12.958 0-23.5 10.542-23.5 23.5v200c0 12.958 10.542 23.5 23.5 23.5h25.098c3.607 22.64 23.263 40 46.902 40s43.295-17.36 46.902-40h194.2c3.607 22.64 23.263 40 46.902 40s43.295-17.36 46.902-40h9.098c12.958 0 23.5-10.542 23.5-23.5v-64.403c1e-3 -12.436-7.342-23.735-18.706-28.785zm-95.13-75.312 22.615 49h-68.778v-49zm-253.66 217c-17.92 0-32.5-14.58-32.5-32.5 0-17.921 14.58-32.5 32.5-32.5s32.5 14.579 32.5 32.5c0 17.92-14.58 32.5-32.5 32.5zm288 0c-17.92 0-32.5-14.579-32.5-32.5s14.58-32.5 32.5-32.5 32.5 14.579 32.5 32.5c0 17.92-14.58 32.5-32.5 32.5zm64.5-72h-8.5c-4.142 0-7.5 3.357-7.5 7.5s3.358 7.5 7.5 7.5h8.5v8.5c0 4.687-3.813 8.5-8.5 8.5h-9.098c-3.607-22.64-23.263-40-46.902-40s-43.295 17.36-46.902 40h-194.2c-3.607-22.64-23.263-40-46.902-40s-43.295 17.36-46.902 40h-25.098c-4.687 0-8.5-3.813-8.5-8.5v-8.5h24.5c4.142 0 7.5-3.357 7.5-7.5s-3.358-7.5-7.5-7.5h-24.5v-176.5c0-4.687 3.813-8.5 8.5-8.5h296.64c6.413 0 12.294 3.763 14.981 9.585l7.115 15.415h-70.74c-8.547 0-15.5 6.953-15.5 15.5v32c0 17.369 14.131 31.5 31.5 31.5h94.409l46.575 20.7-1.18 0.716c-6.972 4.233-11.304 11.93-11.304 20.087v14.997c0 4.143 3.358 7.5 7.5 7.5h24.5zm-160-145v49h-0.5c-9.098 0-16.5-7.402-16.5-16.5v-32c0-0.275 0.224-0.5 0.5-0.5zm160 113h-17v-7.496c0-2.95 1.567-5.734 4.088-7.266l8.616-5.231c2.707 2.982 4.296 6.911 4.296 11.089z"/>
    <path d="m327.5 288h-176c-4.142 0-7.5 3.357-7.5 7.5s3.358 7.5 7.5 7.5h176c4.142 0 7.5-3.357 7.5-7.5s-3.358-7.5-7.5-7.5z"/>
</svg>
