<?xml version="1.0" encoding="UTF-8"?>
<svg id="witte_lijnicoontjes" xmlns="http://www.w3.org/2000/svg" viewBox="0 0 50 50">
  <defs>
    <style>
      .cls-1 {
        fill: none;
        stroke: #fff;
        stroke-linecap: round;
        stroke-linejoin: round;
        stroke-width: 2px;
      }
    </style>
  </defs>
  <polyline class="cls-1" points="4.52 34.45 .24 34.45 .24 10.72 30.53 10.72 30.53 34.45 13.59 34.45"/>
  <path class="cls-1" d="M34.69,34.45h-4.23V13.87h8.63c1.25,0,1.95.96,2.27,2.27l1.84,6.04,2.15,2.28c.6.64.93,1.47.93,2.35v7.64h-2.28"/>
  <path class="cls-1" d="M4.57,34.18c0-2.44,1.98-4.41,4.41-4.41s4.41,1.98,4.41,4.41-1.98,4.41-4.41,4.41-4.41-1.98-4.41-4.41"/>
  <circle class="cls-1" cx="39.25" cy="34.18" r="4.41"/>
  <line class="cls-1" x1="30.8" y1="22.41" x2="42.43" y2="22.41"/>
</svg>