<?xml version="1.0" encoding="UTF-8"?>
<svg id="witte_lijnicoontjes" xmlns="http://www.w3.org/2000/svg" viewBox="0 0 50 50">
  <defs>
    <style>
      .cls-1 {
        stroke-dasharray: .09 3.57;
      }

      .cls-1, .cls-2 {
        fill: none;
        stroke: #fff;
        stroke-linecap: round;
        stroke-linejoin: round;
        stroke-width: 2px;
      }
    </style>
  </defs>
  <circle class="cls-2" cx="36.63" cy="34.18" r="4.41"/>
  <circle class="cls-2" cx="9.84" cy="34.18" r="4.41"/>
  <line class="cls-2" x1="32.01" y1="34.33" x2="14.81" y2="34.33"/>
  <path class="cls-2" d="M41.93,34.33h5.62s0-2.14,0-2.14c0-3.59-2.36-6.75-5.8-7.77l-2.65-.79c-1.93-.57-3.57-1.84-4.62-3.56l-2.17-3.57c-1.47-2.42-4.1-3.89-6.93-3.89h-9.45c-2.83,0-5.46,1.48-6.93,3.89l-2.8,4.6c-.66,1.08-1.56,1.99-2.63,2.66h0C1.22,25.25-.22,27.84-.22,30.64v3.69h5.62"/>
  <line class="cls-2" x1="6.15" y1="22.59" x2="36.43" y2="22.59"/>
  <line class="cls-2" x1="17.75" y1="13.09" x2="17.75" y2="22.11"/>
  <line class="cls-2" x1="23.79" y1="10.04" x2="23.79" y2="7.68"/>
  <g>
    <path class="cls-2" d="M19.89,8.96s0-.03-.01-.05"/>
    <path class="cls-1" d="M20.51,5.5c.74-1.02,1.94-1.69,3.3-1.69,1.9,0,3.49,1.3,3.94,3.06"/>
    <path class="cls-2" d="M27.81,8.65s0,.03,0,.05"/>
  </g>
</svg>