<svg height="480pt" viewBox="0 -108 480.11827 480" width="480pt" xmlns="http://www.w3.org/2000/svg"><path d="m471.894531 111.914062-61.246093-62.640624c-5.941407-5.589844-13.695313-8.863282-21.847657-9.214844h-60.800781v-16h56c4.417969 0 8-3.582032 8-8 0-4.417969-3.582031-8-8-8h-112c0-4.417969-3.582031-8.0000002-8-8.0000002s-8 3.5820312-8 8.0000002h-40c0-4.417969-3.582031-8.0000002-8-8.0000002s-8 3.5820312-8 8.0000002h-40c0-4.417969-3.582031-8.0000002-8-8.0000002s-8 3.5820312-8 8.0000002h-40c0-4.417969-3.582031-8.0000002-8-8.0000002s-8 3.5820312-8 8.0000002h-32c-2.675781 0-5.171875 1.335937-6.65625 3.558594l-48 72c-.875 1.316406-1.33984375 2.863281-1.34375 4.441406v128c0 4.417968 3.582031 8 8 8h32c3.441406-.003906 6.496094-2.207032 7.585938-5.472656l14.183593-42.527344h2.230469v40c0 4.417968 3.582031 8 8 8h24c0 22.09375 17.910156 40 40 40s40-17.90625 40-40h16c0 22.09375 17.910156 40 40 40s40-17.90625 40-40h88c0 22.09375 17.910156 40 40 40s40-17.90625 40-40h16c6.550781.683594 13.0625-1.621094 17.71875-6.28125 4.65625-4.65625 6.964844-11.167969 6.28125-17.71875v-68.152344c.007812-7.464844-2.902344-14.636719-8.105469-19.992188zm-83.09375-55.855468c3.839844.347656 7.476563 1.886718 10.398438 4.402344l50.464843 51.597656h-65.664062v-56zm-332.800781 104c-3.441406.003906-6.496094 2.207031-7.585938 5.472656l-14.183593 42.527344h-18.230469v-117.597656l44.28125-66.402344h27.71875v112c0 4.417968 3.582031 8 8 8s8-3.582032 8-8v-112h40v112c0 4.417968 3.582031 8 8 8s8-3.582032 8-8v-112h40v112c0 4.417968 3.582031 8 8 8s8-3.582032 8-8v-112h40v112c0 4.417968 3.582031 8 8 8s8-3.582032 8-8v-112h40v136zm80 88c-13.253906 0-24-10.746094-24-24s10.746094-24 24-24 24 10.746094 24 24-10.746094 24-24 24zm96 0c-13.253906 0-24-10.746094-24-24s10.746094-24 24-24 24 10.746094 24 24-10.746094 24-24 24zm36.609375-40c-6.339844-14.574219-20.71875-24-36.609375-24s-30.269531 9.425781-36.609375 24h-22.78125c-6.339844-14.574219-20.71875-24-36.609375-24s-30.269531 9.425781-36.609375 24h-19.390625v-32h232v32zm131.390625 40c-13.253906 0-24-10.746094-24-24s10.746094-24 24-24 24 10.746094 24 24-10.746094 24-24 24zm64-48c0 6.351562-1.648438 8-8 8h-19.390625c-6.339844-14.574219-20.71875-24-36.609375-24s-30.269531 9.425781-36.609375 24h-35.390625v-152h40v64c0 4.417968 3.582031 8 8 8h87.335938c.417968 1.242187.644531 2.539062.664062 3.847656zm0 0"/></svg>