<?xml version="1.0" encoding="UTF-8"?>
<svg id="witte_lijnicoontjes" xmlns="http://www.w3.org/2000/svg" viewBox="0 0 50 50">
  <defs>
    <style>
      .cls-1 {
        fill: none;
        stroke: #000;
        stroke-linecap: round;
        stroke-linejoin: round;
        stroke-width: 2px;
      }
    </style>
  </defs>
  <path class="cls-1" d="M42.62,26.87c3.24,0,5.86,2.63,5.86,5.86s-2.63,5.86-5.86,5.86-5.86-2.63-5.86-5.86"/>
  <path class="cls-1" d="M17.28,32.73c0,3.24-2.63,5.86-5.86,5.86s-5.86-2.63-5.86-5.86"/>
  <path class="cls-1" d="M28.15,13.79h6.6c7.87,9.05,7.39,18.76,7.39,18.76h-16.87c0-9.02-5.45-12.02-8.44-13.19-1.05-.41-2.16-.61-3.28-.61h-5.48v4.41c-3.98,1.36-6.77,5.12-6.77,9.56h20.26"/>
  <path class="cls-1" d="M42.97,21.32s1.81-1.36,3.62-1.36v4.82"/>
</svg>