<?xml version="1.0" encoding="UTF-8"?>
<svg id="witte_lijnicoontjes" xmlns="http://www.w3.org/2000/svg" viewBox="0 0 50 50">
  <defs>
    <style>
      .cls-1 {
        fill: none;
        stroke: #000;
        stroke-linecap: round;
        stroke-linejoin: round;
        stroke-width: 2px;
      }
    </style>
  </defs>
  <path class="cls-1" d="M25.33,37.09l19-.02c1.85,0,3.19-1.77,2.7-3.55h0c-1.01-3.64-3.76-6.55-7.35-7.75l-13.07-5.02c-.92-.54-2.06-.56-2.98-.03-1.59.91-2.38,2.21-6.67,2.2-3.56,0-6.34-1.62-8.02-2.53-1.49-.82-1.44.33-2.19,1.85-.87,1.76-3.25,7.8-3.69,13.17-.07.9.64,1.67,1.54,1.67l11.55.03"/>
  <line class="cls-1" x1="35.32" y1="24.46" x2="32.69" y2="28.73"/>
  <line class="cls-1" x1="31.15" y1="23.16" x2="28.53" y2="27.43"/>
  <line class="cls-1" x1="26.99" y1="21.85" x2="24.36" y2="26.13"/>
  <path class="cls-1" d="M26.62,20.74s2.28-10.08,6.04-7.83c5.78,3.47-6.04,7.83-6.04,7.83Z"/>
  <line class="cls-1" x1="28.41" y1="21.32" x2="37.09" y2="20.62"/>
</svg>