<svg width="512" height="512" version="1.1" viewBox="0 0 60 60" xmlns="http://www.w3.org/2000/svg">
 <g transform="matrix(-1 0 0 1 60.004 0)" fill="#fff">
   <path d="m7 50c-1.6569 0-3 1.3431-3 3s1.3431 3 3 3 3-1.3431 3-3-1.3431-3-3-3zm0 4c-0.55228 0-1-0.44772-1-1s0.44772-1 1-1c0.55228 0 1 0.44772 1 1s-0.44772 1-1 1z"/>
   <path d="m58.977 48.977c1.0028-1.0011 1.3031-2.508 0.7606-3.817-0.54247-1.309-1.8207-2.1618-3.2376-2.16h-3.5c-0.92817 0.0015-1.8183 0.3691-2.477 1.023l-4.977 4.977h-32.81c-0.27814-0.39641-0.5965-0.76303-0.95-1.094l1.5-10.331c0.13762-0.95693-0.08048-1.9311-0.613-2.738l3.927-26.837h6.112c0.78788 0.64191 1.7717 0.9948 2.788 1 2.4853 0 4.5-2.0147 4.5-4.5s-2.0147-4.5-4.5-4.5c-1.018 0.0040576-2.0038 0.35702-2.793 1h-11.207c-0.92823 0.0011655-1.8185 0.36883-2.477 1.023-0.87792 0.87737-1.2238 2.155-0.90842 3.3554s1.2446 2.143 2.4404 2.4756l-3.819 26.122c-0.73778 0.62352-1.223 1.4945-1.365 2.45l-1.5 10.322c-2.7397 1.3674-4.2714 4.3579-3.7801 7.3801 0.49131 3.0223 2.8914 5.3736 5.9231 5.8027 3.0317 0.42914 5.9901-1.1637 7.3009-3.9308h33.385c1.1238 2.3661 3.4767 3.9049 6.0949 3.986 2.6182 0.08111 5.0618-1.3091 6.33-3.6011 1.2681-2.292 1.1477-5.1008-0.31192-7.2759 0.051-0.047 0.114-0.082 0.164-0.132zm-48.1-15.651c-0.31051-0.13609-0.63716-0.23187-0.972-0.285-0.33529-0.04299-0.67471-0.04299-1.01 0l3.66-25.041h2.019zm14.623-31.326c1.3807 0 2.5 1.1193 2.5 2.5s-1.1193 2.5-2.5 2.5-2.5-1.1193-2.5-2.5 1.1193-2.5 2.5-2.5zm-15.5 2.5c-0.0016029-0.39831 0.15592-0.78078 0.43757-1.0624 0.28165-0.28165 0.66412-0.43917 1.0624-0.43757l9.776-1.21e-5c-0.17773 0.48038-0.27111 0.98784-0.276 1.5 0.0049 0.51217 0.09827 1.0196 0.276 1.5h-9.776c-0.82843 0-1.5-0.67157-1.5-1.5zm-2.65 32.214c0.15795-1.0938 1.1727-1.8525 2.2665-1.6945s1.8525 1.1727 1.6945 2.2665l-1.364 9.373c-1.2314-0.58795-2.612-0.78912-3.96-0.577zm-0.35 21.286c-2.7614 0-5-2.2386-5-5s2.2386-5 5-5c2.7614 0 5 2.2386 5 5-0.0033 2.7601-2.2399 4.9967-5 5zm6.705-7h32.255c0.2652-5.7e-5 0.51951-0.10545 0.707-0.293l5.271-5.27c0.28257-0.27994 0.66424-0.43699 1.062-0.437h3.5c0.60815-0.0019 1.1573 0.36358 1.3902 0.92534 0.23299 0.56175 0.10373 1.2086-0.32725 1.6377-0.15944 0.15664-0.35079 0.27705-0.561 0.353-0.16085 0.05556-0.32983 0.08395-0.5 0.084h-2.462c-0.2652 5.7e-5 -0.51951 0.10545-0.707 0.293l-5.271 5.27c-0.2229 0.21999-0.50754 0.36684-0.816 0.421-0.079 8e-3 -0.166 0.016-0.246 0.016h-33.08c0.15662-1.0034 0.0831-2.0292-0.215-3zm40.295 2c0 0.55228-0.44772 1-1 1s-1-0.44772-1-1 0.44772-1 1-1 1 0.44772 1 1zm-1 5c-1.7642-0.0025-3.3958-0.93679-4.291-2.457 0.28087-0.15236 0.53931-0.34283 0.768-0.566l0.777-0.777c0.5354 1.2344 1.8272 1.9614 3.1602 1.7784 1.333-0.18298 2.3812-1.2311 2.5642-2.5642 0.18298-1.333-0.54398-2.6248-1.7784-3.1602l0.254-0.254h2.046c0.14662-0.0033 0.2929-0.01566 0.438-0.037 0.68573 0.86395 1.0599 1.934 1.062 3.037-0.0033 2.7601-2.2399 4.9967-5 5z"/>
 </g>
</svg>
