<svg version="1.1" viewBox="0 -31 480 479" xmlns="http://www.w3.org/2000/svg">
 <g fill="#fff" transform="matrix(.88136 0 0 .88136 28.475 24.737)">
  <path d="m448 208.5h-25.77l-46.23-105.67v-94.328c0-4.418-3.582-8-8-8h-256c-4.418 0-8 3.582-8 8v94.328l-46.23 105.67h-25.77c-17.672 0-32 14.328-32 32 0 17.672 14.328 32 32 32h16v72c0.04297 10.133 6.4453 19.148 16 22.527v41.473c0 4.418 3.582 8 8 8h64c4.418 0 8-3.582 8-8v-40h192v40c0 4.418 3.582 8 8 8h64c4.418 0 8-3.582 8-8v-41.473c9.5547-3.3789 15.957-12.395 16-22.527v-72h16c17.672 0 32-14.328 32-32 0-17.672-14.328-32-32-32zm-399.33 20.801s-0.04687 0.19141-0.07813 0.26172c-0.29296 0.95703-0.49218 1.9414-0.59374 2.9375v24h-16c-8.8359 0-16-7.1641-16-16s7.1641-16 16-16h18.77zm71.328-212.8h240v80h-240zm-2.7695 96h245.54l49 112h-343.54zm-53.23 160h64v32h-64zm64 128h-48v-32h48zm272 0h-48v-32h48zm16-56c0 4.418-3.582 8-8 8h-336c-4.418 0-8-3.582-8-8v-24h352zm-272-40v-16h192v16zm272 0h-64v-32h64zm0-48h-72c-4.418 0-8 3.582-8 8v8h-192v-8c0-4.418-3.582-8-8-8h-72v-16h352zm32 0h-16v-24c-0.10156-1-0.30078-1.9844-0.59375-2.9453 0-0.0703-0.0703-0.2461-0.0781-0.26172l-2.0976-4.8008h18.77c8.8359 0 16 7.1641 16 16 0 8.8359-7.1641 16-16 16z"/>
  <path d="m176 24.5h-32c-4.418 0-8 3.582-8 8s3.582 8 8 8h8v40c0 4.418 3.582 8 8 8s8-3.582 8-8v-40h8c4.418 0 8-3.582 8-8s-3.582-8-8-8z"/>
  <path d="m240 24.5h-32c-4.418 0-8 3.582-8 8v56h16v-16h16v16h16v-56c0-4.418-3.582-8-8-8zm-8 32h-16v-16h16z"/>
  <path d="m308.44 25.844c-3.6758-2.4531-8.6445-1.4609-11.098 2.2148l-9.3438 14.043-9.3438-14.043c-2.4531-3.6758-7.4219-4.668-11.098-2.2148s-4.668 7.4219-2.2148 11.098l13.055 19.559-13.039 19.559c-2.4531 3.6758-1.4609 8.6445 2.2148 11.098 3.6797 2.4531 8.6445 1.4609 11.098-2.2148l9.3281-14.043 9.3438 14.016c2.4531 3.6797 7.4219 4.6719 11.098 2.2188 3.6758-2.4531 4.668-7.4219 2.2148-11.098l-13.055-19.535 13.039-19.559c2.457-3.6719 1.4688-8.6406-2.1992-11.098z"/>
  <path d="m336 24.5c-4.418 0-8 3.582-8 8v48c0 4.418 3.582 8 8 8s8-3.582 8-8v-48c0-4.418-3.582-8-8-8z"/>
  <path d="m375.2 180.93-24-48c-1.3594-2.7266-4.1524-4.4414-7.1992-4.4258h-96c-4.418 0-8 3.582-8 8s3.582 8 8 8h91.055l21.785 43.574c1.9766 3.957 6.7812 5.5625 10.734 3.5859 3.957-1.9766 5.5625-6.7812 3.5859-10.734z"/>
  <path d="m216 128.5h-8c-4.418 0-8 3.582-8 8s3.582 8 8 8h8c4.418 0 8-3.582 8-8s-3.582-8-8-8z"/>
 </g>
</svg>
