<?xml version="1.0" encoding="UTF-8"?>
<svg id="witte_lijnicoontjes" xmlns="http://www.w3.org/2000/svg" viewBox="0 0 50 50">
  <defs>
    <style>
      .cls-1 {
        fill: none;
        stroke: #fff;
        stroke-linecap: round;
        stroke-linejoin: round;
        stroke-width: 2px;
      }
    </style>
  </defs>
  <circle class="cls-1" cx="36.34" cy="34.18" r="4.41"/>
  <circle class="cls-1" cx="9.56" cy="34.18" r="4.41"/>
  <line class="cls-1" x1="31.72" y1="34.33" x2="14.53" y2="34.33"/>
  <path class="cls-1" d="M41.65,34.33h5.62s0-2.14,0-2.14c0-3.59-2.36-6.75-5.8-7.77l-2.65-.79c-1.93-.57-3.57-1.84-4.62-3.56l-2.17-3.57c-1.47-2.42-4.1-3.89-6.93-3.89h-9.45c-2.83,0-5.46,1.48-6.93,3.89l-2.8,4.6c-.66,1.08-1.56,1.99-2.63,2.66h0c-2.37,1.48-3.81,4.08-3.81,6.88v3.69h5.62"/>
  <line class="cls-1" x1="5.65" y1="21.68" x2="35.14" y2="21.68"/>
  <line class="cls-1" x1="17.46" y1="13.18" x2="17.46" y2="21.2"/>
  <g>
    <line class="cls-1" x1="18.26" y1="25.51" x2="25.65" y2="25.51"/>
    <line class="cls-1" x1="21.95" y1="25.72" x2="21.95" y2="31.5"/>
  </g>
</svg>