<svg width="512pt" height="512pt" version="1.1" viewBox="0 -31 512 512" xmlns="http://www.w3.org/2000/svg">
 <g transform="translate(46.819 40.832)" stroke-width=".81711">
  <path d="m406.27 256.52v-67.265c0-5.5155-2.2758-51.746-51.746-51.746h-18.867v-39.662c5.6943-3.8653 9.4415-10.389 9.4415-17.775v-7.7498c0-11.839-9.6298-21.472-21.468-21.472h-17.868c-11.835 0-21.468 9.633-21.468 21.472v7.7498c0 7.3859 3.7472 13.91 9.4415 17.775v39.662h-16.898l-29.071-98.884c8.0977-2.4609 14.012-9.9937 14.012-18.886 0-10.884-8.8542-19.738-19.738-19.738h-24.137c-3.3866 0-6.1284 2.745-6.1284 6.1284 0 3.3866 2.7418 6.1284 6.1284 6.1284h24.137c4.1271 0 7.4817 3.3546 7.4817 7.4817 0 4.1239-3.3546 7.4785-7.4817 7.4785h-179.95c-4.1239 0-7.4785-3.3546-7.4785-7.4785 0-4.1271 3.3546-7.4817 7.4785-7.4817h131.37c3.3866 0 6.1284-2.7418 6.1284-6.1284 0-3.3834-2.7418-6.1284-6.1284-6.1284h-131.37c-10.881 0-19.735 8.8542-19.735 19.738 0 9.4223 6.6422 17.322 15.487 19.269v99.895c-9.0712 3.2589-17.852 7.4274-26.049 12.688-28.296 18.158-9.1191 49.126-9.1191 49.126-2.4322 3.0323-4.7112 6.1986-6.8018 9.5085-10.383 16.441-15.873 35.458-15.873 54.996 0 56.856 46.26 103.12 103.12 103.12 38.018 0 71.293-20.683 89.174-51.386h85.178c8.867 29.684 36.419 51.386 68.947 51.386 39.675 0 71.948-32.276 71.948-71.948 0-14.737-4.4558-28.449-12.088-39.869zm-109.72-184.2c0-5.0782 4.1334-9.2117 9.2117-9.2117h17.868c5.0782 0 9.2117 4.1334 9.2117 9.2117v7.753c0 5.0814-4.1334 9.2117-9.2117 9.2117h-17.868c-5.0782 0-9.2117-4.1334-9.2117-9.2117zm9.4383 29.225h17.412v35.966h-17.412zm-41.928 35.966h-96.062v-98.035h67.24zm-193.97-98.035h85.647v98.035h-11.542c-13.042-4.2196-26.869-6.4858-41.089-6.4858-11.207 0-22.289 1.4044-33.017 4.1303zm33.017 316.61c-50.099 0-90.859-40.76-90.859-90.859 0-34.692 19.298-65.867 50.364-81.36 3.0291-1.5129 4.2579-5.19 2.7482-8.219-1.5129-3.0291-5.19-4.2611-8.219-2.7514-9.3585 4.6697-17.903 10.715-25.388 17.89 0 0-10.536-18.075 6.5624-28.819 19.416-12.199 41.807-18.682 64.791-18.682 54.692 0 103.04 36.831 117.58 89.563 1.714 6.2145 0.43409 12.748-3.5046 17.925-2.8631 3.7568-6.7827 6.3709-11.191 7.5711-3.5525-53.661-48.337-96.238-102.88-96.238-7.0412 0-14.079 0.71497-20.916 2.1258-3.3163 0.68306-5.4485 3.9228-4.7654 7.2391s3.9228 5.4485 7.2359 4.7654c6.0262-1.2416 12.234-1.8736 18.446-1.8736 50.099 0 90.859 40.76 90.859 90.862 3e-3 50.099-40.757 90.859-90.859 90.859zm95.258-51.386c4.3728-10.514 7.0572-21.902 7.7051-33.824 8.2573-1.4044 15.659-5.8507 20.862-12.675 6.2816-8.2478 8.3116-18.676 5.5698-28.612-9.4606-34.312-31.931-62.503-61.159-79.819h183.18c14.312 0 26.872 7.6572 33.795 19.087h-26.298c-11.989 0-21.74 9.7511-21.74 21.74 0 11.985 9.7511 21.74 21.74 21.74h10.179c3.3866 0 6.1284-2.7418 6.1284-6.1284 0-3.3834-2.7418-6.1284-6.1284-6.1284h-10.179c-5.2283 0-9.483-4.2547-9.483-9.483 0-5.2283 4.2547-9.483 9.483-9.483h31.14c0.55538 2.6301 0.85223 5.3527 0.85223 8.1456v53.237c-12.694-11.226-29.365-18.05-47.603-18.05-39.672 0-71.948 32.276-71.948 71.948 0 2.8088 0.16597 5.5794 0.48197 8.3052zm148.04 51.386c-32.914 0-59.691-26.776-59.691-59.691 0-32.911 26.776-59.691 59.691-59.691s59.691 26.78 59.691 59.691c0 32.914-26.776 59.691-59.691 59.691z"/>
  <path d="m103.12 214.58c-27.919 0-50.636 22.716-50.636 50.639s22.716 50.636 50.636 50.636c27.922 0 50.639-22.713 50.639-50.636s-22.716-50.639-50.639-50.639zm0 89.018c-21.162 0-38.379-17.217-38.379-38.379 0-21.165 17.217-38.382 38.379-38.382 21.165 0 38.382 17.217 38.382 38.382 0 21.162-17.217 38.379-38.382 38.379z"/>
  <path d="m346.41 263.08c-18.369 0-33.313 14.944-33.313 33.31 0 18.369 14.944 33.313 33.313 33.313s33.313-14.944 33.313-33.313c0-18.369-14.944-33.31-33.313-33.31zm0 54.367c-11.612 0-21.057-9.4447-21.057-21.057 0-11.609 9.4479-21.053 21.057-21.053 11.609 0 21.057 9.4447 21.057 21.053 0 11.612-9.4479 21.057-21.057 21.057z"/>
 </g>
</svg>
