<?xml version="1.0" encoding="UTF-8"?>
<svg id="witte_lijnicoontjes" xmlns="http://www.w3.org/2000/svg" viewBox="0 0 50 50">
  <defs>
    <style>
      .cls-1 {
        fill: none;
        stroke: #fff;
        stroke-linecap: round;
        stroke-linejoin: round;
        stroke-width: 2px;
      }
    </style>
  </defs>
  <path class="cls-1" d="M39.16,34.81c.06.23.09.48.09.73,0,1.68-1.37,3.05-3.05,3.05s-3.05-1.37-3.05-3.05c0-.36.06-.71.18-1.04"/>
  <path class="cls-1" d="M32.34,34.72c.07.26.11.54.11.82,0,1.68-1.37,3.05-3.05,3.05s-3.05-1.37-3.05-3.05c0-.32.05-.64.14-.93"/>
  <path class="cls-1" d="M.23,34.45h42.35c2.59,0,4.7-2.1,4.7-4.7v-2.94c0-.87-3.97-8.67-3.97-8.67-.91-1.47-2.02-2.27-3.27-2.27h-3.14c.12,0-28.88-.1-36.67-.1"/>
  <polyline class="cls-1" points="38.74 16.1 38.74 22.74 44.99 22.74"/>
  <polygon class="cls-1" points="27.19 13.56 23.35 10.73 27.19 7.89 31.03 10.73 27.19 13.56"/>
  <rect class="cls-1" x="27.05" y="20.64" width="6.65" height="5.76"/>
  <rect class="cls-1" x="15.09" y="20.64" width="6.65" height="5.76"/>
  <rect class="cls-1" x="3.12" y="20.64" width="6.65" height="5.76"/>
</svg>