<svg enable-background="new 0 0 448.033 448.033" version="1.1" viewBox="0 0 448.03 448.03" xml:space="preserve" xmlns="http://www.w3.org/2000/svg">
<path d="m416.03 159.77h-104.03c-0.262-13.009-10.918-23.512-23.988-23.512h-30.61l41.46-21.077c2.684-1.364 4.375-4.12 4.375-7.131s-1.69-5.767-4.375-7.132l-71.225-36.208c-2.278-1.158-4.973-1.158-7.251 0l-71.224 36.208c-2.684 1.365-4.375 4.121-4.375 7.132s1.69 5.767 4.375 7.131l41.46 21.077h-30.61c-13.07 0-23.726 10.503-23.988 23.512h-104c-17.645 0-32 14.355-32 32v125.96l-0.031 1.295c-2e-3 0.063-2e-3 0.125-2e-3 0.188 0 19.553 13.887 35.921 32.315 39.768 3.262 14.415 16.166 25.214 31.553 25.214 9.704 0 18.417-4.302 24.352-11.091 5.936 6.79 14.651 11.091 24.357 11.091 15.078 0 27.778-10.371 31.348-24.356h168.8c3.571 13.984 16.273 24.356 31.354 24.356 9.704 0 18.417-4.302 24.352-11.091 5.936 6.79 14.651 11.091 24.357 11.091 15.078 0 27.778-10.371 31.348-24.356h15.892c4.418 0 8-3.582 8-8v-160.07c0-17.644-14.355-32-32-32zm-192.02-78.954 53.571 27.234-53.571 27.233-53.571-27.233 53.571-27.234zm208.02 190.91h-14.371c-0.527-0.109-1.073-0.167-1.633-0.167-4.5 0-8.162-3.661-8.162-8.162v-55.556h24.165v63.885zm-272.02-119.47h128c4.246 0 7.721 3.329 7.975 7.512h-143.95c0.254-4.183 3.729-7.512 7.975-7.512zm-143.98 55.583h24.165v55.556c0 4.5-3.662 8.162-8.162 8.162-0.56 0-1.105 0.057-1.633 0.167h-14.37v-63.885zm47.835 160.36c-6.113 0-11.445-3.376-14.252-8.356h28.498c-2.807 4.98-8.136 8.356-14.246 8.356zm48.708 0c-6.113 0-11.445-3.376-14.252-8.356h28.498c-2.807 4.98-8.136 8.356-14.246 8.356zm231.51 0c-6.113 0-11.445-3.376-14.252-8.356h28.498c-2.806 4.98-8.136 8.356-14.246 8.356zm48.708 0c-6.113 0-11.445-3.376-14.252-8.356h28.498c-2.806 4.98-8.136 8.356-14.246 8.356zm24.38-24.356c-0.01 0-0.019-1e-3 -0.029-1e-3s-0.019 1e-3 -0.029 1e-3h-48.651c-0.01 0-0.019-1e-3 -0.029-1e-3s-0.019 1e-3 -0.029 1e-3h-48.65c-0.01 0-0.019-1e-3 -0.029-1e-3s-0.019 1e-3 -0.029 1e-3h-182.74c-0.01 0-0.019-1e-3 -0.029-1e-3s-0.019 1e-3 -0.029 1e-3h-48.65c-0.01 0-0.019-1e-3 -0.029-1e-3s-0.019 1e-3 -0.029 1e-3h-47.563c-13.55 0-24.579-11-24.626-24.539l0.03-1.288c1e-3 -0.063 2e-3 -0.126 2e-3 -0.188v-5.651h7.907c4.418 0 8-3.582 8-8s-3.582-8-8-8h-7.907v-8.448h16.003c0.684 0 1.348-0.086 1.981-0.247 12.4-1.011 22.181-11.426 22.181-24.082v-63.556c0-4.418-3.582-8-8-8h-32.164v-0.071c0-8.823 7.178-16 16-16h384c8.822 0 16 7.177 16 16v0.071h-32.165c-4.418 0-8 3.582-8 8v63.556c0 12.656 9.781 23.071 22.181 24.082 0.634 0.161 1.297 0.247 1.981 0.247h16.003v8.448h-7.908c-4.418 0-8 3.582-8 8s3.582 8 8 8h7.908v31.667h-14.861z"/>
<path d="m368.21 191.84c-0.093 0-0.186 2e-3 -0.278 5e-3 -0.093-3e-3 -0.186-5e-3 -0.279-5e-3h-287.52c-4.418 0-8 3.582-8 8v63.556c0 12.656 9.781 23.071 22.181 24.081 0.634 0.162 1.297 0.247 1.981 0.247h255.75c0.684 0 1.348-0.086 1.981-0.247 12.4-1.011 22.181-11.425 22.181-24.081v-63.556c0-4.418-3.581-8-8-8zm-8 71.557c0 4.5-3.662 8.162-8.162 8.162-0.56 0-1.106 0.057-1.633 0.167h-252.49c-0.527-0.109-1.073-0.167-1.633-0.167-4.5 0-8.162-3.661-8.162-8.162v-55.556h272.08v55.556z"/>
</svg>
