<?xml version="1.0" encoding="UTF-8"?>
<svg id="witte_lijnicoontjes" xmlns="http://www.w3.org/2000/svg" viewBox="0 0 50 50">
  <defs>
    <style>
      .cls-1 {
        fill: none;
        stroke: #fff;
        stroke-linecap: round;
        stroke-linejoin: round;
        stroke-width: 2px;
      }
    </style>
  </defs>
  <path class="cls-1" d="M9.08,34.64c.16.35.24.74.24,1.14,0,1.55-1.26,2.81-2.81,2.81s-2.81-1.26-2.81-2.81"/>
  <path class="cls-1" d="M3.7,35.78c0-.38.07-.73.21-1.06"/>
  <path class="cls-1" d="M44.06,34.54c.18.37.29.79.29,1.24,0,1.55-1.26,2.81-2.81,2.81s-2.81-1.26-2.81-2.81"/>
  <path class="cls-1" d="M38.72,35.78c0-.39.08-.76.22-1.09"/>
  <path class="cls-1" d="M47.7,34.45v-7.64c0-.87-1.61-8.67-1.61-8.67-.31-1.31-1.02-2.27-2.27-2.27h-3.14c.15,0-33.06,0-33.06,0h-3.14c-1.25,0-1.95.96-2.27,2.27,0,0-1.61,7.8-1.61,8.67v7.64s47.1,0,47.1,0Z"/>
  <line class="cls-1" x1=".6" y1="26.81" x2="47.31" y2="26.81"/>
  <line class="cls-1" x1="29.4" y1="26.14" x2="29.4" y2="16.1"/>
  <line class="cls-1" x1="20.03" y1="26.14" x2="20.03" y2="16.1"/>
  <line class="cls-1" x1="10.91" y1="26.14" x2="10.91" y2="16.1"/>
  <line class="cls-1" x1="29.15" y1="26.14" x2="29.15" y2="16.1"/>
  <line class="cls-1" x1="38.26" y1="26.14" x2="38.26" y2="16.1"/>
  <polygon class="cls-1" points="11.15 13.56 7.31 10.73 11.15 7.89 14.98 10.73 11.15 13.56"/>
  <polygon class="cls-1" points="38.17 13.56 34.33 10.73 38.17 7.89 42.01 10.73 38.17 13.56"/>
</svg>