<?xml version="1.0" encoding="UTF-8"?>
<svg id="witte_lijnicoontjes" xmlns="http://www.w3.org/2000/svg" viewBox="0 0 50 50">
  <defs>
    <style>
      .cls-1 {
        fill: none;
        stroke: #fff;
        stroke-linecap: round;
        stroke-linejoin: round;
        stroke-width: 2px;
      }
    </style>
  </defs>
  <polyline class="cls-1" points="3.41 35.73 .45 35.73 .45 15.33 35.5 15.33 35.5 35.73 18.4 35.73"/>
  <path class="cls-1" d="M38.38,35.73h-2.92v-18.23h5.96c.87,0,1.35.66,1.57,1.57l1.27,4.17,1.48,1.58c.41.44.64,1.15.64,1.75v9.15h-1.58"/>
  <path class="cls-1" d="M3.44,35.54c0-1.68,1.37-3.05,3.05-3.05s3.05,1.37,3.05,3.05-1.37,3.05-3.05,3.05-3.05-1.37-3.05-3.05"/>
  <path class="cls-1" d="M10.7,35.54c0-1.68,1.37-3.05,3.05-3.05s3.05,1.37,3.05,3.05-1.37,3.05-3.05,3.05-3.05-1.37-3.05-3.05"/>
  <circle class="cls-1" cx="41.53" cy="35.54" r="3.05"/>
  <line class="cls-1" x1="35.69" y1="23.41" x2="43.73" y2="23.41"/>
</svg>