<svg version="1.1" viewBox="-15 0 511 512" xmlns="http://www.w3.org/2000/svg">
 <path d="m100.94 287.14h72.114v33.118h-96.152v51.775c-21.931 10.001-30.99 39.611-18.161 59.779 10.974 18.763 37.572 27.024 57.051 16.355 8.1122-4.0798 15.052-10.984 19.166-19.014h210.87c10.231 21.946 41.202 30.728 61.658 17.316 18.411-11.111 26.34-36.756 15.663-55.613-4.2155-8.0808-11.098-14.746-19.31-18.871v-51.727h-24.038v-104.12c16.075-0.0513 32.151 0.079 48.226-0.0569 1.4255-25.61-8.9147-52.038-29.84-67.961-16.259-12.896-37.627-18.829-58.189-17.21-7.5711-4.7e-4 -15.142-9.5e-4 -22.713-1e-3v23.669h-48.076v14.22c16.025-1e-5 32.051 0 48.076 0v47.338h48.076v104.39c-28.279 2.3938-54.636 21.066-65.73 47.069-13.37 1e-5 -26.739 0-40.108 0 0.4219-12.627 1.7731-27.487-8.0829-37.386-8.4553-9.5121-22.357-11.074-34.304-9.952h-29.636v-33.118h72.017c-0.69668-14.468 2.4343-29.522-2.6022-43.451-5.7635-12.694-20.533-19.951-34.181-18.106h-35.234v-56.787c16.025-1e-5 32.051-1e-5 48.076 0v-14.22h-120.19v-95.466h-14.442v228.03zm245.36-142.22c21.083-0.21549 42.349 9.2443 54.594 26.427 6.6645 8.9347 10.892 19.571 12.288 30.564h-81.462c1e-5 -18.934 0-37.867 0-56.801 4.8619 0.10584 9.7184-0.234 14.581-0.1907zm-229.32 23.873h56.073v56.787h-57.672v-56.787h0.7997zm72.142 70.979c14.945 0.47562 30.087-0.8615 44.916 0.94737 8.8654 2.9611 12.657 13.192 11.113 21.678 0.91904 4.1598 0.0446 11.01-5.6505 10.778-40.512-0.64468-81.093-2e-3 -121.57-0.3122-4.7089-1.843-1.955-8.0014-2.3897-11.613-0.38883-7.1153-0.0452-14.308-0.16087-21.453 24.58 0.0522 49.161-0.0157 73.741-0.0261zm-86.668 94.472c17.612-0.33354 35.934 4.3615 48.983 16.527 9.272 8.2758 15.999 19.163 19.693 30.905 46.134 0.31178 92.27 0.0546 138.4 0.1338 7.1785-24.556 29.683-44.697 55.921-46.879 6.7644-0.47211 13.75-1.2814 20.444-0.0892 5.9485 2.3514 2.8959 10.105 3.3003 14.684-0.32574 5.1067 0.78917 10.209 0.1812 15.289-1.4065 4.7052-7.3468 1.7969-10.776 3.0543-21.063 2.8133-39.008 22.805-37.102 43.99-1.3878 4.7829-7.592 2.7082-11.246 3.0651-63.671 0.018-127.34 2e-3 -191.02 8e-3 3.494-24.264-18.749-48.815-43.765-47.172-4.5378-0.36499-4.9783-5.5868-4.1344-8.9985-1e-6 -8.0716 0-16.143 0-24.215 3.7011-0.18067 7.405-0.32388 11.111-0.30143zm104.66 0.16611c9.5616 0.66769 19.646-1.3137 28.861 1.7932 8.0582 3.9196 10.38 13.655 9.2887 21.74 0.7093 4.0704-0.68228 10.267-5.979 10.035-19.337-0.91693-38.78-0.1038-58.171-0.39679-5.5982-13.116-15.311-23.886-26.115-33.132 17.372 0.0926 34.743 0.0252 52.115-0.04zm-111.33 47.376c18.542-0.95652 34.073 19.167 28.094 36.506-4.5841 16.288-25.535 25.633-40.766 17.343-14.427-7.027-20.739-26.865-11.569-40.276 5.1021-8.119 14.497-13.545 24.241-13.574zm288.46 0c18.543-0.95652 34.073 19.167 28.094 36.506-4.5841 16.288-25.535 25.633-40.766 17.343-14.427-7.027-20.739-26.865-11.569-40.276 5.1021-8.119 14.497-13.545 24.241-13.574z" stroke-width=".79354"/>
</svg>
